<ttFont>
<head>
    <!-- Most of this table will be recalculated by the compiler -->
    <tableVersion value="1.0"/>
    <fontRevision value="1.003"/>
    <checkSumAdjustment value="0x70ee4258"/>
    <magicNumber value="0x5f0f3cf5"/>
    <flags value="00000000 00000111"/>
    <unitsPerEm value="2048"/>
    <created value="Thu Apr 23 22:17:18 2020"/>
    <modified value="Fri Apr 24 03:04:04 2020"/>
    <xMin value="-1554"/>
    <yMin value="-821"/>
    <xMax value="3230"/>
    <yMax value="2080"/>
    <macStyle value="00000000 00000011"/>
    <lowestRecPPEM value="7"/>
    <fontDirectionHint value="2"/>
    <indexToLocFormat value="1"/>
    <glyphDataFormat value="0"/>
  </head>
    <TTGlyph name=".notdef" xMin="68" yMin="-131" xMax="932" yMax="1507">
      <contour>
        <pt x="354" y="1194" on="1"/>
        <pt x="286" y="1194" on="0"/>
        <pt x="285" y="1280" on="1"/>
        <pt x="285" y="1362" on="0"/>
        <pt x="369" y="1362" on="1"/>
        <pt x="499" y="1362" on="0"/>
        <pt x="614" y="1231" on="1"/>
        <pt x="729" y="1090" on="0"/>
        <pt x="731" y="930" on="1"/>
        <pt x="731" y="784" on="0"/>
        <pt x="649" y="741" on="1"/>
        <pt x="485" y="653" on="1"/>
        <pt x="410" y="612" on="0"/>
        <pt x="410" y="563" on="1"/>
        <pt x="410" y="508" on="0"/>
        <pt x="430" y="438" on="1"/>
        <pt x="431" y="424" on="0"/>
        <pt x="408" y="420" on="1"/>
        <pt x="393" y="418" on="0"/>
        <pt x="385" y="426" on="1"/>
        <pt x="311" y="561" on="0"/>
        <pt x="311" y="637" on="1"/>
        <pt x="309" y="727" on="0"/>
        <pt x="424" y="788" on="1"/>
        <pt x="530" y="844" on="1"/>
        <pt x="645" y="907" on="0"/>
        <pt x="645" y="995" on="1"/>
        <pt x="647" y="1194" on="0"/>
        <pt x="354" y="1194" on="1"/>
      </contour>
      <contour>
        <pt x="532" y="86" on="1"/>
        <pt x="532" y="18" on="0"/>
        <pt x="479" y="-14" on="1"/>
        <pt x="449" y="-31" on="0"/>
        <pt x="414" y="-31" on="1"/>
        <pt x="354" y="-31" on="0"/>
        <pt x="317" y="18" on="1"/>
        <pt x="295" y="49" on="0"/>
        <pt x="295" y="86" on="1"/>
        <pt x="295" y="156" on="0"/>
        <pt x="346" y="193" on="1"/>
        <pt x="375" y="213" on="0"/>
        <pt x="414" y="213" on="1"/>
        <pt x="479" y="213" on="0"/>
        <pt x="514" y="158" on="1"/>
        <pt x="532" y="125" on="0"/>
        <pt x="532" y="86" on="1"/>
      </contour>
      <contour>
        <pt x="932" y="-131" on="1"/>
        <pt x="932" y="1507" on="1"/>
        <pt x="68" y="1507" on="1"/>
        <pt x="68" y="-131" on="1"/>
      </contour>
    </TTGlyph>
    <TTGlyph name="A" xMin="-160" yMin="-8" xMax="1079" yMax="1386">
      <contour>
        <pt x="1044" y="1151" on="1"/>
        <pt x="1051" y="1198" on="0"/>
        <pt x="1079" y="1312" on="0"/>
        <pt x="1079" y="1335" on="1"/>
        <pt x="1079" y="1386" on="0"/>
        <pt x="1036" y="1386" on="1"/>
        <pt x="1010" y="1386" on="0"/>
        <pt x="899" y="1328" on="0"/>
        <pt x="829" y="1303" on="1"/>
        <pt x="762" y="1280" on="0"/>
        <pt x="762" y="1260" on="1"/>
        <pt x="762" y="1249" on="0"/>
        <pt x="780" y="1225" on="0"/>
        <pt x="780" y="1204" on="0"/>
        <pt x="772" y="1192" on="1"/>
        <pt x="117" y="217" on="1"/>
        <pt x="76" y="156" on="0"/>
        <pt x="-20" y="86" on="0"/>
        <pt x="-129" y="86" on="1"/>
        <pt x="-145" y="86" on="0"/>
        <pt x="-160" y="18" on="0"/>
        <pt x="-160" y="-8" on="0"/>
        <pt x="-152" y="-8" on="1"/>
        <pt x="-74" y="0" on="0"/>
        <pt x="233" y="0" on="0"/>
        <pt x="309" y="-8" on="1"/>
        <pt x="322" y="-8" on="0"/>
        <pt x="338" y="49" on="0"/>
        <pt x="338" y="86" on="0"/>
        <pt x="330" y="86" on="1"/>
        <pt x="209" y="86" on="0"/>
        <pt x="209" y="141" on="1"/>
        <pt x="208" y="162" on="0"/>
        <pt x="233" y="201" on="1"/>
        <pt x="422" y="496" on="1"/>
        <pt x="438" y="522" on="0"/>
        <pt x="469" y="522" on="1"/>
        <pt x="717" y="522" on="1"/>
        <pt x="758" y="524" on="0"/>
        <pt x="754" y="485" on="1"/>
        <pt x="717" y="203" on="1"/>
        <pt x="707" y="129" on="0"/>
        <pt x="651" y="86" on="0"/>
        <pt x="590" y="86" on="1"/>
        <pt x="580" y="86" on="0"/>
        <pt x="561" y="27" on="0"/>
        <pt x="561" y="-8" on="0"/>
        <pt x="569" y="-8" on="1"/>
        <pt x="645" y="0" on="0"/>
        <pt x="954" y="0" on="0"/>
        <pt x="1030" y="-8" on="1"/>
        <pt x="1042" y="-8" on="0"/>
        <pt x="1061" y="47" on="0"/>
        <pt x="1061" y="86" on="0"/>
        <pt x="1053" y="86" on="1"/>
        <pt x="926" y="86" on="0"/>
        <pt x="926" y="172" on="1"/>
        <pt x="926" y="189" on="0"/>
        <pt x="928" y="203" on="1"/>
      </contour>
      <contour>
        <pt x="774" y="649" on="1"/>
        <pt x="770" y="606" on="0"/>
        <pt x="731" y="606" on="1"/>
        <pt x="528" y="606" on="1"/>
        <pt x="510" y="606" on="0"/>
        <pt x="508" y="629" on="0"/>
        <pt x="514" y="637" on="1"/>
        <pt x="799" y="1065" on="1"/>
        <pt x="807" y="1077" on="0"/>
        <pt x="815" y="1077" on="1"/>
        <pt x="823" y="1077" on="0"/>
        <pt x="821" y="1063" on="1"/>
        <pt x="774" y="649" on="1"/>
      </contour>
    </TTGlyph>
    <TTGlyph name="AE" xMin="-229" yMin="-8" xMax="1907" yMax="1358">
      <contour>
        <pt x="37" y="203" on="1"/>
        <pt x="-18" y="137" on="0"/>
        <pt x="-119" y="86" on="0"/>
        <pt x="-199" y="86" on="1"/>
        <pt x="-213" y="86" on="0"/>
        <pt x="-229" y="18" on="0"/>
        <pt x="-229" y="-8" on="0"/>
        <pt x="-221" y="-8" on="1"/>
        <pt x="-146" y="0" on="0"/>
        <pt x="10" y="0" on="1"/>
        <pt x="157" y="0" on="0"/>
        <pt x="233" y="-8" on="1"/>
        <pt x="248" y="-8" on="0"/>
        <pt x="270" y="86" on="0"/>
        <pt x="258" y="86" on="1"/>
        <pt x="139" y="86" on="0"/>
        <pt x="139" y="129" on="1"/>
        <pt x="139" y="147" on="0"/>
        <pt x="162" y="176" on="1"/>
        <pt x="473" y="569" on="1"/>
        <pt x="498" y="600" on="0"/>
        <pt x="514" y="600" on="1"/>
        <pt x="813" y="600" on="1"/>
        <pt x="852" y="600" on="0"/>
        <pt x="840" y="563" on="1"/>
        <pt x="733" y="213" on="1"/>
        <pt x="707" y="125" on="0"/>
        <pt x="641" y="86" on="0"/>
        <pt x="547" y="86" on="1"/>
        <pt x="530" y="86" on="0"/>
        <pt x="512" y="-8" on="0"/>
        <pt x="524" y="-8" on="1"/>
        <pt x="717" y="0" on="0"/>
        <pt x="1038" y="0" on="0"/>
        <pt x="1495" y="-8" on="0"/>
        <pt x="1505" y="-8" on="1"/>
        <pt x="1579" y="-8" on="0"/>
        <pt x="1616" y="0" on="0"/>
        <pt x="1624" y="33" on="1"/>
        <pt x="1708" y="344" on="1"/>
        <pt x="1712" y="360" on="0"/>
        <pt x="1618" y="360" on="0"/>
        <pt x="1612" y="344" on="1"/>
        <pt x="1538" y="96" on="0"/>
        <pt x="1288" y="86" on="1"/>
        <pt x="1061" y="78" on="1"/>
        <pt x="963" y="74" on="0"/>
        <pt x="963" y="158" on="1"/>
        <pt x="963" y="192" on="0"/>
        <pt x="983" y="264" on="1"/>
        <pt x="1075" y="567" on="1"/>
        <pt x="1087" y="600" on="0"/>
        <pt x="1112" y="600" on="1"/>
        <pt x="1305" y="600" on="1"/>
        <pt x="1346" y="600" on="0"/>
        <pt x="1380" y="578" on="0"/>
        <pt x="1372" y="549" on="1"/>
        <pt x="1339" y="420" on="1"/>
        <pt x="1335" y="408" on="0"/>
        <pt x="1417" y="404" on="0"/>
        <pt x="1423" y="420" on="1"/>
        <pt x="1432" y="469" on="0"/>
        <pt x="1530" y="799" on="0"/>
        <pt x="1561" y="877" on="1"/>
        <pt x="1565" y="895" on="0"/>
        <pt x="1476" y="895" on="0"/>
        <pt x="1470" y="877" on="1"/>
        <pt x="1423" y="731" on="1"/>
        <pt x="1407" y="684" on="0"/>
        <pt x="1323" y="684" on="1"/>
        <pt x="1149" y="684" on="1"/>
        <pt x="1110" y="684" on="0"/>
        <pt x="1120" y="721" on="1"/>
        <pt x="1274" y="1225" on="1"/>
        <pt x="1290" y="1270" on="0"/>
        <pt x="1333" y="1270" on="1"/>
        <pt x="1571" y="1266" on="1"/>
        <pt x="1659" y="1264" on="0"/>
        <pt x="1735" y="1167" on="0"/>
        <pt x="1735" y="1108" on="1"/>
        <pt x="1734" y="1063" on="0"/>
        <pt x="1718" y="1010" on="1"/>
        <pt x="1716" y="1004" on="0"/>
        <pt x="1745" y="993" on="0"/>
        <pt x="1782" y="993" on="0"/>
        <pt x="1817" y="1004" on="0"/>
        <pt x="1819" y="1010" on="1"/>
        <pt x="1903" y="1292" on="1"/>
        <pt x="1907" y="1309" on="0"/>
        <pt x="1907" y="1319" on="1"/>
        <pt x="1907" y="1358" on="0"/>
        <pt x="1841" y="1358" on="1"/>
        <pt x="1755" y="1358" on="0"/>
        <pt x="1409" y="1352" on="0"/>
        <pt x="981" y="1352" on="0"/>
        <pt x="838" y="1358" on="1"/>
        <pt x="825" y="1358" on="0"/>
        <pt x="797" y="1264" on="0"/>
        <pt x="813" y="1264" on="1"/>
        <pt x="899" y="1266" on="0"/>
        <pt x="899" y="1235" on="1"/>
        <pt x="899" y="1212" on="0"/>
        <pt x="860" y="1171" on="1"/>
        <pt x="37" y="203" on="1"/>
      </contour>
      <contour>
        <pt x="995" y="1190" on="1"/>
        <pt x="1004" y="1202" on="0"/>
        <pt x="1012" y="1202" on="1"/>
        <pt x="1030" y="1203" on="0"/>
        <pt x="1022" y="1174" on="1"/>
        <pt x="885" y="717" on="1"/>
        <pt x="875" y="684" on="0"/>
        <pt x="840" y="684" on="1"/>
        <pt x="616" y="684" on="1"/>
        <pt x="592" y="684" on="0"/>
        <pt x="592" y="696" on="1"/>
        <pt x="592" y="707" on="0"/>
        <pt x="604" y="721" on="1"/>
      </contour>
    </TTGlyph>
    <TTGlyph name="AEacute" xMin="-229" yMin="-8" xMax="1907" yMax="1767">
      <component glyphName="acute.case" x="532" y="0" flags="0x0"/>
      <component glyphName="AE" x="0" y="0" flags="0x0"/>
    </TTGlyph>
    <TTGlyph name="Aacute" xMin="-160" yMin="-8" xMax="1233" yMax="1767">
      <component glyphName="acute.case" x="135" y="0" flags="0x0"/>
      <component glyphName="A" x="0" y="0" flags="0x0"/>
    </TTGlyph>
    <TTGlyph name="Abreve" xMin="-160" yMin="-8" xMax="1288" yMax="1800">
      <component glyphName="breve" x="567" y="465" flags="0x4"/>
      <component glyphName="A" x="0" y="0" flags="0x0"/>
    </TTGlyph>
    <TTGlyph name="Acircumflex" xMin="-160" yMin="-8" xMax="1330" yMax="1820">
      <component glyphName="circumflex.case" x="240" y="0" flags="0x0"/>
      <component glyphName="A" x="0" y="0" flags="0x0"/>
    </TTGlyph>
    <TTGlyph name="Adieresis" xMin="-160" yMin="-8" xMax="1336" yMax="1755">
      <component glyphName="dieresis.case" x="240" y="4" flags="0x4"/>
      <component glyphName="A" x="0" y="0" flags="0x0"/>
    </TTGlyph>
    <TTGlyph name="Agrave" xMin="-160" yMin="-8" xMax="1139" yMax="1767">
      <component glyphName="grave.case" x="160" y="0" flags="0x0"/>
      <component glyphName="A" x="0" y="0" flags="0x0"/>
    </TTGlyph>
    <TTGlyph name="Amacron" xMin="-160" yMin="-8" xMax="1340" yMax="1669">
      <component glyphName="macron.case" x="225" y="0" flags="0x0"/>
      <component glyphName="A" x="0" y="0" flags="0x0"/>
    </TTGlyph>
    <TTGlyph name="Aogonek" xMin="-160" yMin="-488" xMax="1079" yMax="1386">
      <contour>
        <pt x="774" y="649" on="1"/>
        <pt x="770" y="606" on="0"/>
        <pt x="731" y="606" on="1"/>
        <pt x="528" y="606" on="1"/>
        <pt x="510" y="606" on="0"/>
        <pt x="508" y="629" on="0"/>
        <pt x="514" y="637" on="1"/>
        <pt x="799" y="1065" on="1"/>
        <pt x="807" y="1077" on="0"/>
        <pt x="823" y="1077" on="0"/>
        <pt x="821" y="1063" on="1"/>
        <pt x="774" y="649" on="1"/>
      </contour>
      <contour>
        <pt x="1044" y="1151" on="1"/>
        <pt x="1051" y="1198" on="0"/>
        <pt x="1079" y="1312" on="0"/>
        <pt x="1079" y="1335" on="1"/>
        <pt x="1079" y="1386" on="0"/>
        <pt x="1036" y="1386" on="1"/>
        <pt x="1010" y="1386" on="0"/>
        <pt x="897" y="1327" on="0"/>
        <pt x="762" y="1280" on="0"/>
        <pt x="762" y="1260" on="1"/>
        <pt x="762" y="1249" on="0"/>
        <pt x="780" y="1225" on="0"/>
        <pt x="780" y="1204" on="0"/>
        <pt x="772" y="1192" on="1"/>
        <pt x="117" y="217" on="1"/>
        <pt x="76" y="156" on="0"/>
        <pt x="-20" y="86" on="0"/>
        <pt x="-129" y="86" on="1"/>
        <pt x="-145" y="86" on="0"/>
        <pt x="-160" y="18" on="0"/>
        <pt x="-160" y="-8" on="0"/>
        <pt x="-152" y="-8" on="1"/>
        <pt x="-74" y="0" on="0"/>
        <pt x="233" y="0" on="0"/>
        <pt x="309" y="-8" on="1"/>
        <pt x="322" y="-8" on="0"/>
        <pt x="338" y="49" on="0"/>
        <pt x="338" y="86" on="0"/>
        <pt x="330" y="86" on="1"/>
        <pt x="209" y="86" on="0"/>
        <pt x="209" y="141" on="1"/>
        <pt x="208" y="162" on="0"/>
        <pt x="233" y="201" on="1"/>
        <pt x="422" y="496" on="1"/>
        <pt x="438" y="522" on="0"/>
        <pt x="469" y="522" on="1"/>
        <pt x="717" y="522" on="1"/>
        <pt x="758" y="524" on="0"/>
        <pt x="754" y="485" on="1"/>
        <pt x="717" y="203" on="1"/>
        <pt x="707" y="129" on="0"/>
        <pt x="651" y="86" on="0"/>
        <pt x="590" y="86" on="1"/>
        <pt x="580" y="86" on="0"/>
        <pt x="561" y="27" on="0"/>
        <pt x="561" y="-8" on="0"/>
        <pt x="569" y="-8" on="1"/>
        <pt x="647" y="0" on="0"/>
        <pt x="801" y="0" on="1"/>
        <pt x="813" y="0" on="1"/>
        <pt x="532" y="-201" on="0"/>
        <pt x="532" y="-373" on="1"/>
        <pt x="532" y="-487" on="0"/>
        <pt x="840" y="-488" on="0"/>
        <pt x="946" y="-375" on="1"/>
        <pt x="956" y="-342" on="0"/>
        <pt x="938" y="-336" on="1"/>
        <pt x="886" y="-367" on="0"/>
        <pt x="825" y="-367" on="1"/>
        <pt x="729" y="-367" on="0"/>
        <pt x="729" y="-293" on="1"/>
        <pt x="729" y="-176" on="0"/>
        <pt x="930" y="-2" on="1"/>
        <pt x="989" y="-4" on="0"/>
        <pt x="1030" y="-8" on="1"/>
        <pt x="1042" y="-8" on="0"/>
        <pt x="1061" y="47" on="0"/>
        <pt x="1061" y="86" on="0"/>
        <pt x="1053" y="86" on="1"/>
        <pt x="926" y="86" on="0"/>
        <pt x="926" y="172" on="1"/>
        <pt x="926" y="189" on="0"/>
        <pt x="928" y="203" on="1"/>
      </contour>
    </TTGlyph>
    <TTGlyph name="Aring" xMin="-164" yMin="-8" xMax="1223" yMax="1729">
      <contour>
        <pt x="1223" y="1520" on="1"/>
        <pt x="1223" y="1604" on="0"/>
        <pt x="1096" y="1729" on="0"/>
        <pt x="891" y="1729" on="0"/>
        <pt x="764" y="1604" on="0"/>
        <pt x="764" y="1520" on="1"/>
        <pt x="764" y="1400" on="0"/>
        <pt x="870" y="1341" on="1"/>
        <pt x="117" y="217" on="1"/>
        <pt x="84" y="170" on="0"/>
        <pt x="25" y="113" on="0"/>
        <pt x="-43" y="92" on="0"/>
        <pt x="-86" y="86" on="0"/>
        <pt x="-129" y="86" on="1"/>
        <pt x="-145" y="86" on="0"/>
        <pt x="-164" y="-8" on="0"/>
        <pt x="-152" y="-8" on="1"/>
        <pt x="-73" y="0" on="0"/>
        <pt x="74" y="0" on="1"/>
        <pt x="233" y="0" on="0"/>
        <pt x="309" y="-8" on="1"/>
        <pt x="326" y="-8" on="0"/>
        <pt x="344" y="86" on="0"/>
        <pt x="330" y="86" on="1"/>
        <pt x="305" y="86" on="0"/>
        <pt x="270" y="88" on="0"/>
        <pt x="225" y="100" on="0"/>
        <pt x="209" y="125" on="0"/>
        <pt x="213" y="168" on="0"/>
        <pt x="233" y="201" on="1"/>
        <pt x="422" y="496" on="1"/>
        <pt x="438" y="522" on="0"/>
        <pt x="469" y="522" on="1"/>
        <pt x="717" y="522" on="1"/>
        <pt x="756" y="524" on="0"/>
        <pt x="754" y="485" on="1"/>
        <pt x="717" y="203" on="1"/>
        <pt x="707" y="129" on="0"/>
        <pt x="651" y="86" on="0"/>
        <pt x="590" y="86" on="1"/>
        <pt x="578" y="86" on="0"/>
        <pt x="555" y="-8" on="0"/>
        <pt x="569" y="-8" on="1"/>
        <pt x="647" y="0" on="0"/>
        <pt x="807" y="0" on="1"/>
        <pt x="954" y="0" on="0"/>
        <pt x="1030" y="-8" on="1"/>
        <pt x="1047" y="-8" on="0"/>
        <pt x="1067" y="86" on="0"/>
        <pt x="1053" y="86" on="1"/>
        <pt x="983" y="86" on="0"/>
        <pt x="922" y="133" on="0"/>
        <pt x="928" y="203" on="1"/>
        <pt x="1065" y="1321" on="1"/>
        <pt x="1139" y="1339" on="0"/>
        <pt x="1223" y="1452" on="0"/>
        <pt x="1223" y="1520" on="1"/>
      </contour>
      <contour>
        <pt x="993" y="1653" on="1"/>
        <pt x="1040" y="1651" on="0"/>
        <pt x="1094" y="1575" on="0"/>
        <pt x="1094" y="1462" on="0"/>
        <pt x="1040" y="1386" on="0"/>
        <pt x="944" y="1386" on="0"/>
        <pt x="893" y="1462" on="0"/>
        <pt x="893" y="1575" on="0"/>
        <pt x="946" y="1651" on="0"/>
        <pt x="993" y="1653" on="1"/>
      </contour>
      <contour>
        <pt x="774" y="649" on="1"/>
        <pt x="770" y="606" on="0"/>
        <pt x="731" y="606" on="1"/>
        <pt x="528" y="606" on="1"/>
        <pt x="516" y="606" on="0"/>
        <pt x="508" y="627" on="0"/>
        <pt x="516" y="639" on="1"/>
        <pt x="799" y="1065" on="1"/>
        <pt x="809" y="1079" on="0"/>
        <pt x="823" y="1075" on="0"/>
        <pt x="821" y="1063" on="1"/>
      </contour>
    </TTGlyph>
    <TTGlyph name="Aringacute" xMin="-164" yMin="-8" xMax="1323" yMax="2080">
      <contour>
        <pt x="1296" y="1933" on="1"/>
        <pt x="1321" y="1940" on="0"/>
        <pt x="1323" y="1968" on="1"/>
        <pt x="1323" y="1985" on="0"/>
        <pt x="1298" y="2044" on="0"/>
        <pt x="1254" y="2080" on="0"/>
        <pt x="1235" y="2080" on="1"/>
        <pt x="1226" y="2080" on="0"/>
        <pt x="1212" y="2072" on="1"/>
        <pt x="897" y="1865" on="1"/>
        <pt x="866" y="1847" on="0"/>
        <pt x="866" y="1822" on="1"/>
        <pt x="866" y="1803" on="0"/>
        <pt x="896" y="1788" on="0"/>
        <pt x="909" y="1788" on="1"/>
        <pt x="921" y="1788" on="0"/>
        <pt x="932" y="1792" on="1"/>
        <pt x="1296" y="1933" on="1"/>
      </contour>
      <contour>
        <pt x="1223" y="1510" on="1"/>
        <pt x="1223" y="1590" on="0"/>
        <pt x="1096" y="1709" on="0"/>
        <pt x="994" y="1709" on="1"/>
        <pt x="892" y="1709" on="0"/>
        <pt x="764" y="1590" on="0"/>
        <pt x="764" y="1510" on="1"/>
        <pt x="764" y="1396" on="0"/>
        <pt x="870" y="1340" on="1"/>
        <pt x="117" y="217" on="1"/>
        <pt x="84" y="170" on="0"/>
        <pt x="25" y="113" on="0"/>
        <pt x="-43" y="92" on="0"/>
        <pt x="-86" y="86" on="0"/>
        <pt x="-129" y="86" on="1"/>
        <pt x="-145" y="86" on="0"/>
        <pt x="-164" y="-8" on="0"/>
        <pt x="-152" y="-8" on="1"/>
        <pt x="-73" y="0" on="0"/>
        <pt x="233" y="0" on="0"/>
        <pt x="309" y="-8" on="1"/>
        <pt x="326" y="-8" on="0"/>
        <pt x="344" y="86" on="0"/>
        <pt x="330" y="86" on="1"/>
        <pt x="211" y="86" on="0"/>
        <pt x="211" y="146" on="1"/>
        <pt x="211" y="168" on="0"/>
        <pt x="233" y="201" on="1"/>
        <pt x="422" y="496" on="1"/>
        <pt x="438" y="522" on="0"/>
        <pt x="469" y="522" on="1"/>
        <pt x="717" y="522" on="1"/>
        <pt x="758" y="522" on="0"/>
        <pt x="754" y="485" on="1"/>
        <pt x="717" y="203" on="1"/>
        <pt x="707" y="129" on="0"/>
        <pt x="651" y="86" on="0"/>
        <pt x="590" y="86" on="1"/>
        <pt x="578" y="86" on="0"/>
        <pt x="555" y="-8" on="0"/>
        <pt x="569" y="-8" on="1"/>
        <pt x="647" y="0" on="0"/>
        <pt x="954" y="0" on="0"/>
        <pt x="1030" y="-8" on="1"/>
        <pt x="1047" y="-8" on="0"/>
        <pt x="1067" y="86" on="0"/>
        <pt x="1053" y="86" on="1"/>
        <pt x="983" y="86" on="0"/>
        <pt x="922" y="133" on="0"/>
        <pt x="928" y="203" on="1"/>
        <pt x="1065" y="1321" on="1"/>
        <pt x="1139" y="1338" on="0"/>
        <pt x="1223" y="1445" on="0"/>
        <pt x="1223" y="1510" on="1"/>
      </contour>
      <contour>
        <pt x="993" y="1636" on="1"/>
        <pt x="1040" y="1634" on="0"/>
        <pt x="1094" y="1562" on="0"/>
        <pt x="1094" y="1509" on="1"/>
        <pt x="1094" y="1455" on="0"/>
        <pt x="1040" y="1383" on="0"/>
        <pt x="992" y="1383" on="1"/>
        <pt x="944" y="1383" on="0"/>
        <pt x="893" y="1455" on="0"/>
        <pt x="893" y="1509" on="1"/>
        <pt x="893" y="1562" on="0"/>
        <pt x="946" y="1634" on="0"/>
        <pt x="993" y="1636" on="1"/>
      </contour>
      <contour>
        <pt x="774" y="649" on="1"/>
        <pt x="770" y="606" on="0"/>
        <pt x="731" y="606" on="1"/>
        <pt x="528" y="606" on="1"/>
        <pt x="516" y="606" on="0"/>
        <pt x="508" y="627" on="0"/>
        <pt x="516" y="639" on="1"/>
        <pt x="799" y="1065" on="1"/>
        <pt x="809" y="1079" on="0"/>
        <pt x="823" y="1075" on="0"/>
        <pt x="821" y="1063" on="1"/>
      </contour>
    </TTGlyph>
    <TTGlyph name="Atilde" xMin="-160" yMin="-8" xMax="1268" yMax="1710">
      <component glyphName="tilde.case" x="432" y="0" flags="0x0"/>
      <component glyphName="A" x="0" y="0" flags="0x0"/>
    </TTGlyph>
    <TTGlyph name="B" xMin="-25" yMin="-8" xMax="1284" yMax="1358">
      <contour>
        <pt x="1186" y="453" on="1"/>
        <pt x="1186" y="607" on="0"/>
        <pt x="1024" y="711" on="1"/>
        <pt x="1006" y="723" on="0"/>
        <pt x="1006" y="742" on="0"/>
        <pt x="1026" y="752" on="1"/>
        <pt x="1135" y="803" on="0"/>
        <pt x="1284" y="983" on="0"/>
        <pt x="1284" y="1098" on="1"/>
        <pt x="1284" y="1214" on="0"/>
        <pt x="1096" y="1358" on="0"/>
        <pt x="928" y="1358" on="1"/>
        <pt x="854" y="1358" on="0"/>
        <pt x="692" y="1354" on="0"/>
        <pt x="512" y="1354" on="0"/>
        <pt x="373" y="1358" on="1"/>
        <pt x="358" y="1358" on="0"/>
        <pt x="340" y="1288" on="0"/>
        <pt x="340" y="1264" on="0"/>
        <pt x="346" y="1264" on="1"/>
        <pt x="436" y="1264" on="0"/>
        <pt x="496" y="1233" on="0"/>
        <pt x="496" y="1208" on="1"/>
        <pt x="495" y="1182" on="0"/>
        <pt x="487" y="1155" on="1"/>
        <pt x="201" y="203" on="1"/>
        <pt x="186" y="152" on="0"/>
        <pt x="119" y="86" on="0"/>
        <pt x="8" y="86" on="1"/>
        <pt x="-8" y="86" on="0"/>
        <pt x="-25" y="16" on="0"/>
        <pt x="-24" y="-8" on="0"/>
        <pt x="-16" y="-8" on="1"/>
        <pt x="207" y="0" on="0"/>
        <pt x="336" y="0" on="0"/>
        <pt x="486" y="-6" on="0"/>
        <pt x="545" y="-6" on="1"/>
        <pt x="903" y="-6" on="0"/>
        <pt x="1186" y="289" on="0"/>
        <pt x="1186" y="453" on="1"/>
      </contour>
      <contour>
        <pt x="1051" y="1094" on="1"/>
        <pt x="1051" y="940" on="0"/>
        <pt x="836" y="760" on="0"/>
        <pt x="662" y="760" on="1"/>
        <pt x="610" y="760" on="0"/>
        <pt x="610" y="776" on="1"/>
        <pt x="610" y="789" on="0"/>
        <pt x="612" y="797" on="1"/>
        <pt x="748" y="1239" on="1"/>
        <pt x="758" y="1280" on="0"/>
        <pt x="795" y="1280" on="1"/>
        <pt x="944" y="1280" on="0"/>
        <pt x="1051" y="1190" on="0"/>
        <pt x="1051" y="1094" on="1"/>
      </contour>
      <contour>
        <pt x="934" y="479" on="1"/>
        <pt x="934" y="282" on="0"/>
        <pt x="729" y="74" on="0"/>
        <pt x="532" y="74" on="1"/>
        <pt x="432" y="74" on="0"/>
        <pt x="432" y="164" on="1"/>
        <pt x="434" y="198" on="0"/>
        <pt x="442" y="229" on="1"/>
        <pt x="569" y="655" on="1"/>
        <pt x="577" y="682" on="0"/>
        <pt x="604" y="682" on="1"/>
        <pt x="780" y="682" on="0"/>
        <pt x="934" y="585" on="0"/>
        <pt x="934" y="479" on="1"/>
      </contour>
    </TTGlyph>
    <TTGlyph name="C" xMin="178" yMin="-27" xMax="1583" yMax="1384">
      <contour>
        <pt x="1198" y="37" on="1"/>
        <pt x="1231" y="72" on="0"/>
        <pt x="1368" y="303" on="0"/>
        <pt x="1368" y="342" on="1"/>
        <pt x="1368" y="358" on="0"/>
        <pt x="1282" y="358" on="0"/>
        <pt x="1272" y="346" on="1"/>
        <pt x="1167" y="220" on="0"/>
        <pt x="1146" y="200" on="1"/>
        <pt x="1069" y="128" on="0"/>
        <pt x="977" y="96" on="1"/>
        <pt x="885" y="63" on="0"/>
        <pt x="768" y="63" on="1"/>
        <pt x="590" y="63" on="0"/>
        <pt x="418" y="303" on="0"/>
        <pt x="418" y="455" on="1"/>
        <pt x="418" y="780" on="0"/>
        <pt x="834" y="1298" on="0"/>
        <pt x="1108" y="1298" on="1"/>
        <pt x="1249" y="1298" on="0"/>
        <pt x="1341" y="1237" on="1"/>
        <pt x="1434" y="1177" on="0"/>
        <pt x="1434" y="1073" on="1"/>
        <pt x="1433" y="1052" on="0"/>
        <pt x="1425" y="999" on="1"/>
        <pt x="1425" y="979" on="0"/>
        <pt x="1516" y="979" on="0"/>
        <pt x="1522" y="995" on="1"/>
        <pt x="1571" y="1149" on="0"/>
        <pt x="1583" y="1329" on="1"/>
        <pt x="1524" y="1329" on="0"/>
        <pt x="1258" y="1384" on="0"/>
        <pt x="1149" y="1384" on="1"/>
        <pt x="776" y="1384" on="0"/>
        <pt x="178" y="819" on="0"/>
        <pt x="178" y="469" on="1"/>
        <pt x="178" y="240" on="0"/>
        <pt x="484" y="-27" on="0"/>
        <pt x="709" y="-27" on="1"/>
        <pt x="934" y="-27" on="0"/>
        <pt x="1110" y="16" on="1"/>
        <pt x="1145" y="31" on="0"/>
        <pt x="1198" y="37" on="1"/>
      </contour>
    </TTGlyph>
    <TTGlyph name="Cacute" xMin="178" yMin="-27" xMax="1583" yMax="1767">
      <component glyphName="acute.case" x="375" y="0" flags="0x0"/>
      <component glyphName="C" x="0" y="0" flags="0x0"/>
    </TTGlyph>
    <TTGlyph name="Ccaron" xMin="178" yMin="-27" xMax="1600" yMax="1819">
      <component glyphName="caron.case" x="510" y="0" flags="0x0"/>
      <component glyphName="C" x="0" y="0" flags="0x0"/>
    </TTGlyph>
    <TTGlyph name="Ccedilla" xMin="178" yMin="-526" xMax="1583" yMax="1384">
      <contour>
        <pt x="727" y="-336" on="1"/>
        <pt x="727" y="-240" on="0"/>
        <pt x="631" y="-166" on="1"/>
        <pt x="606" y="-150" on="0"/>
        <pt x="600" y="-135" on="0"/>
        <pt x="612" y="-119" on="1"/>
        <pt x="680" y="-27" on="1"/>
        <pt x="709" y="-27" on="1"/>
        <pt x="934" y="-27" on="0"/>
        <pt x="1110" y="16" on="1"/>
        <pt x="1145" y="31" on="0"/>
        <pt x="1198" y="37" on="1"/>
        <pt x="1233" y="72" on="0"/>
        <pt x="1368" y="303" on="0"/>
        <pt x="1368" y="342" on="1"/>
        <pt x="1368" y="356" on="0"/>
        <pt x="1282" y="360" on="0"/>
        <pt x="1272" y="346" on="1"/>
        <pt x="1223" y="272" on="0"/>
        <pt x="1069" y="129" on="0"/>
        <pt x="885" y="63" on="0"/>
        <pt x="768" y="63" on="1"/>
        <pt x="590" y="63" on="0"/>
        <pt x="418" y="303" on="0"/>
        <pt x="418" y="455" on="1"/>
        <pt x="418" y="780" on="0"/>
        <pt x="834" y="1298" on="0"/>
        <pt x="1108" y="1298" on="1"/>
        <pt x="1249" y="1298" on="0"/>
        <pt x="1341" y="1237" on="1"/>
        <pt x="1434" y="1177" on="0"/>
        <pt x="1434" y="1073" on="1"/>
        <pt x="1433" y="1052" on="0"/>
        <pt x="1425" y="999" on="1"/>
        <pt x="1421" y="979" on="0"/>
        <pt x="1516" y="979" on="0"/>
        <pt x="1522" y="995" on="1"/>
        <pt x="1571" y="1149" on="0"/>
        <pt x="1583" y="1329" on="1"/>
        <pt x="1524" y="1329" on="0"/>
        <pt x="1258" y="1384" on="0"/>
        <pt x="1149" y="1384" on="1"/>
        <pt x="776" y="1384" on="0"/>
        <pt x="178" y="819" on="0"/>
        <pt x="178" y="469" on="1"/>
        <pt x="178" y="239" on="0"/>
        <pt x="330" y="106" on="1"/>
        <pt x="439" y="15" on="0"/>
        <pt x="582" y="-14" on="1"/>
        <pt x="434" y="-229" on="1"/>
        <pt x="440" y="-246" on="1"/>
        <pt x="567" y="-299" on="0"/>
        <pt x="567" y="-393" on="1"/>
        <pt x="567" y="-416" on="0"/>
        <pt x="532" y="-444" on="0"/>
        <pt x="496" y="-444" on="0"/>
        <pt x="408" y="-369" on="0"/>
        <pt x="346" y="-369" on="0"/>
        <pt x="309" y="-407" on="0"/>
        <pt x="309" y="-436" on="1"/>
        <pt x="311" y="-526" on="0"/>
        <pt x="469" y="-526" on="1"/>
        <pt x="573" y="-526" on="0"/>
        <pt x="727" y="-418" on="0"/>
        <pt x="727" y="-336" on="1"/>
      </contour>
    </TTGlyph>
    <TTGlyph name="Ccircumflex" xMin="178" yMin="-27" xMax="1583" yMax="1820">
      <component glyphName="circumflex.case" x="430" y="0" flags="0x0"/>
      <component glyphName="C" x="0" y="0" flags="0x0"/>
    </TTGlyph>
    <TTGlyph name="Cdotaccent" xMin="178" yMin="-27" xMax="1583" yMax="1792">
      <component glyphName="dotaccent" x="930" y="465" flags="0x4"/>
      <component glyphName="C" x="0" y="0" flags="0x0"/>
    </TTGlyph>
    <TTGlyph name="D" xMin="-25" yMin="-8" xMax="1608" yMax="1358">
      <contour>
        <pt x="1608" y="893" on="1"/>
        <pt x="1608" y="1114" on="0"/>
        <pt x="1282" y="1358" on="0"/>
        <pt x="1008" y="1358" on="1"/>
        <pt x="958" y="1358" on="0"/>
        <pt x="741" y="1354" on="0"/>
        <pt x="459" y="1354" on="0"/>
        <pt x="369" y="1358" on="1"/>
        <pt x="354" y="1358" on="0"/>
        <pt x="332" y="1264" on="0"/>
        <pt x="348" y="1264" on="1"/>
        <pt x="444" y="1264" on="0"/>
        <pt x="496" y="1229" on="0"/>
        <pt x="496" y="1204" on="1"/>
        <pt x="495" y="1182" on="0"/>
        <pt x="487" y="1153" on="1"/>
        <pt x="201" y="203" on="1"/>
        <pt x="188" y="164" on="0"/>
        <pt x="154" y="111" on="0"/>
        <pt x="86" y="86" on="0"/>
        <pt x="6" y="86" on="1"/>
        <pt x="-8" y="86" on="0"/>
        <pt x="-25" y="18" on="0"/>
        <pt x="-22" y="-8" on="0"/>
        <pt x="-14" y="-8" on="1"/>
        <pt x="174" y="0" on="0"/>
        <pt x="317" y="0" on="0"/>
        <pt x="623" y="-8" on="0"/>
        <pt x="666" y="-8" on="1"/>
        <pt x="1053" y="-8" on="0"/>
        <pt x="1608" y="574" on="0"/>
        <pt x="1608" y="893" on="1"/>
      </contour>
      <contour>
        <pt x="1348" y="868" on="1"/>
        <pt x="1348" y="585" on="0"/>
        <pt x="886" y="72" on="0"/>
        <pt x="614" y="72" on="1"/>
        <pt x="438" y="69" on="0"/>
        <pt x="438" y="188" on="1"/>
        <pt x="439" y="221" on="0"/>
        <pt x="451" y="264" on="1"/>
        <pt x="733" y="1190" on="1"/>
        <pt x="745" y="1231" on="0"/>
        <pt x="780" y="1272" on="0"/>
        <pt x="858" y="1280" on="0"/>
        <pt x="924" y="1280" on="1"/>
        <pt x="1114" y="1280" on="0"/>
        <pt x="1348" y="1056" on="0"/>
        <pt x="1348" y="868" on="1"/>
      </contour>
    </TTGlyph>
    <TTGlyph name="Dcaron" xMin="-25" yMin="-8" xMax="1608" yMax="1819">
      <component glyphName="caron.case" x="354" y="0" flags="0x0"/>
      <component glyphName="D" x="0" y="0" flags="0x0"/>
    </TTGlyph>
    <TTGlyph name="Dcroat" xMin="-30" yMin="-8" xMax="1608" yMax="1358">
      <component glyphName="Eth" x="0" y="0" flags="0x0"/>
    </TTGlyph>
    <TTGlyph name="E" xMin="-25" yMin="-9" xMax="1407" yMax="1358">
      <contour>
        <pt x="1180" y="383" on="1"/>
        <pt x="1186" y="399" on="0"/>
        <pt x="1089" y="399" on="0"/>
        <pt x="1085" y="383" on="1"/>
        <pt x="983" y="96" on="0"/>
        <pt x="817" y="90" on="1"/>
        <pt x="526" y="78" on="1"/>
        <pt x="428" y="74" on="0"/>
        <pt x="428" y="156" on="1"/>
        <pt x="428" y="190" on="0"/>
        <pt x="438" y="223" on="1"/>
        <pt x="543" y="571" on="1"/>
        <pt x="551" y="598" on="0"/>
        <pt x="571" y="598" on="1"/>
        <pt x="772" y="598" on="1"/>
        <pt x="811" y="598" on="0"/>
        <pt x="848" y="576" on="0"/>
        <pt x="840" y="547" on="1"/>
        <pt x="807" y="418" on="1"/>
        <pt x="801" y="401" on="0"/>
        <pt x="887" y="402" on="0"/>
        <pt x="891" y="418" on="1"/>
        <pt x="954" y="674" on="0"/>
        <pt x="1028" y="885" on="1"/>
        <pt x="1034" y="903" on="0"/>
        <pt x="944" y="903" on="0"/>
        <pt x="938" y="885" on="1"/>
        <pt x="891" y="739" on="1"/>
        <pt x="881" y="710" on="0"/>
        <pt x="858" y="702" on="1"/>
        <pt x="835" y="692" on="0"/>
        <pt x="788" y="692" on="1"/>
        <pt x="608" y="692" on="1"/>
        <pt x="586" y="693" on="0"/>
        <pt x="586" y="711" on="1"/>
        <pt x="586" y="717" on="0"/>
        <pt x="588" y="725" on="1"/>
        <pt x="748" y="1233" on="1"/>
        <pt x="756" y="1264" on="0"/>
        <pt x="795" y="1264" on="1"/>
        <pt x="918" y="1265" on="0"/>
        <pt x="1065" y="1257" on="1"/>
        <pt x="1149" y="1251" on="0"/>
        <pt x="1231" y="1143" on="0"/>
        <pt x="1231" y="1094" on="1"/>
        <pt x="1231" y="1043" on="0"/>
        <pt x="1225" y="1010" on="1"/>
        <pt x="1221" y="993" on="0"/>
        <pt x="1313" y="994" on="0"/>
        <pt x="1319" y="1012" on="1"/>
        <pt x="1403" y="1300" on="1"/>
        <pt x="1407" y="1315" on="0"/>
        <pt x="1407" y="1327" on="1"/>
        <pt x="1406" y="1358" on="0"/>
        <pt x="1343" y="1358" on="1"/>
        <pt x="1243" y="1358" on="0"/>
        <pt x="748" y="1354" on="0"/>
        <pt x="471" y="1354" on="0"/>
        <pt x="369" y="1358" on="1"/>
        <pt x="356" y="1358" on="0"/>
        <pt x="338" y="1292" on="0"/>
        <pt x="338" y="1264" on="0"/>
        <pt x="346" y="1264" on="1"/>
        <pt x="492" y="1264" on="0"/>
        <pt x="492" y="1196" on="1"/>
        <pt x="491" y="1169" on="0"/>
        <pt x="487" y="1157" on="1"/>
        <pt x="205" y="217" on="1"/>
        <pt x="180" y="137" on="0"/>
        <pt x="104" y="86" on="0"/>
        <pt x="6" y="86" on="1"/>
        <pt x="-8" y="86" on="0"/>
        <pt x="-25" y="18" on="0"/>
        <pt x="-22" y="-8" on="0"/>
        <pt x="-14" y="-8" on="1"/>
        <pt x="162" y="0" on="0"/>
        <pt x="385" y="0" on="0"/>
        <pt x="922" y="-8" on="0"/>
        <pt x="1022" y="-8" on="1"/>
        <pt x="1071" y="-9" on="0"/>
        <pt x="1079" y="20" on="1"/>
      </contour>
    </TTGlyph>
    <TTGlyph name="Eacute" xMin="-25" yMin="-9" xMax="1407" yMax="1767">
      <component glyphName="acute.case" x="113" y="0" flags="0x0"/>
      <component glyphName="E" x="0" y="0" flags="0x0"/>
    </TTGlyph>
    <TTGlyph name="Ebreve" xMin="-25" yMin="-9" xMax="1407" yMax="1800">
      <component glyphName="breve" x="565" y="465" flags="0x4"/>
      <component glyphName="E" x="0" y="0" flags="0x0"/>
    </TTGlyph>
    <TTGlyph name="Ecaron" xMin="-25" yMin="-9" xMax="1407" yMax="1819">
      <component glyphName="caron.case" x="270" y="0" flags="0x0"/>
      <component glyphName="E" x="0" y="0" flags="0x0"/>
    </TTGlyph>
    <TTGlyph name="Ecircumflex" xMin="-25" yMin="-9" xMax="1407" yMax="1820">
      <component glyphName="circumflex.case" x="250" y="0" flags="0x0"/>
      <component glyphName="E" x="0" y="0" flags="0x0"/>
    </TTGlyph>
    <TTGlyph name="Edieresis" xMin="-25" yMin="-9" xMax="1407" yMax="1751">
      <component glyphName="dieresis.case" x="213" y="0" flags="0x0"/>
      <component glyphName="E" x="0" y="0" flags="0x0"/>
    </TTGlyph>
    <TTGlyph name="Edotaccent" xMin="-25" yMin="-9" xMax="1407" yMax="1792">
      <component glyphName="dotaccent" x="713" y="465" flags="0x4"/>
      <component glyphName="E" x="0" y="0" flags="0x0"/>
    </TTGlyph>
    <TTGlyph name="Egrave" xMin="-25" yMin="-9" xMax="1407" yMax="1767">
      <component glyphName="grave.case" x="186" y="0" flags="0x0"/>
      <component glyphName="E" x="0" y="0" flags="0x0"/>
    </TTGlyph>
    <TTGlyph name="Emacron" xMin="-25" yMin="-9" xMax="1407" yMax="1669">
      <component glyphName="macron.case" x="207" y="0" flags="0x0"/>
      <component glyphName="E" x="0" y="0" flags="0x0"/>
    </TTGlyph>
    <TTGlyph name="Eng" xMin="49" yMin="-520" xMax="1829" yMax="1364">
      <contour>
        <pt x="1618" y="1151" on="1"/>
        <pt x="1653" y="1270" on="0"/>
        <pt x="1788" y="1270" on="1"/>
        <pt x="1800" y="1270" on="0"/>
        <pt x="1829" y="1364" on="0"/>
        <pt x="1815" y="1364" on="1"/>
        <pt x="1720" y="1358" on="0"/>
        <pt x="1620" y="1358" on="1"/>
        <pt x="1523" y="1360" on="0"/>
        <pt x="1423" y="1364" on="1"/>
        <pt x="1409" y="1364" on="0"/>
        <pt x="1395" y="1317" on="1"/>
        <pt x="1383" y="1270" on="0"/>
        <pt x="1397" y="1270" on="1"/>
        <pt x="1551" y="1270" on="0"/>
        <pt x="1516" y="1151" on="1"/>
        <pt x="1315" y="449" on="1"/>
        <pt x="1305" y="418" on="0"/>
        <pt x="1280" y="418" on="1"/>
        <pt x="1268" y="418" on="0"/>
        <pt x="1262" y="432" on="1"/>
        <pt x="799" y="1298" on="1"/>
        <pt x="770" y="1348" on="0"/>
        <pt x="715" y="1356" on="1"/>
        <pt x="700" y="1358" on="0"/>
        <pt x="616" y="1358" on="1"/>
        <pt x="489" y="1360" on="0"/>
        <pt x="442" y="1364" on="1"/>
        <pt x="430" y="1364" on="0"/>
        <pt x="416" y="1317" on="1"/>
        <pt x="404" y="1270" on="0"/>
        <pt x="416" y="1270" on="1"/>
        <pt x="588" y="1270" on="0"/>
        <pt x="555" y="1155" on="1"/>
        <pt x="283" y="203" on="1"/>
        <pt x="250" y="86" on="0"/>
        <pt x="90" y="86" on="1"/>
        <pt x="75" y="86" on="0"/>
        <pt x="61" y="39" on="1"/>
        <pt x="49" y="-8" on="0"/>
        <pt x="63" y="-6" on="1"/>
        <pt x="177" y="0" on="0"/>
        <pt x="279" y="0" on="1"/>
        <pt x="375" y="0" on="0"/>
        <pt x="477" y="-6" on="1"/>
        <pt x="494" y="-6" on="0"/>
        <pt x="506" y="41" on="1"/>
        <pt x="518" y="86" on="0"/>
        <pt x="504" y="86" on="1"/>
        <pt x="352" y="86" on="0"/>
        <pt x="385" y="203" on="1"/>
        <pt x="616" y="1008" on="1"/>
        <pt x="625" y="1030" on="0"/>
        <pt x="637" y="1030" on="1"/>
        <pt x="643" y="1030" on="0"/>
        <pt x="651" y="1014" on="1"/>
        <pt x="1190" y="43" on="1"/>
        <pt x="1139" y="-135" on="1"/>
        <pt x="1110" y="-229" on="0"/>
        <pt x="1024" y="-319" on="1"/>
        <pt x="965" y="-383" on="0"/>
        <pt x="924" y="-385" on="1"/>
        <pt x="920" y="-385" on="1"/>
        <pt x="907" y="-379" on="0"/>
        <pt x="889" y="-356" on="1"/>
        <pt x="856" y="-315" on="0"/>
        <pt x="803" y="-313" on="1"/>
        <pt x="764" y="-312" on="0"/>
        <pt x="733" y="-330" on="1"/>
        <pt x="715" y="-342" on="0"/>
        <pt x="688" y="-376" on="0"/>
        <pt x="680" y="-403" on="1"/>
        <pt x="663" y="-450" on="0"/>
        <pt x="690" y="-483" on="1"/>
        <pt x="719" y="-518" on="0"/>
        <pt x="776" y="-518" on="1"/>
        <pt x="946" y="-520" on="0"/>
        <pt x="1079" y="-385" on="1"/>
        <pt x="1101" y="-361" on="0"/>
        <pt x="1124" y="-334" on="1"/>
        <pt x="1222" y="-213" on="0"/>
        <pt x="1253" y="-111" on="1"/>
        <pt x="1307" y="63" on="1"/>
        <pt x="1311" y="76" on="1"/>
      </contour>
    </TTGlyph>
    <TTGlyph name="Eogonek" xMin="-25" yMin="-487" xMax="1407" yMax="1358">
      <contour>
        <pt x="1180" y="383" on="1"/>
        <pt x="1186" y="399" on="0"/>
        <pt x="1089" y="399" on="0"/>
        <pt x="1085" y="383" on="1"/>
        <pt x="983" y="96" on="0"/>
        <pt x="817" y="90" on="1"/>
        <pt x="526" y="78" on="1"/>
        <pt x="428" y="74" on="0"/>
        <pt x="428" y="156" on="1"/>
        <pt x="428" y="190" on="0"/>
        <pt x="438" y="223" on="1"/>
        <pt x="543" y="571" on="1"/>
        <pt x="551" y="598" on="0"/>
        <pt x="571" y="598" on="1"/>
        <pt x="772" y="598" on="1"/>
        <pt x="811" y="598" on="0"/>
        <pt x="829" y="586" on="1"/>
        <pt x="848" y="576" on="0"/>
        <pt x="840" y="547" on="1"/>
        <pt x="807" y="418" on="1"/>
        <pt x="801" y="401" on="0"/>
        <pt x="887" y="402" on="0"/>
        <pt x="891" y="418" on="1"/>
        <pt x="954" y="674" on="0"/>
        <pt x="1028" y="885" on="1"/>
        <pt x="1034" y="903" on="0"/>
        <pt x="944" y="903" on="0"/>
        <pt x="938" y="885" on="1"/>
        <pt x="891" y="739" on="1"/>
        <pt x="881" y="710" on="0"/>
        <pt x="858" y="702" on="1"/>
        <pt x="835" y="692" on="0"/>
        <pt x="788" y="692" on="1"/>
        <pt x="608" y="692" on="1"/>
        <pt x="586" y="693" on="0"/>
        <pt x="586" y="711" on="1"/>
        <pt x="586" y="717" on="0"/>
        <pt x="588" y="725" on="1"/>
        <pt x="748" y="1233" on="1"/>
        <pt x="756" y="1264" on="0"/>
        <pt x="795" y="1264" on="1"/>
        <pt x="920" y="1265" on="0"/>
        <pt x="1065" y="1257" on="1"/>
        <pt x="1149" y="1251" on="0"/>
        <pt x="1231" y="1143" on="0"/>
        <pt x="1231" y="1043" on="0"/>
        <pt x="1225" y="1010" on="1"/>
        <pt x="1221" y="993" on="0"/>
        <pt x="1313" y="994" on="0"/>
        <pt x="1319" y="1012" on="1"/>
        <pt x="1403" y="1300" on="1"/>
        <pt x="1407" y="1315" on="0"/>
        <pt x="1407" y="1327" on="1"/>
        <pt x="1406" y="1358" on="0"/>
        <pt x="1343" y="1358" on="1"/>
        <pt x="1243" y="1358" on="0"/>
        <pt x="748" y="1354" on="0"/>
        <pt x="471" y="1354" on="0"/>
        <pt x="369" y="1358" on="1"/>
        <pt x="356" y="1358" on="0"/>
        <pt x="338" y="1292" on="0"/>
        <pt x="338" y="1264" on="0"/>
        <pt x="346" y="1264" on="1"/>
        <pt x="492" y="1264" on="0"/>
        <pt x="492" y="1196" on="1"/>
        <pt x="491" y="1169" on="0"/>
        <pt x="487" y="1157" on="1"/>
        <pt x="205" y="217" on="1"/>
        <pt x="180" y="137" on="0"/>
        <pt x="104" y="86" on="0"/>
        <pt x="6" y="86" on="1"/>
        <pt x="-8" y="86" on="0"/>
        <pt x="-25" y="18" on="0"/>
        <pt x="-22" y="-8" on="0"/>
        <pt x="-14" y="-8" on="1"/>
        <pt x="162" y="0" on="0"/>
        <pt x="385" y="0" on="0"/>
        <pt x="653" y="-4" on="1"/>
        <pt x="751" y="-6" on="0"/>
        <pt x="827" y="-6" on="1"/>
        <pt x="776" y="-37" on="0"/>
        <pt x="725" y="-82" on="1"/>
        <pt x="578" y="-213" on="0"/>
        <pt x="578" y="-334" on="1"/>
        <pt x="578" y="-403" on="0"/>
        <pt x="670" y="-487" on="0"/>
        <pt x="754" y="-487" on="1"/>
        <pt x="887" y="-487" on="0"/>
        <pt x="973" y="-381" on="1"/>
        <pt x="973" y="-373" on="1"/>
        <pt x="972" y="-348" on="0"/>
        <pt x="956" y="-342" on="1"/>
        <pt x="915" y="-373" on="0"/>
        <pt x="856" y="-373" on="1"/>
        <pt x="815" y="-373" on="0"/>
        <pt x="754" y="-324" on="0"/>
        <pt x="754" y="-283" on="1"/>
        <pt x="754" y="-195" on="0"/>
        <pt x="916" y="-8" on="0"/>
        <pt x="1022" y="-8" on="1"/>
        <pt x="1071" y="-9" on="0"/>
        <pt x="1079" y="20" on="1"/>
      </contour>
    </TTGlyph>
    <TTGlyph name="Eth" xMin="-30" yMin="-8" xMax="1608" yMax="1358">
      <contour>
        <pt x="1608" y="893" on="1"/>
        <pt x="1608" y="1114" on="0"/>
        <pt x="1282" y="1358" on="0"/>
        <pt x="1008" y="1358" on="1"/>
        <pt x="946" y="1358" on="0"/>
        <pt x="741" y="1352" on="0"/>
        <pt x="512" y="1352" on="0"/>
        <pt x="369" y="1358" on="1"/>
        <pt x="354" y="1358" on="0"/>
        <pt x="332" y="1264" on="0"/>
        <pt x="348" y="1264" on="1"/>
        <pt x="444" y="1264" on="0"/>
        <pt x="507" y="1219" on="0"/>
        <pt x="487" y="1153" on="1"/>
        <pt x="362" y="748" on="1"/>
        <pt x="357" y="719" on="0"/>
        <pt x="328" y="719" on="1"/>
        <pt x="158" y="719" on="1"/>
        <pt x="141" y="719" on="0"/>
        <pt x="121" y="625" on="0"/>
        <pt x="135" y="625" on="1"/>
        <pt x="301" y="625" on="1"/>
        <pt x="327" y="625" on="0"/>
        <pt x="317" y="598" on="1"/>
        <pt x="201" y="203" on="1"/>
        <pt x="182" y="150" on="0"/>
        <pt x="123" y="96" on="0"/>
        <pt x="61" y="86" on="0"/>
        <pt x="6" y="86" on="1"/>
        <pt x="-8" y="86" on="0"/>
        <pt x="-30" y="-8" on="0"/>
        <pt x="-14" y="-8" on="1"/>
        <pt x="176" y="0" on="0"/>
        <pt x="360" y="0" on="0"/>
        <pt x="586" y="-8" on="0"/>
        <pt x="666" y="-8" on="1"/>
        <pt x="858" y="-8" on="0"/>
        <pt x="1214" y="160" on="0"/>
        <pt x="1460" y="418" on="0"/>
        <pt x="1608" y="739" on="0"/>
        <pt x="1608" y="893" on="1"/>
      </contour>
      <contour>
        <pt x="1348" y="868" on="1"/>
        <pt x="1348" y="692" on="0"/>
        <pt x="1149" y="326" on="0"/>
        <pt x="798" y="72" on="0"/>
        <pt x="614" y="72" on="1"/>
        <pt x="487" y="72" on="0"/>
        <pt x="424" y="174" on="0"/>
        <pt x="451" y="264" on="1"/>
        <pt x="555" y="602" on="1"/>
        <pt x="559" y="625" on="0"/>
        <pt x="588" y="625" on="1"/>
        <pt x="797" y="625" on="1"/>
        <pt x="811" y="625" on="0"/>
        <pt x="833" y="719" on="0"/>
        <pt x="817" y="719" on="1"/>
        <pt x="618" y="719" on="1"/>
        <pt x="592" y="719" on="0"/>
        <pt x="600" y="748" on="1"/>
        <pt x="733" y="1190" on="1"/>
        <pt x="748" y="1237" on="0"/>
        <pt x="791" y="1272" on="0"/>
        <pt x="844" y="1278" on="0"/>
        <pt x="924" y="1278" on="1"/>
        <pt x="1137" y="1278" on="0"/>
        <pt x="1348" y="1036" on="0"/>
        <pt x="1348" y="868" on="1"/>
      </contour>
    </TTGlyph>
    <TTGlyph name="Euro" xMin="29" yMin="-29" xMax="1573" yMax="1384">
      <contour>
        <pt x="1245" y="168" on="1"/>
        <pt x="1259" y="178" on="0"/>
        <pt x="1260" y="193" on="1"/>
        <pt x="1260" y="240" on="0"/>
        <pt x="1231" y="240" on="1"/>
        <pt x="1219" y="236" on="1"/>
        <pt x="1079" y="162" on="0"/>
        <pt x="872" y="88" on="0"/>
        <pt x="743" y="88" on="1"/>
        <pt x="627" y="88" on="0"/>
        <pt x="498" y="188" on="0"/>
        <pt x="418" y="346" on="0"/>
        <pt x="418" y="457" on="1"/>
        <pt x="418" y="489" on="0"/>
        <pt x="420" y="524" on="1"/>
        <pt x="1006" y="524" on="1"/>
        <pt x="1022" y="525" on="0"/>
        <pt x="1032" y="543" on="1"/>
        <pt x="1055" y="584" on="0"/>
        <pt x="1055" y="623" on="1"/>
        <pt x="1054" y="655" on="0"/>
        <pt x="1040" y="655" on="1"/>
        <pt x="440" y="655" on="1"/>
        <pt x="451" y="707" on="0"/>
        <pt x="469" y="758" on="1"/>
        <pt x="1075" y="758" on="1"/>
        <pt x="1092" y="758" on="0"/>
        <pt x="1102" y="776" on="1"/>
        <pt x="1124" y="815" on="0"/>
        <pt x="1124" y="856" on="1"/>
        <pt x="1124" y="889" on="0"/>
        <pt x="1110" y="889" on="1"/>
        <pt x="522" y="889" on="1"/>
        <pt x="608" y="1061" on="0"/>
        <pt x="934" y="1298" on="0"/>
        <pt x="1110" y="1298" on="1"/>
        <pt x="1225" y="1298" on="0"/>
        <pt x="1341" y="1202" on="0"/>
        <pt x="1382" y="1112" on="1"/>
        <pt x="1395" y="1083" on="0"/>
        <pt x="1489" y="1083" on="0"/>
        <pt x="1573" y="1143" on="0"/>
        <pt x="1573" y="1186" on="1"/>
        <pt x="1573" y="1227" on="0"/>
        <pt x="1470" y="1317" on="0"/>
        <pt x="1246" y="1384" on="0"/>
        <pt x="1137" y="1384" on="1"/>
        <pt x="848" y="1384" on="0"/>
        <pt x="409" y="1059" on="0"/>
        <pt x="303" y="889" on="1"/>
        <pt x="150" y="889" on="1"/>
        <pt x="137" y="888" on="0"/>
        <pt x="125" y="874" on="1"/>
        <pt x="98" y="842" on="0"/>
        <pt x="98" y="795" on="1"/>
        <pt x="99" y="758" on="0"/>
        <pt x="117" y="758" on="1"/>
        <pt x="236" y="758" on="1"/>
        <pt x="215" y="706" on="0"/>
        <pt x="201" y="655" on="1"/>
        <pt x="80" y="655" on="1"/>
        <pt x="65" y="653" on="0"/>
        <pt x="53" y="639" on="1"/>
        <pt x="29" y="606" on="0"/>
        <pt x="29" y="559" on="1"/>
        <pt x="29" y="524" on="0"/>
        <pt x="47" y="524" on="1"/>
        <pt x="178" y="524" on="1"/>
        <pt x="176" y="498" on="0"/>
        <pt x="176" y="471" on="1"/>
        <pt x="176" y="221" on="0"/>
        <pt x="506" y="-29" on="0"/>
        <pt x="690" y="-29" on="1"/>
        <pt x="842" y="-29" on="0"/>
        <pt x="1100" y="76" on="0"/>
        <pt x="1245" y="168" on="1"/>
      </contour>
    </TTGlyph>
    <TTGlyph name="F" xMin="-25" yMin="-8" xMax="1407" yMax="1358">
      <contour>
        <pt x="555" y="598" on="1"/>
        <pt x="563" y="633" on="0"/>
        <pt x="588" y="633" on="1"/>
        <pt x="725" y="633" on="1"/>
        <pt x="807" y="633" on="0"/>
        <pt x="807" y="565" on="1"/>
        <pt x="807" y="543" on="0"/>
        <pt x="782" y="459" on="1"/>
        <pt x="762" y="391" on="1"/>
        <pt x="758" y="379" on="0"/>
        <pt x="844" y="377" on="0"/>
        <pt x="848" y="391" on="1"/>
        <pt x="858" y="440" on="0"/>
        <pt x="993" y="904" on="0"/>
        <pt x="1020" y="967" on="1"/>
        <pt x="1024" y="981" on="0"/>
        <pt x="930" y="983" on="0"/>
        <pt x="926" y="967" on="1"/>
        <pt x="895" y="854" on="1"/>
        <pt x="858" y="725" on="0"/>
        <pt x="745" y="725" on="1"/>
        <pt x="621" y="725" on="1"/>
        <pt x="600" y="725" on="0"/>
        <pt x="600" y="745" on="1"/>
        <pt x="600" y="754" on="0"/>
        <pt x="602" y="766" on="1"/>
        <pt x="743" y="1231" on="1"/>
        <pt x="754" y="1264" on="0"/>
        <pt x="774" y="1264" on="1"/>
        <pt x="866" y="1263" on="0"/>
        <pt x="1065" y="1257" on="1"/>
        <pt x="1135" y="1255" on="0"/>
        <pt x="1235" y="1143" on="0"/>
        <pt x="1235" y="1049" on="0"/>
        <pt x="1225" y="1012" on="1"/>
        <pt x="1219" y="995" on="0"/>
        <pt x="1307" y="996" on="0"/>
        <pt x="1317" y="1012" on="1"/>
        <pt x="1403" y="1298" on="1"/>
        <pt x="1407" y="1317" on="0"/>
        <pt x="1407" y="1333" on="1"/>
        <pt x="1407" y="1358" on="0"/>
        <pt x="1341" y="1358" on="1"/>
        <pt x="1241" y="1358" on="0"/>
        <pt x="745" y="1352" on="0"/>
        <pt x="512" y="1352" on="0"/>
        <pt x="369" y="1358" on="1"/>
        <pt x="356" y="1358" on="0"/>
        <pt x="340" y="1294" on="0"/>
        <pt x="340" y="1264" on="0"/>
        <pt x="348" y="1264" on="1"/>
        <pt x="496" y="1263" on="0"/>
        <pt x="496" y="1206" on="1"/>
        <pt x="495" y="1182" on="0"/>
        <pt x="487" y="1155" on="1"/>
        <pt x="201" y="203" on="1"/>
        <pt x="178" y="126" on="0"/>
        <pt x="135" y="106" on="1"/>
        <pt x="92" y="86" on="0"/>
        <pt x="6" y="86" on="1"/>
        <pt x="-8" y="86" on="0"/>
        <pt x="-25" y="18" on="0"/>
        <pt x="-22" y="-8" on="0"/>
        <pt x="-14" y="-8" on="1"/>
        <pt x="61" y="0" on="0"/>
        <pt x="477" y="0" on="0"/>
        <pt x="553" y="-8" on="1"/>
        <pt x="563" y="-8" on="0"/>
        <pt x="582" y="57" on="0"/>
        <pt x="581" y="86" on="0"/>
        <pt x="573" y="86" on="1"/>
        <pt x="426" y="86" on="0"/>
        <pt x="426" y="147" on="1"/>
        <pt x="426" y="174" on="0"/>
        <pt x="434" y="203" on="1"/>
      </contour>
    </TTGlyph>
    <TTGlyph name="G" xMin="178" yMin="-27" xMax="1581" yMax="1384">
      <contour>
        <pt x="1343" y="369" on="1"/>
        <pt x="1360" y="424" on="0"/>
        <pt x="1409" y="459" on="0"/>
        <pt x="1485" y="459" on="1"/>
        <pt x="1495" y="459" on="0"/>
        <pt x="1513" y="522" on="0"/>
        <pt x="1513" y="555" on="0"/>
        <pt x="1505" y="555" on="1"/>
        <pt x="1448" y="549" on="0"/>
        <pt x="1032" y="549" on="0"/>
        <pt x="975" y="555" on="1"/>
        <pt x="961" y="555" on="0"/>
        <pt x="944" y="489" on="0"/>
        <pt x="944" y="459" on="0"/>
        <pt x="952" y="459" on="1"/>
        <pt x="1098" y="459" on="0"/>
        <pt x="1128" y="436" on="0"/>
        <pt x="1128" y="418" on="1"/>
        <pt x="1128" y="403" on="0"/>
        <pt x="1122" y="385" on="1"/>
        <pt x="1075" y="219" on="1"/>
        <pt x="1031" y="63" on="0"/>
        <pt x="752" y="63" on="1"/>
        <pt x="604" y="63" on="0"/>
        <pt x="420" y="282" on="0"/>
        <pt x="420" y="487" on="1"/>
        <pt x="420" y="778" on="0"/>
        <pt x="838" y="1298" on="0"/>
        <pt x="1104" y="1298" on="1"/>
        <pt x="1241" y="1298" on="0"/>
        <pt x="1432" y="1184" on="0"/>
        <pt x="1432" y="1059" on="1"/>
        <pt x="1431" y="1056" on="0"/>
        <pt x="1427" y="999" on="1"/>
        <pt x="1425" y="981" on="0"/>
        <pt x="1518" y="979" on="0"/>
        <pt x="1522" y="993" on="1"/>
        <pt x="1581" y="1169" on="0"/>
        <pt x="1581" y="1329" on="1"/>
        <pt x="1520" y="1329" on="0"/>
        <pt x="1247" y="1384" on="0"/>
        <pt x="1128" y="1384" on="1"/>
        <pt x="770" y="1384" on="0"/>
        <pt x="178" y="801" on="0"/>
        <pt x="178" y="449" on="1"/>
        <pt x="178" y="244" on="0"/>
        <pt x="475" y="-27" on="0"/>
        <pt x="721" y="-27" on="1"/>
        <pt x="768" y="-27" on="0"/>
        <pt x="944" y="-8" on="0"/>
        <pt x="1211" y="29" on="0"/>
        <pt x="1274" y="29" on="1"/>
        <pt x="1300" y="29" on="0"/>
        <pt x="1300" y="72" on="1"/>
        <pt x="1300" y="84" on="0"/>
        <pt x="1270" y="90" on="0"/>
        <pt x="1270" y="119" on="0"/>
        <pt x="1274" y="133" on="1"/>
      </contour>
    </TTGlyph>
    <TTGlyph name="Gbreve" xMin="178" yMin="-27" xMax="1581" yMax="1800">
      <component glyphName="breve" x="764" y="465" flags="0x4"/>
      <component glyphName="G" x="0" y="0" flags="0x0"/>
    </TTGlyph>
    <TTGlyph name="Gcaron" xMin="178" yMin="-27" xMax="1581" yMax="1819">
      <component glyphName="caron.case" x="469" y="0" flags="0x0"/>
      <component glyphName="G" x="0" y="0" flags="0x0"/>
    </TTGlyph>
    <TTGlyph name="Gcircumflex" xMin="178" yMin="-27" xMax="1581" yMax="1820">
      <component glyphName="circumflex.case" x="461" y="0" flags="0x0"/>
      <component glyphName="G" x="0" y="0" flags="0x0"/>
    </TTGlyph>
    <TTGlyph name="Gdotaccent" xMin="178" yMin="-27" xMax="1581" yMax="1792">
      <component glyphName="dotaccent" x="922" y="465" flags="0x4"/>
      <component glyphName="G" x="0" y="0" flags="0x0"/>
    </TTGlyph>
    <TTGlyph name="H" xMin="-25" yMin="-8" xMax="1735" yMax="1364">
      <contour>
        <pt x="1497" y="1153" on="1"/>
        <pt x="1513" y="1212" on="0"/>
        <pt x="1585" y="1270" on="0"/>
        <pt x="1700" y="1270" on="1"/>
        <pt x="1714" y="1270" on="0"/>
        <pt x="1735" y="1339" on="0"/>
        <pt x="1734" y="1364" on="0"/>
        <pt x="1726" y="1364" on="1"/>
        <pt x="1669" y="1358" on="0"/>
        <pt x="1212" y="1358" on="0"/>
        <pt x="1155" y="1364" on="1"/>
        <pt x="1145" y="1364" on="0"/>
        <pt x="1122" y="1296" on="0"/>
        <pt x="1122" y="1270" on="0"/>
        <pt x="1128" y="1270" on="1"/>
        <pt x="1270" y="1269" on="0"/>
        <pt x="1270" y="1208" on="1"/>
        <pt x="1270" y="1180" on="0"/>
        <pt x="1262" y="1153" on="1"/>
        <pt x="1155" y="784" on="1"/>
        <pt x="1147" y="750" on="0"/>
        <pt x="1110" y="750" on="1"/>
        <pt x="633" y="750" on="1"/>
        <pt x="604" y="750" on="0"/>
        <pt x="604" y="770" on="0"/>
        <pt x="608" y="784" on="1"/>
        <pt x="715" y="1153" on="1"/>
        <pt x="731" y="1217" on="0"/>
        <pt x="812" y="1270" on="0"/>
        <pt x="918" y="1270" on="1"/>
        <pt x="930" y="1270" on="0"/>
        <pt x="952" y="1337" on="0"/>
        <pt x="952" y="1364" on="0"/>
        <pt x="944" y="1364" on="1"/>
        <pt x="887" y="1358" on="0"/>
        <pt x="430" y="1358" on="0"/>
        <pt x="373" y="1364" on="1"/>
        <pt x="360" y="1364" on="0"/>
        <pt x="340" y="1296" on="0"/>
        <pt x="340" y="1270" on="0"/>
        <pt x="346" y="1270" on="1"/>
        <pt x="485" y="1269" on="0"/>
        <pt x="485" y="1208" on="1"/>
        <pt x="485" y="1180" on="0"/>
        <pt x="477" y="1153" on="1"/>
        <pt x="207" y="203" on="1"/>
        <pt x="186" y="133" on="0"/>
        <pt x="96" y="86" on="0"/>
        <pt x="8" y="86" on="1"/>
        <pt x="-8" y="86" on="0"/>
        <pt x="-25" y="18" on="0"/>
        <pt x="-24" y="-8" on="0"/>
        <pt x="-16" y="-8" on="1"/>
        <pt x="59" y="0" on="0"/>
        <pt x="481" y="0" on="0"/>
        <pt x="559" y="-8" on="1"/>
        <pt x="571" y="-8" on="0"/>
        <pt x="590" y="57" on="0"/>
        <pt x="590" y="86" on="0"/>
        <pt x="584" y="86" on="1"/>
        <pt x="434" y="86" on="0"/>
        <pt x="434" y="154" on="1"/>
        <pt x="434" y="178" on="0"/>
        <pt x="440" y="203" on="1"/>
        <pt x="561" y="621" on="1"/>
        <pt x="569" y="653" on="0"/>
        <pt x="604" y="653" on="1"/>
        <pt x="1083" y="653" on="1"/>
        <pt x="1110" y="653" on="0"/>
        <pt x="1110" y="628" on="0"/>
        <pt x="1106" y="614" on="1"/>
        <pt x="989" y="203" on="1"/>
        <pt x="969" y="133" on="0"/>
        <pt x="879" y="86" on="0"/>
        <pt x="791" y="86" on="1"/>
        <pt x="776" y="86" on="0"/>
        <pt x="760" y="20" on="0"/>
        <pt x="760" y="-8" on="0"/>
        <pt x="766" y="-8" on="1"/>
        <pt x="842" y="0" on="0"/>
        <pt x="1265" y="0" on="0"/>
        <pt x="1343" y="-8" on="1"/>
        <pt x="1354" y="-8" on="0"/>
        <pt x="1372" y="57" on="0"/>
        <pt x="1372" y="86" on="0"/>
        <pt x="1366" y="86" on="1"/>
        <pt x="1217" y="86" on="0"/>
        <pt x="1217" y="154" on="1"/>
        <pt x="1219" y="178" on="0"/>
        <pt x="1225" y="203" on="1"/>
      </contour>
    </TTGlyph>
    <TTGlyph name="Hbar" xMin="-25" yMin="-8" xMax="1735" yMax="1364">
      <contour>
        <pt x="1470" y="1065" on="1"/>
        <pt x="1497" y="1153" on="1"/>
        <pt x="1513" y="1212" on="0"/>
        <pt x="1585" y="1270" on="0"/>
        <pt x="1700" y="1270" on="1"/>
        <pt x="1714" y="1270" on="0"/>
        <pt x="1735" y="1339" on="0"/>
        <pt x="1734" y="1364" on="0"/>
        <pt x="1726" y="1364" on="1"/>
        <pt x="1669" y="1358" on="0"/>
        <pt x="1212" y="1358" on="0"/>
        <pt x="1155" y="1364" on="1"/>
        <pt x="1145" y="1364" on="0"/>
        <pt x="1122" y="1296" on="0"/>
        <pt x="1122" y="1270" on="0"/>
        <pt x="1128" y="1270" on="1"/>
        <pt x="1270" y="1269" on="0"/>
        <pt x="1270" y="1208" on="1"/>
        <pt x="1270" y="1180" on="0"/>
        <pt x="1262" y="1153" on="1"/>
        <pt x="1235" y="1065" on="1"/>
        <pt x="688" y="1065" on="1"/>
        <pt x="715" y="1153" on="1"/>
        <pt x="731" y="1217" on="0"/>
        <pt x="812" y="1270" on="0"/>
        <pt x="918" y="1270" on="1"/>
        <pt x="930" y="1270" on="0"/>
        <pt x="952" y="1337" on="0"/>
        <pt x="952" y="1364" on="0"/>
        <pt x="944" y="1364" on="1"/>
        <pt x="887" y="1358" on="0"/>
        <pt x="430" y="1358" on="0"/>
        <pt x="373" y="1364" on="1"/>
        <pt x="360" y="1364" on="0"/>
        <pt x="340" y="1296" on="0"/>
        <pt x="340" y="1270" on="0"/>
        <pt x="346" y="1270" on="1"/>
        <pt x="485" y="1269" on="0"/>
        <pt x="485" y="1208" on="1"/>
        <pt x="485" y="1180" on="0"/>
        <pt x="477" y="1153" on="1"/>
        <pt x="453" y="1065" on="1"/>
        <pt x="397" y="1065" on="1"/>
        <pt x="362" y="1065" on="0"/>
        <pt x="336" y="969" on="0"/>
        <pt x="365" y="969" on="1"/>
        <pt x="426" y="969" on="1"/>
        <pt x="207" y="203" on="1"/>
        <pt x="186" y="133" on="0"/>
        <pt x="96" y="86" on="0"/>
        <pt x="8" y="86" on="1"/>
        <pt x="-8" y="86" on="0"/>
        <pt x="-25" y="18" on="0"/>
        <pt x="-24" y="-8" on="0"/>
        <pt x="-16" y="-8" on="1"/>
        <pt x="59" y="0" on="0"/>
        <pt x="481" y="0" on="0"/>
        <pt x="559" y="-8" on="1"/>
        <pt x="571" y="-8" on="0"/>
        <pt x="590" y="57" on="0"/>
        <pt x="590" y="86" on="0"/>
        <pt x="584" y="86" on="1"/>
        <pt x="434" y="86" on="0"/>
        <pt x="434" y="154" on="1"/>
        <pt x="434" y="178" on="0"/>
        <pt x="440" y="203" on="1"/>
        <pt x="561" y="621" on="1"/>
        <pt x="569" y="653" on="0"/>
        <pt x="604" y="653" on="1"/>
        <pt x="1083" y="653" on="1"/>
        <pt x="1110" y="653" on="0"/>
        <pt x="1110" y="628" on="0"/>
        <pt x="1106" y="614" on="1"/>
        <pt x="989" y="203" on="1"/>
        <pt x="969" y="133" on="0"/>
        <pt x="879" y="86" on="0"/>
        <pt x="791" y="86" on="1"/>
        <pt x="776" y="86" on="0"/>
        <pt x="760" y="20" on="0"/>
        <pt x="760" y="-8" on="0"/>
        <pt x="766" y="-8" on="1"/>
        <pt x="842" y="0" on="0"/>
        <pt x="1265" y="0" on="0"/>
        <pt x="1343" y="-8" on="1"/>
        <pt x="1354" y="-8" on="0"/>
        <pt x="1372" y="57" on="0"/>
        <pt x="1372" y="86" on="0"/>
        <pt x="1366" y="86" on="1"/>
        <pt x="1217" y="86" on="0"/>
        <pt x="1217" y="154" on="1"/>
        <pt x="1219" y="178" on="0"/>
        <pt x="1225" y="203" on="1"/>
        <pt x="1444" y="969" on="1"/>
        <pt x="1503" y="969" on="1"/>
        <pt x="1534" y="969" on="0"/>
        <pt x="1565" y="1065" on="0"/>
        <pt x="1538" y="1065" on="1"/>
      </contour>
      <contour>
        <pt x="1155" y="784" on="1"/>
        <pt x="1147" y="750" on="0"/>
        <pt x="1110" y="750" on="1"/>
        <pt x="633" y="750" on="1"/>
        <pt x="604" y="750" on="0"/>
        <pt x="604" y="770" on="0"/>
        <pt x="608" y="784" on="1"/>
        <pt x="662" y="969" on="1"/>
        <pt x="1208" y="969" on="1"/>
      </contour>
    </TTGlyph>
    <TTGlyph name="Hcircumflex" xMin="-25" yMin="-8" xMax="1735" yMax="1820">
      <component glyphName="circumflex.case" x="340" y="0" flags="0x0"/>
      <component glyphName="H" x="0" y="0" flags="0x0"/>
    </TTGlyph>
    <TTGlyph name="I" xMin="-25" yMin="-8" xMax="952" yMax="1364">
      <contour>
        <pt x="715" y="1153" on="1"/>
        <pt x="729" y="1210" on="0"/>
        <pt x="807" y="1270" on="0"/>
        <pt x="918" y="1270" on="1"/>
        <pt x="932" y="1270" on="0"/>
        <pt x="952" y="1339" on="0"/>
        <pt x="952" y="1364" on="0"/>
        <pt x="944" y="1364" on="1"/>
        <pt x="887" y="1358" on="0"/>
        <pt x="430" y="1358" on="0"/>
        <pt x="373" y="1364" on="1"/>
        <pt x="360" y="1364" on="0"/>
        <pt x="340" y="1296" on="0"/>
        <pt x="340" y="1270" on="0"/>
        <pt x="346" y="1270" on="1"/>
        <pt x="485" y="1270" on="0"/>
        <pt x="485" y="1217" on="1"/>
        <pt x="485" y="1180" on="0"/>
        <pt x="477" y="1153" on="1"/>
        <pt x="207" y="203" on="1"/>
        <pt x="186" y="133" on="0"/>
        <pt x="96" y="86" on="0"/>
        <pt x="8" y="86" on="1"/>
        <pt x="-8" y="86" on="0"/>
        <pt x="-25" y="18" on="0"/>
        <pt x="-24" y="-8" on="0"/>
        <pt x="-16" y="-8" on="1"/>
        <pt x="59" y="0" on="0"/>
        <pt x="481" y="0" on="0"/>
        <pt x="559" y="-8" on="1"/>
        <pt x="571" y="-8" on="0"/>
        <pt x="590" y="57" on="0"/>
        <pt x="590" y="86" on="0"/>
        <pt x="584" y="86" on="1"/>
        <pt x="434" y="87" on="0"/>
        <pt x="434" y="150" on="1"/>
        <pt x="434" y="178" on="0"/>
        <pt x="440" y="203" on="1"/>
      </contour>
    </TTGlyph>
    <TTGlyph name="IJ" xMin="-25" yMin="-418" xMax="1727" yMax="1364">
      <component glyphName="J" x="809" y="0" flags="0x0"/>
      <component glyphName="I" x="0" y="0" flags="0x0"/>
    </TTGlyph>
    <TTGlyph name="Iacute" xMin="-25" yMin="-8" xMax="952" yMax="1767">
      <component glyphName="acute.case" x="-147" y="0" flags="0x0"/>
      <component glyphName="I" x="0" y="0" flags="0x0"/>
    </TTGlyph>
    <TTGlyph name="Ibreve" xMin="-25" yMin="-8" xMax="1012" yMax="1800">
      <component glyphName="breve" x="291" y="465" flags="0x4"/>
      <component glyphName="I" x="0" y="0" flags="0x0"/>
    </TTGlyph>
    <TTGlyph name="Icircumflex" xMin="-25" yMin="-8" xMax="1041" yMax="1820">
      <component glyphName="circumflex.case" x="-49" y="0" flags="0x0"/>
      <component glyphName="I" x="0" y="0" flags="0x0"/>
    </TTGlyph>
    <TTGlyph name="Idieresis" xMin="-25" yMin="-8" xMax="1033" yMax="1751">
      <component glyphName="dieresis.case" x="-63" y="0" flags="0x0"/>
      <component glyphName="I" x="0" y="0" flags="0x0"/>
    </TTGlyph>
    <TTGlyph name="Idotaccent" xMin="-25" yMin="-8" xMax="952" yMax="1792">
      <component glyphName="dotaccent" x="428" y="465" flags="0x4"/>
      <component glyphName="I" x="0" y="0" flags="0x0"/>
    </TTGlyph>
    <TTGlyph name="Igrave" xMin="-25" yMin="-8" xMax="952" yMax="1767">
      <component glyphName="grave.case" x="-59" y="0" flags="0x0"/>
      <component glyphName="I" x="0" y="0" flags="0x0"/>
    </TTGlyph>
    <TTGlyph name="Imacron" xMin="-25" yMin="-8" xMax="1070" yMax="1669">
      <component glyphName="macron.case" x="-45" y="0" flags="0x0"/>
      <component glyphName="I" x="0" y="0" flags="0x0"/>
    </TTGlyph>
    <TTGlyph name="Iogonek" xMin="-25" yMin="-488" xMax="952" yMax="1364">
      <contour>
        <pt x="715" y="1153" on="1"/>
        <pt x="729" y="1210" on="0"/>
        <pt x="807" y="1270" on="0"/>
        <pt x="918" y="1270" on="1"/>
        <pt x="932" y="1270" on="0"/>
        <pt x="952" y="1339" on="0"/>
        <pt x="952" y="1364" on="0"/>
        <pt x="944" y="1364" on="1"/>
        <pt x="887" y="1358" on="0"/>
        <pt x="430" y="1358" on="0"/>
        <pt x="373" y="1364" on="1"/>
        <pt x="360" y="1364" on="0"/>
        <pt x="340" y="1296" on="0"/>
        <pt x="340" y="1270" on="0"/>
        <pt x="346" y="1270" on="1"/>
        <pt x="485" y="1270" on="0"/>
        <pt x="485" y="1217" on="1"/>
        <pt x="485" y="1180" on="0"/>
        <pt x="477" y="1153" on="1"/>
        <pt x="207" y="203" on="1"/>
        <pt x="186" y="133" on="0"/>
        <pt x="96" y="86" on="0"/>
        <pt x="8" y="86" on="1"/>
        <pt x="-8" y="86" on="0"/>
        <pt x="-25" y="18" on="0"/>
        <pt x="-24" y="-8" on="0"/>
        <pt x="-16" y="-8" on="1"/>
        <pt x="63" y="0" on="0"/>
        <pt x="270" y="0" on="1"/>
        <pt x="297" y="0" on="1"/>
        <pt x="16" y="-201" on="0"/>
        <pt x="16" y="-373" on="1"/>
        <pt x="16" y="-487" on="0"/>
        <pt x="324" y="-488" on="0"/>
        <pt x="430" y="-375" on="1"/>
        <pt x="440" y="-342" on="0"/>
        <pt x="422" y="-336" on="1"/>
        <pt x="370" y="-367" on="0"/>
        <pt x="309" y="-367" on="1"/>
        <pt x="213" y="-367" on="0"/>
        <pt x="213" y="-293" on="1"/>
        <pt x="213" y="-174" on="0"/>
        <pt x="414" y="0" on="1"/>
        <pt x="512" y="-4" on="0"/>
        <pt x="559" y="-8" on="1"/>
        <pt x="571" y="-8" on="0"/>
        <pt x="590" y="57" on="0"/>
        <pt x="590" y="86" on="0"/>
        <pt x="584" y="86" on="1"/>
        <pt x="434" y="87" on="0"/>
        <pt x="434" y="150" on="1"/>
        <pt x="434" y="178" on="0"/>
        <pt x="440" y="203" on="1"/>
      </contour>
    </TTGlyph>
    <TTGlyph name="Itilde" xMin="-25" yMin="-8" xMax="1000" yMax="1710">
      <component glyphName="tilde.case" x="164" y="0" flags="0x0"/>
      <component glyphName="I" x="0" y="0" flags="0x0"/>
    </TTGlyph>
    <TTGlyph name="J" xMin="-338" yMin="-418" xMax="918" yMax="1364">
      <contour>
        <pt x="698" y="1153" on="1"/>
        <pt x="721" y="1229" on="0"/>
        <pt x="805" y="1270" on="0"/>
        <pt x="887" y="1270" on="1"/>
        <pt x="901" y="1270" on="0"/>
        <pt x="918" y="1337" on="0"/>
        <pt x="917" y="1364" on="0"/>
        <pt x="909" y="1364" on="1"/>
        <pt x="852" y="1358" on="0"/>
        <pt x="428" y="1358" on="0"/>
        <pt x="371" y="1364" on="1"/>
        <pt x="356" y="1364" on="0"/>
        <pt x="338" y="1300" on="0"/>
        <pt x="338" y="1270" on="0"/>
        <pt x="346" y="1270" on="1"/>
        <pt x="471" y="1270" on="0"/>
        <pt x="471" y="1194" on="1"/>
        <pt x="471" y="1176" on="0"/>
        <pt x="465" y="1153" on="1"/>
        <pt x="315" y="639" on="1"/>
        <pt x="123" y="-27" on="0"/>
        <pt x="41" y="-248" on="0"/>
        <pt x="-43" y="-303" on="1"/>
        <pt x="-47" y="-252" on="0"/>
        <pt x="-127" y="-180" on="0"/>
        <pt x="-184" y="-180" on="1"/>
        <pt x="-240" y="-180" on="0"/>
        <pt x="-338" y="-246" on="0"/>
        <pt x="-338" y="-360" on="0"/>
        <pt x="-250" y="-418" on="0"/>
        <pt x="-178" y="-418" on="1"/>
        <pt x="-16" y="-418" on="0"/>
        <pt x="162" y="-248" on="1"/>
        <pt x="342" y="-76" on="0"/>
        <pt x="442" y="272" on="1"/>
      </contour>
    </TTGlyph>
    <TTGlyph name="Jcircumflex" xMin="-338" yMin="-418" xMax="1006" yMax="1820">
      <component glyphName="circumflex.case" x="-84" y="0" flags="0x0"/>
      <component glyphName="J" x="0" y="0" flags="0x0"/>
    </TTGlyph>
    <TTGlyph name="K" xMin="-25" yMin="-8" xMax="1548" yMax="1364">
      <contour>
        <pt x="801" y="719" on="1"/>
        <pt x="788" y="742" on="0"/>
        <pt x="788" y="752" on="1"/>
        <pt x="789" y="762" on="0"/>
        <pt x="805" y="776" on="1"/>
        <pt x="1198" y="1120" on="1"/>
        <pt x="1299" y="1208" on="0"/>
        <pt x="1360" y="1239" on="1"/>
        <pt x="1419" y="1270" on="0"/>
        <pt x="1513" y="1270" on="1"/>
        <pt x="1528" y="1270" on="0"/>
        <pt x="1548" y="1339" on="0"/>
        <pt x="1546" y="1364" on="0"/>
        <pt x="1538" y="1364" on="1"/>
        <pt x="1483" y="1358" on="0"/>
        <pt x="1194" y="1358" on="0"/>
        <pt x="1124" y="1364" on="1"/>
        <pt x="1112" y="1364" on="0"/>
        <pt x="1087" y="1294" on="0"/>
        <pt x="1088" y="1270" on="0"/>
        <pt x="1096" y="1270" on="1"/>
        <pt x="1147" y="1270" on="0"/>
        <pt x="1147" y="1243" on="1"/>
        <pt x="1146" y="1214" on="0"/>
        <pt x="1083" y="1157" on="1"/>
        <pt x="686" y="795" on="1"/>
        <pt x="627" y="739" on="0"/>
        <pt x="604" y="739" on="1"/>
        <pt x="598" y="739" on="0"/>
        <pt x="598" y="752" on="0"/>
        <pt x="600" y="758" on="1"/>
        <pt x="715" y="1153" on="1"/>
        <pt x="735" y="1231" on="0"/>
        <pt x="811" y="1270" on="0"/>
        <pt x="895" y="1270" on="1"/>
        <pt x="907" y="1270" on="0"/>
        <pt x="930" y="1337" on="0"/>
        <pt x="930" y="1364" on="0"/>
        <pt x="922" y="1364" on="1"/>
        <pt x="848" y="1358" on="0"/>
        <pt x="445" y="1358" on="0"/>
        <pt x="373" y="1364" on="1"/>
        <pt x="360" y="1364" on="0"/>
        <pt x="340" y="1298" on="0"/>
        <pt x="340" y="1270" on="0"/>
        <pt x="348" y="1270" on="1"/>
        <pt x="487" y="1270" on="0"/>
        <pt x="487" y="1204" on="1"/>
        <pt x="487" y="1178" on="0"/>
        <pt x="481" y="1153" on="1"/>
        <pt x="205" y="203" on="1"/>
        <pt x="184" y="133" on="0"/>
        <pt x="100" y="86" on="0"/>
        <pt x="8" y="86" on="1"/>
        <pt x="-8" y="86" on="0"/>
        <pt x="-25" y="14" on="0"/>
        <pt x="-22" y="-6" on="0"/>
        <pt x="-14" y="-6" on="1"/>
        <pt x="104" y="0" on="0"/>
        <pt x="426" y="0" on="0"/>
        <pt x="539" y="-8" on="1"/>
        <pt x="553" y="-8" on="0"/>
        <pt x="569" y="55" on="0"/>
        <pt x="569" y="86" on="0"/>
        <pt x="563" y="86" on="1"/>
        <pt x="432" y="87" on="0"/>
        <pt x="432" y="150" on="1"/>
        <pt x="432" y="178" on="0"/>
        <pt x="438" y="203" on="1"/>
        <pt x="555" y="602" on="1"/>
        <pt x="563" y="627" on="0"/>
        <pt x="588" y="627" on="0"/>
        <pt x="621" y="600" on="0"/>
        <pt x="637" y="563" on="1"/>
        <pt x="811" y="205" on="1"/>
        <pt x="836" y="155" on="0"/>
        <pt x="836" y="135" on="1"/>
        <pt x="836" y="86" on="0"/>
        <pt x="752" y="86" on="1"/>
        <pt x="739" y="86" on="0"/>
        <pt x="721" y="25" on="0"/>
        <pt x="719" y="-8" on="0"/>
        <pt x="729" y="-8" on="1"/>
        <pt x="821" y="0" on="0"/>
        <pt x="1170" y="0" on="0"/>
        <pt x="1262" y="-8" on="1"/>
        <pt x="1274" y="-8" on="0"/>
        <pt x="1286" y="45" on="0"/>
        <pt x="1286" y="86" on="0"/>
        <pt x="1276" y="86" on="1"/>
        <pt x="1210" y="86" on="0"/>
        <pt x="1116" y="124" on="0"/>
        <pt x="1081" y="190" on="1"/>
      </contour>
    </TTGlyph>
    <TTGlyph name="L" xMin="-27" yMin="-8" xMax="1309" yMax="1364">
      <contour>
        <pt x="1303" y="383" on="1"/>
        <pt x="1309" y="399" on="0"/>
        <pt x="1208" y="399" on="0"/>
        <pt x="1204" y="383" on="1"/>
        <pt x="1122" y="102" on="0"/>
        <pt x="866" y="92" on="1"/>
        <pt x="551" y="78" on="1"/>
        <pt x="440" y="74" on="0"/>
        <pt x="440" y="160" on="1"/>
        <pt x="441" y="195" on="0"/>
        <pt x="455" y="242" on="1"/>
        <pt x="721" y="1153" on="1"/>
        <pt x="741" y="1217" on="0"/>
        <pt x="807" y="1270" on="0"/>
        <pt x="930" y="1270" on="1"/>
        <pt x="942" y="1270" on="0"/>
        <pt x="963" y="1337" on="0"/>
        <pt x="962" y="1364" on="0"/>
        <pt x="956" y="1364" on="1"/>
        <pt x="899" y="1358" on="0"/>
        <pt x="430" y="1358" on="0"/>
        <pt x="373" y="1364" on="1"/>
        <pt x="360" y="1364" on="0"/>
        <pt x="340" y="1298" on="0"/>
        <pt x="340" y="1270" on="0"/>
        <pt x="346" y="1270" on="1"/>
        <pt x="489" y="1269" on="0"/>
        <pt x="489" y="1206" on="1"/>
        <pt x="489" y="1180" on="0"/>
        <pt x="481" y="1153" on="1"/>
        <pt x="207" y="197" on="1"/>
        <pt x="193" y="152" on="0"/>
        <pt x="135" y="86" on="0"/>
        <pt x="10" y="86" on="1"/>
        <pt x="-4" y="86" on="0"/>
        <pt x="-27" y="16" on="0"/>
        <pt x="-26" y="-8" on="0"/>
        <pt x="-18" y="-8" on="1"/>
        <pt x="172" y="0" on="0"/>
        <pt x="414" y="0" on="0"/>
        <pt x="1000" y="-8" on="0"/>
        <pt x="1100" y="-8" on="1"/>
        <pt x="1174" y="-8" on="0"/>
        <pt x="1196" y="4" on="0"/>
        <pt x="1206" y="47" on="1"/>
      </contour>
    </TTGlyph>
    <TTGlyph name="Lacute" xMin="-27" yMin="-8" xMax="1309" yMax="1767">
      <component glyphName="acute.case" x="-174" y="0" flags="0x0"/>
      <component glyphName="L" x="0" y="0" flags="0x0"/>
    </TTGlyph>
    <TTGlyph name="Lcaron" xMin="-27" yMin="-8" xMax="1309" yMax="1491">
      <component glyphName="caron.alt" x="403" y="0" flags="0x0"/>
      <component glyphName="L" x="0" y="0" flags="0x0"/>
    </TTGlyph>
    <TTGlyph name="Ldot" xMin="-27" yMin="-8" xMax="1309" yMax="1364">
      <component glyphName="periodcentered" x="616" y="215" flags="0x4"/>
      <component glyphName="L" x="0" y="0" flags="0x0"/>
    </TTGlyph>
    <TTGlyph name="Lslash" xMin="-25" yMin="-8" xMax="1303" yMax="1364">
      <contour>
        <pt x="1303" y="383" on="1"/>
        <pt x="1303" y="399" on="0"/>
        <pt x="1257" y="399" on="1"/>
        <pt x="1208" y="399" on="0"/>
        <pt x="1204" y="383" on="1"/>
        <pt x="1198" y="358" on="0"/>
        <pt x="1190" y="338" on="1"/>
        <pt x="1099" y="102" on="0"/>
        <pt x="866" y="92" on="1"/>
        <pt x="551" y="78" on="1"/>
        <pt x="512" y="80" on="1"/>
        <pt x="440" y="88" on="0"/>
        <pt x="440" y="158" on="1"/>
        <pt x="441" y="191" on="0"/>
        <pt x="455" y="242" on="1"/>
        <pt x="571" y="643" on="1"/>
        <pt x="901" y="825" on="1"/>
        <pt x="905" y="827" on="0"/>
        <pt x="907" y="831" on="1"/>
        <pt x="909" y="848" on="1"/>
        <pt x="909" y="878" on="0"/>
        <pt x="891" y="909" on="1"/>
        <pt x="880" y="924" on="0"/>
        <pt x="872" y="926" on="1"/>
        <pt x="864" y="926" on="1"/>
        <pt x="612" y="786" on="1"/>
        <pt x="721" y="1153" on="1"/>
        <pt x="741" y="1226" on="0"/>
        <pt x="788" y="1251" on="1"/>
        <pt x="815" y="1264" on="1"/>
        <pt x="842" y="1270" on="0"/>
        <pt x="930" y="1270" on="1"/>
        <pt x="936" y="1270" on="0"/>
        <pt x="944" y="1282" on="1"/>
        <pt x="963" y="1315" on="0"/>
        <pt x="963" y="1350" on="1"/>
        <pt x="962" y="1364" on="0"/>
        <pt x="956" y="1364" on="1"/>
        <pt x="900" y="1358" on="0"/>
        <pt x="662" y="1358" on="1"/>
        <pt x="430" y="1358" on="0"/>
        <pt x="373" y="1364" on="1"/>
        <pt x="354" y="1360" on="0"/>
        <pt x="342" y="1313" on="1"/>
        <pt x="340" y="1282" on="1"/>
        <pt x="338" y="1270" on="0"/>
        <pt x="344" y="1270" on="1"/>
        <pt x="409" y="1270" on="0"/>
        <pt x="440" y="1260" on="1"/>
        <pt x="487" y="1241" on="0"/>
        <pt x="487" y="1196" on="1"/>
        <pt x="487" y="1178" on="0"/>
        <pt x="481" y="1153" on="1"/>
        <pt x="330" y="629" on="1"/>
        <pt x="57" y="477" on="1"/>
        <pt x="49" y="473" on="0"/>
        <pt x="49" y="457" on="1"/>
        <pt x="49" y="442" on="0"/>
        <pt x="53" y="426" on="1"/>
        <pt x="68" y="385" on="0"/>
        <pt x="86" y="379" on="1"/>
        <pt x="94" y="379" on="1"/>
        <pt x="291" y="487" on="1"/>
        <pt x="207" y="197" on="1"/>
        <pt x="184" y="123" on="0"/>
        <pt x="131" y="100" on="1"/>
        <pt x="96" y="86" on="0"/>
        <pt x="10" y="86" on="1"/>
        <pt x="4" y="86" on="0"/>
        <pt x="-4" y="72" on="1"/>
        <pt x="-25" y="35" on="0"/>
        <pt x="-25" y="4" on="1"/>
        <pt x="-24" y="-8" on="0"/>
        <pt x="-18" y="-8" on="1"/>
        <pt x="172" y="0" on="0"/>
        <pt x="283" y="0" on="1"/>
        <pt x="391" y="0" on="1"/>
        <pt x="1100" y="-8" on="1"/>
        <pt x="1122" y="-8" on="1"/>
        <pt x="1182" y="-6" on="0"/>
        <pt x="1192" y="4" on="1"/>
        <pt x="1196" y="8" on="0"/>
        <pt x="1206" y="47" on="1"/>
        <pt x="1303" y="383" on="1"/>
      </contour>
    </TTGlyph>
    <TTGlyph name="M" xMin="-29" yMin="-16" xMax="2118" yMax="1364">
      <contour>
        <pt x="1874" y="1077" on="1"/>
        <pt x="1913" y="1204" on="0"/>
        <pt x="1974" y="1270" on="0"/>
        <pt x="2085" y="1270" on="1"/>
        <pt x="2097" y="1270" on="0"/>
        <pt x="2118" y="1339" on="0"/>
        <pt x="2117" y="1364" on="0"/>
        <pt x="2111" y="1364" on="1"/>
        <pt x="2005" y="1358" on="0"/>
        <pt x="1839" y="1357" on="0"/>
        <pt x="1804" y="1341" on="1"/>
        <pt x="1772" y="1325" on="0"/>
        <pt x="1737" y="1282" on="1"/>
        <pt x="987" y="354" on="1"/>
        <pt x="970" y="336" on="0"/>
        <pt x="958" y="336" on="1"/>
        <pt x="944" y="333" on="0"/>
        <pt x="940" y="360" on="1"/>
        <pt x="760" y="1264" on="1"/>
        <pt x="748" y="1314" on="0"/>
        <pt x="725" y="1337" on="1"/>
        <pt x="709" y="1358" on="0"/>
        <pt x="538" y="1358" on="0"/>
        <pt x="444" y="1364" on="1"/>
        <pt x="434" y="1364" on="0"/>
        <pt x="410" y="1296" on="0"/>
        <pt x="410" y="1270" on="0"/>
        <pt x="416" y="1270" on="1"/>
        <pt x="551" y="1270" on="0"/>
        <pt x="551" y="1184" on="1"/>
        <pt x="550" y="1147" on="0"/>
        <pt x="532" y="1100" on="1"/>
        <pt x="209" y="219" on="1"/>
        <pt x="176" y="135" on="0"/>
        <pt x="90" y="86" on="0"/>
        <pt x="4" y="86" on="1"/>
        <pt x="-10" y="86" on="0"/>
        <pt x="-29" y="16" on="0"/>
        <pt x="-26" y="-8" on="0"/>
        <pt x="-20" y="-8" on="1"/>
        <pt x="55" y="0" on="0"/>
        <pt x="317" y="0" on="0"/>
        <pt x="393" y="-8" on="1"/>
        <pt x="406" y="-8" on="0"/>
        <pt x="426" y="55" on="0"/>
        <pt x="426" y="86" on="0"/>
        <pt x="418" y="86" on="1"/>
        <pt x="299" y="86" on="0"/>
        <pt x="299" y="147" on="1"/>
        <pt x="299" y="172" on="0"/>
        <pt x="309" y="199" on="1"/>
        <pt x="565" y="899" on="1"/>
        <pt x="573" y="926" on="0"/>
        <pt x="596" y="926" on="0"/>
        <pt x="600" y="897" on="1"/>
        <pt x="768" y="25" on="1"/>
        <pt x="776" y="-16" on="0"/>
        <pt x="825" y="-16" on="0"/>
        <pt x="856" y="23" on="1"/>
        <pt x="1538" y="862" on="1"/>
        <pt x="1563" y="891" on="0"/>
        <pt x="1581" y="891" on="0"/>
        <pt x="1581" y="879" on="1"/>
        <pt x="1581" y="870" on="0"/>
        <pt x="1579" y="860" on="1"/>
        <pt x="1384" y="217" on="1"/>
        <pt x="1364" y="147" on="0"/>
        <pt x="1284" y="86" on="0"/>
        <pt x="1206" y="86" on="1"/>
        <pt x="1194" y="86" on="0"/>
        <pt x="1171" y="18" on="0"/>
        <pt x="1172" y="-8" on="0"/>
        <pt x="1180" y="-8" on="1"/>
        <pt x="1257" y="0" on="0"/>
        <pt x="1651" y="0" on="0"/>
        <pt x="1729" y="-8" on="1"/>
        <pt x="1741" y="-8" on="0"/>
        <pt x="1759" y="57" on="0"/>
        <pt x="1759" y="86" on="0"/>
        <pt x="1751" y="86" on="1"/>
        <pt x="1604" y="87" on="0"/>
        <pt x="1604" y="150" on="1"/>
        <pt x="1604" y="174" on="0"/>
        <pt x="1612" y="199" on="1"/>
      </contour>
    </TTGlyph>
    <TTGlyph name="N" xMin="-29" yMin="-27" xMax="1739" yMax="1364">
      <contour>
        <pt x="1522" y="1169" on="1"/>
        <pt x="1534" y="1214" on="0"/>
        <pt x="1600" y="1270" on="0"/>
        <pt x="1704" y="1270" on="1"/>
        <pt x="1718" y="1270" on="0"/>
        <pt x="1739" y="1339" on="0"/>
        <pt x="1739" y="1364" on="0"/>
        <pt x="1731" y="1364" on="1"/>
        <pt x="1673" y="1358" on="0"/>
        <pt x="1380" y="1358" on="0"/>
        <pt x="1323" y="1364" on="1"/>
        <pt x="1309" y="1364" on="0"/>
        <pt x="1286" y="1296" on="0"/>
        <pt x="1286" y="1270" on="0"/>
        <pt x="1292" y="1270" on="1"/>
        <pt x="1421" y="1270" on="0"/>
        <pt x="1421" y="1198" on="1"/>
        <pt x="1421" y="1180" on="0"/>
        <pt x="1413" y="1153" on="1"/>
        <pt x="1192" y="399" on="1"/>
        <pt x="1182" y="365" on="0"/>
        <pt x="1149" y="364" on="0"/>
        <pt x="1135" y="395" on="1"/>
        <pt x="690" y="1296" on="1"/>
        <pt x="674" y="1329" on="0"/>
        <pt x="623" y="1360" on="0"/>
        <pt x="443" y="1360" on="0"/>
        <pt x="367" y="1364" on="1"/>
        <pt x="352" y="1364" on="0"/>
        <pt x="332" y="1296" on="0"/>
        <pt x="332" y="1270" on="0"/>
        <pt x="338" y="1270" on="1"/>
        <pt x="391" y="1270" on="0"/>
        <pt x="424" y="1262" on="1"/>
        <pt x="469" y="1247" on="0"/>
        <pt x="469" y="1151" on="0"/>
        <pt x="453" y="1096" on="1"/>
        <pt x="199" y="203" on="1"/>
        <pt x="180" y="137" on="0"/>
        <pt x="100" y="86" on="0"/>
        <pt x="4" y="86" on="1"/>
        <pt x="-10" y="86" on="0"/>
        <pt x="-29" y="16" on="0"/>
        <pt x="-26" y="-8" on="0"/>
        <pt x="-20" y="-8" on="1"/>
        <pt x="55" y="0" on="0"/>
        <pt x="317" y="0" on="0"/>
        <pt x="393" y="-8" on="1"/>
        <pt x="406" y="-8" on="0"/>
        <pt x="426" y="57" on="0"/>
        <pt x="426" y="86" on="0"/>
        <pt x="418" y="86" on="1"/>
        <pt x="295" y="86" on="0"/>
        <pt x="295" y="145" on="1"/>
        <pt x="295" y="170" on="0"/>
        <pt x="303" y="203" on="1"/>
        <pt x="532" y="1008" on="1"/>
        <pt x="541" y="1030" on="0"/>
        <pt x="561" y="1031" on="0"/>
        <pt x="573" y="1008" on="1"/>
        <pt x="1077" y="2" on="1"/>
        <pt x="1092" y="-27" on="0"/>
        <pt x="1176" y="-26" on="0"/>
        <pt x="1192" y="27" on="1"/>
      </contour>
    </TTGlyph>
    <TTGlyph name="Nacute" xMin="-29" yMin="-27" xMax="1739" yMax="1767">
      <component glyphName="acute.case" x="219" y="0" flags="0x0"/>
      <component glyphName="N" x="0" y="0" flags="0x0"/>
    </TTGlyph>
    <TTGlyph name="Ncaron" xMin="-29" yMin="-27" xMax="1739" yMax="1819">
      <component glyphName="caron.case" x="330" y="0" flags="0x0"/>
      <component glyphName="N" x="0" y="0" flags="0x0"/>
    </TTGlyph>
    <TTGlyph name="Ntilde" xMin="-29" yMin="-27" xMax="1739" yMax="1710">
      <component glyphName="tilde.case" x="541" y="0" flags="0x0"/>
      <component glyphName="N" x="0" y="0" flags="0x0"/>
    </TTGlyph>
    <TTGlyph name="O" xMin="178" yMin="-27" xMax="1569" yMax="1384">
      <contour>
        <pt x="1569" y="874" on="1"/>
        <pt x="1569" y="1087" on="0"/>
        <pt x="1321" y="1384" on="0"/>
        <pt x="1079" y="1384" on="1"/>
        <pt x="705" y="1384" on="0"/>
        <pt x="178" y="795" on="0"/>
        <pt x="178" y="451" on="1"/>
        <pt x="178" y="240" on="0"/>
        <pt x="465" y="-27" on="0"/>
        <pt x="672" y="-27" on="1"/>
        <pt x="1047" y="-27" on="0"/>
        <pt x="1569" y="532" on="0"/>
        <pt x="1569" y="874" on="1"/>
      </contour>
      <contour>
        <pt x="1331" y="874" on="1"/>
        <pt x="1331" y="679" on="0"/>
        <pt x="1159" y="297" on="0"/>
        <pt x="893" y="63" on="0"/>
        <pt x="715" y="63" on="1"/>
        <pt x="592" y="63" on="0"/>
        <pt x="422" y="285" on="0"/>
        <pt x="422" y="473" on="1"/>
        <pt x="422" y="702" on="0"/>
        <pt x="623" y="1087" on="0"/>
        <pt x="895" y="1300" on="0"/>
        <pt x="1042" y="1300" on="1"/>
        <pt x="1161" y="1301" on="0"/>
        <pt x="1245" y="1176" on="1"/>
        <pt x="1331" y="1050" on="0"/>
        <pt x="1331" y="874" on="1"/>
      </contour>
    </TTGlyph>
    <TTGlyph name="OE" xMin="178" yMin="-12" xMax="2247" yMax="1364">
      <contour>
        <pt x="2247" y="1323" on="1"/>
        <pt x="2247" y="1339" on="1"/>
        <pt x="2238" y="1358" on="0"/>
        <pt x="2183" y="1358" on="1"/>
        <pt x="2181" y="1358" on="1"/>
        <pt x="1479" y="1354" on="1"/>
        <pt x="1475" y="1354" on="1"/>
        <pt x="1057" y="1364" on="1"/>
        <pt x="1006" y="1364" on="0"/>
        <pt x="963" y="1360" on="1"/>
        <pt x="713" y="1338" on="0"/>
        <pt x="500" y="1141" on="1"/>
        <pt x="354" y="1006" on="0"/>
        <pt x="272" y="850" on="1"/>
        <pt x="178" y="670" on="0"/>
        <pt x="178" y="455" on="1"/>
        <pt x="178" y="403" on="0"/>
        <pt x="186" y="358" on="1"/>
        <pt x="223" y="149" on="0"/>
        <pt x="416" y="49" on="1"/>
        <pt x="534" y="-12" on="0"/>
        <pt x="659" y="-12" on="1"/>
        <pt x="712" y="-12" on="0"/>
        <pt x="784" y="-10" on="1"/>
        <pt x="1057" y="0" on="0"/>
        <pt x="1120" y="0" on="1"/>
        <pt x="1274" y="0" on="1"/>
        <pt x="1812" y="-8" on="1"/>
        <pt x="1862" y="-8" on="1"/>
        <pt x="1915" y="-7" on="0"/>
        <pt x="1921" y="20" on="1"/>
        <pt x="2021" y="383" on="1"/>
        <pt x="2021" y="391" on="0"/>
        <pt x="1996" y="399" on="0"/>
        <pt x="1978" y="399" on="1"/>
        <pt x="1931" y="399" on="0"/>
        <pt x="1925" y="383" on="1"/>
        <pt x="1894" y="293" on="0"/>
        <pt x="1849" y="223" on="1"/>
        <pt x="1763" y="94" on="0"/>
        <pt x="1659" y="90" on="1"/>
        <pt x="1368" y="78" on="1"/>
        <pt x="1354" y="78" on="1"/>
        <pt x="1270" y="82" on="0"/>
        <pt x="1270" y="160" on="1"/>
        <pt x="1270" y="186" on="0"/>
        <pt x="1280" y="223" on="1"/>
        <pt x="1384" y="571" on="1"/>
        <pt x="1391" y="598" on="0"/>
        <pt x="1411" y="598" on="1"/>
        <pt x="1614" y="598" on="1"/>
        <pt x="1626" y="598" on="1"/>
        <pt x="1659" y="592" on="1"/>
        <pt x="1681" y="583" on="0"/>
        <pt x="1683" y="565" on="1"/>
        <pt x="1681" y="547" on="1"/>
        <pt x="1647" y="418" on="1"/>
        <pt x="1653" y="401" on="0"/>
        <pt x="1727" y="402" on="0"/>
        <pt x="1731" y="418" on="1"/>
        <pt x="1745" y="483" on="0"/>
        <pt x="1790" y="639" on="1"/>
        <pt x="1858" y="856" on="0"/>
        <pt x="1870" y="885" on="1"/>
        <pt x="1869" y="893" on="0"/>
        <pt x="1853" y="897" on="1"/>
        <pt x="1825" y="901" on="1"/>
        <pt x="1786" y="901" on="0"/>
        <pt x="1780" y="885" on="1"/>
        <pt x="1731" y="739" on="1"/>
        <pt x="1726" y="727" on="0"/>
        <pt x="1720" y="719" on="1"/>
        <pt x="1700" y="690" on="0"/>
        <pt x="1628" y="690" on="1"/>
        <pt x="1450" y="690" on="1"/>
        <pt x="1429" y="693" on="0"/>
        <pt x="1427" y="705" on="1"/>
        <pt x="1430" y="723" on="1"/>
        <pt x="1587" y="1231" on="1"/>
        <pt x="1593" y="1245" on="1"/>
        <pt x="1603" y="1264" on="0"/>
        <pt x="1636" y="1264" on="1"/>
        <pt x="1905" y="1255" on="1"/>
        <pt x="1917" y="1255" on="0"/>
        <pt x="1929" y="1253" on="1"/>
        <pt x="1964" y="1245" on="1"/>
        <pt x="1995" y="1231" on="1"/>
        <pt x="2071" y="1180" on="0"/>
        <pt x="2071" y="1071" on="1"/>
        <pt x="2070" y="1043" on="0"/>
        <pt x="2064" y="1010" on="1"/>
        <pt x="2067" y="999" on="0"/>
        <pt x="2081" y="995" on="1"/>
        <pt x="2109" y="993" on="1"/>
        <pt x="2153" y="994" on="0"/>
        <pt x="2159" y="1012" on="1"/>
        <pt x="2243" y="1300" on="1"/>
      </contour>
      <contour>
        <pt x="1047" y="217" on="1"/>
        <pt x="1038" y="192" on="0"/>
        <pt x="1026" y="172" on="1"/>
        <pt x="979" y="88" on="0"/>
        <pt x="846" y="78" on="1"/>
        <pt x="823" y="76" on="0"/>
        <pt x="692" y="76" on="1"/>
        <pt x="596" y="76" on="0"/>
        <pt x="518" y="160" on="1"/>
        <pt x="414" y="274" on="0"/>
        <pt x="414" y="477" on="1"/>
        <pt x="416" y="620" on="0"/>
        <pt x="469" y="776" on="1"/>
        <pt x="557" y="1037" on="0"/>
        <pt x="745" y="1180" on="1"/>
        <pt x="838" y="1247" on="0"/>
        <pt x="920" y="1270" on="1"/>
        <pt x="958" y="1280" on="0"/>
        <pt x="1032" y="1280" on="1"/>
        <pt x="1034" y="1280" on="1"/>
        <pt x="1053" y="1280" on="1"/>
        <pt x="1248" y="1282" on="0"/>
        <pt x="1305" y="1237" on="1"/>
        <pt x="1315" y="1229" on="0"/>
        <pt x="1321" y="1221" on="1"/>
        <pt x="1333" y="1204" on="0"/>
        <pt x="1333" y="1184" on="1"/>
        <pt x="1331" y="1171" on="0"/>
        <pt x="1327" y="1157" on="1"/>
      </contour>
    </TTGlyph>
    <TTGlyph name="Oacute" xMin="178" yMin="-27" xMax="1569" yMax="1767">
      <component glyphName="acute.case" x="254" y="0" flags="0x0"/>
      <component glyphName="O" x="0" y="0" flags="0x0"/>
    </TTGlyph>
    <TTGlyph name="Obreve" xMin="178" yMin="-27" xMax="1569" yMax="1800">
      <component glyphName="breve" x="727" y="465" flags="0x4"/>
      <component glyphName="O" x="0" y="0" flags="0x0"/>
    </TTGlyph>
    <TTGlyph name="Ocircumflex" xMin="178" yMin="-27" xMax="1569" yMax="1820">
      <component glyphName="circumflex.case" x="410" y="0" flags="0x0"/>
      <component glyphName="O" x="0" y="0" flags="0x0"/>
    </TTGlyph>
    <TTGlyph name="Odieresis" xMin="178" yMin="-27" xMax="1569" yMax="1751">
      <component glyphName="dieresis.case" x="336" y="0" flags="0x0"/>
      <component glyphName="O" x="0" y="0" flags="0x0"/>
    </TTGlyph>
    <TTGlyph name="Ograve" xMin="178" yMin="-27" xMax="1569" yMax="1767">
      <component glyphName="grave.case" x="319" y="0" flags="0x0"/>
      <component glyphName="O" x="0" y="0" flags="0x0"/>
    </TTGlyph>
    <TTGlyph name="Ohungarumlaut" xMin="178" yMin="-27" xMax="1625" yMax="1767">
      <component glyphName="hungarumlaut.case" x="625" y="0" flags="0x0"/>
      <component glyphName="O" x="0" y="0" flags="0x0"/>
    </TTGlyph>
    <TTGlyph name="Omacron" xMin="178" yMin="-27" xMax="1569" yMax="1669">
      <component glyphName="macron.case" x="365" y="0" flags="0x0"/>
      <component glyphName="O" x="0" y="0" flags="0x0"/>
    </TTGlyph>
    <TTGlyph name="Oslash" xMin="178" yMin="-100" xMax="1569" yMax="1437">
      <contour>
        <pt x="1569" y="874" on="1"/>
        <pt x="1569" y="1087" on="0"/>
        <pt x="1450" y="1229" on="1"/>
        <pt x="1440" y="1239" on="1"/>
        <pt x="1432" y="1247" on="0"/>
        <pt x="1430" y="1251" on="1"/>
        <pt x="1513" y="1350" on="1"/>
        <pt x="1526" y="1366" on="0"/>
        <pt x="1446" y="1437" on="0"/>
        <pt x="1432" y="1423" on="1"/>
        <pt x="1346" y="1321" on="1"/>
        <pt x="1241" y="1384" on="0"/>
        <pt x="1079" y="1384" on="1"/>
        <pt x="934" y="1384" on="0"/>
        <pt x="658" y="1290" on="0"/>
        <pt x="508" y="1153" on="1"/>
        <pt x="178" y="850" on="0"/>
        <pt x="178" y="451" on="1"/>
        <pt x="178" y="242" on="0"/>
        <pt x="311" y="113" on="1"/>
        <pt x="201" y="-16" on="1"/>
        <pt x="190" y="-29" on="0"/>
        <pt x="271" y="-100" on="0"/>
        <pt x="281" y="-90" on="1"/>
        <pt x="399" y="47" on="1"/>
        <pt x="527" y="-29" on="0"/>
        <pt x="672" y="-29" on="1"/>
        <pt x="1020" y="-29" on="0"/>
        <pt x="1284" y="231" on="1"/>
        <pt x="1432" y="377" on="0"/>
        <pt x="1569" y="718" on="0"/>
        <pt x="1569" y="874" on="1"/>
      </contour>
      <contour>
        <pt x="453" y="276" on="1"/>
        <pt x="420" y="362" on="0"/>
        <pt x="420" y="473" on="1"/>
        <pt x="420" y="588" on="0"/>
        <pt x="485" y="840" on="0"/>
        <pt x="647" y="1110" on="0"/>
        <pt x="762" y="1196" on="1"/>
        <pt x="817" y="1237" on="0"/>
        <pt x="924" y="1288" on="0"/>
        <pt x="989" y="1296" on="0"/>
        <pt x="1051" y="1302" on="0"/>
        <pt x="1055" y="1298" on="1"/>
        <pt x="1157" y="1298" on="0"/>
        <pt x="1237" y="1192" on="1"/>
      </contour>
      <contour>
        <pt x="1331" y="874" on="1"/>
        <pt x="1331" y="796" on="0"/>
        <pt x="1288" y="602" on="0"/>
        <pt x="1190" y="375" on="0"/>
        <pt x="1051" y="186" on="0"/>
        <pt x="834" y="63" on="0"/>
        <pt x="707" y="63" on="1"/>
        <pt x="590" y="63" on="0"/>
        <pt x="506" y="174" on="1"/>
        <pt x="1290" y="1092" on="1"/>
        <pt x="1331" y="989" on="0"/>
        <pt x="1331" y="874" on="1"/>
      </contour>
    </TTGlyph>
    <TTGlyph name="Oslashacute" xMin="178" yMin="-100" xMax="1569" yMax="1767">
      <component glyphName="acute.case" x="295" y="0" flags="0x0"/>
      <component glyphName="Oslash" x="0" y="0" flags="0x0"/>
    </TTGlyph>
    <TTGlyph name="Otilde" xMin="178" yMin="-27" xMax="1569" yMax="1710">
      <component glyphName="tilde.case" x="555" y="0" flags="0x0"/>
      <component glyphName="O" x="0" y="0" flags="0x0"/>
    </TTGlyph>
    <TTGlyph name="P" xMin="-25" yMin="-8" xMax="1368" yMax="1358">
      <contour>
        <pt x="1368" y="1063" on="1"/>
        <pt x="1368" y="1202" on="0"/>
        <pt x="1134" y="1358" on="0"/>
        <pt x="950" y="1358" on="1"/>
        <pt x="901" y="1358" on="0"/>
        <pt x="700" y="1352" on="0"/>
        <pt x="514" y="1352" on="0"/>
        <pt x="371" y="1358" on="1"/>
        <pt x="356" y="1358" on="0"/>
        <pt x="338" y="1294" on="0"/>
        <pt x="338" y="1264" on="0"/>
        <pt x="346" y="1264" on="1"/>
        <pt x="494" y="1263" on="0"/>
        <pt x="494" y="1202" on="1"/>
        <pt x="493" y="1180" on="0"/>
        <pt x="487" y="1157" on="1"/>
        <pt x="203" y="203" on="1"/>
        <pt x="180" y="133" on="0"/>
        <pt x="104" y="86" on="0"/>
        <pt x="8" y="86" on="1"/>
        <pt x="-8" y="86" on="0"/>
        <pt x="-25" y="16" on="0"/>
        <pt x="-24" y="-8" on="0"/>
        <pt x="-16" y="-8" on="1"/>
        <pt x="59" y="0" on="0"/>
        <pt x="487" y="0" on="0"/>
        <pt x="563" y="-8" on="1"/>
        <pt x="575" y="-8" on="0"/>
        <pt x="598" y="55" on="0"/>
        <pt x="596" y="86" on="0"/>
        <pt x="588" y="86" on="1"/>
        <pt x="430" y="86" on="0"/>
        <pt x="430" y="160" on="1"/>
        <pt x="430" y="180" on="0"/>
        <pt x="436" y="203" on="1"/>
        <pt x="545" y="567" on="1"/>
        <pt x="553" y="602" on="0"/>
        <pt x="584" y="598" on="1"/>
        <pt x="655" y="588" on="0"/>
        <pt x="727" y="588" on="1"/>
        <pt x="991" y="588" on="0"/>
        <pt x="1368" y="866" on="0"/>
        <pt x="1368" y="1063" on="1"/>
      </contour>
      <contour>
        <pt x="1106" y="1038" on="1"/>
        <pt x="1106" y="901" on="0"/>
        <pt x="868" y="674" on="0"/>
        <pt x="684" y="674" on="1"/>
        <pt x="634" y="674" on="0"/>
        <pt x="618" y="678" on="1"/>
        <pt x="582" y="686" on="0"/>
        <pt x="594" y="727" on="1"/>
        <pt x="752" y="1260" on="1"/>
        <pt x="755" y="1278" on="0"/>
        <pt x="870" y="1278" on="1"/>
        <pt x="983" y="1278" on="0"/>
        <pt x="1106" y="1138" on="0"/>
        <pt x="1106" y="1038" on="1"/>
      </contour>
    </TTGlyph>
    <TTGlyph name="PoisonMark" xMin="47" yMin="940" xMax="573" yMax="1466">
      <contour>
        <pt x="373" y="1202" on="1"/>
        <pt x="573" y="1405" on="1"/>
        <pt x="512" y="1466" on="1"/>
        <pt x="309" y="1266" on="1"/>
        <pt x="109" y="1466" on="1"/>
        <pt x="47" y="1405" on="1"/>
        <pt x="248" y="1202" on="1"/>
        <pt x="47" y="1001" on="1"/>
        <pt x="109" y="940" on="1"/>
        <pt x="309" y="1141" on="1"/>
        <pt x="512" y="940" on="1"/>
        <pt x="573" y="1001" on="1"/>
      </contour>
    </TTGlyph>
    <TTGlyph name="Q" xMin="178" yMin="-362" xMax="1569" yMax="1384">
      <contour>
        <pt x="1569" y="874" on="1"/>
        <pt x="1569" y="1087" on="0"/>
        <pt x="1321" y="1384" on="0"/>
        <pt x="1073" y="1384" on="1"/>
        <pt x="725" y="1384" on="0"/>
        <pt x="178" y="813" on="0"/>
        <pt x="178" y="451" on="1"/>
        <pt x="178" y="283" on="0"/>
        <pt x="342" y="45" on="0"/>
        <pt x="801" y="-162" on="0"/>
        <pt x="1270" y="-315" on="0"/>
        <pt x="1477" y="-358" on="1"/>
        <pt x="1495" y="-362" on="0"/>
        <pt x="1524" y="-305" on="0"/>
        <pt x="1524" y="-278" on="0"/>
        <pt x="1516" y="-276" on="1"/>
        <pt x="1346" y="-229" on="0"/>
        <pt x="1096" y="-78" on="0"/>
        <pt x="1012" y="4" on="1"/>
        <pt x="999" y="14" on="0"/>
        <pt x="1001" y="37" on="0"/>
        <pt x="1024" y="47" on="1"/>
        <pt x="1151" y="104" on="0"/>
        <pt x="1432" y="377" on="0"/>
        <pt x="1569" y="718" on="0"/>
        <pt x="1569" y="874" on="1"/>
      </contour>
      <contour>
        <pt x="1331" y="874" on="1"/>
        <pt x="1331" y="593" on="0"/>
        <pt x="977" y="63" on="0"/>
        <pt x="715" y="63" on="1"/>
        <pt x="592" y="63" on="0"/>
        <pt x="422" y="286" on="0"/>
        <pt x="422" y="481" on="1"/>
        <pt x="422" y="698" on="0"/>
        <pt x="631" y="1102" on="0"/>
        <pt x="913" y="1300" on="0"/>
        <pt x="1042" y="1300" on="1"/>
        <pt x="1161" y="1301" on="0"/>
        <pt x="1245" y="1176" on="1"/>
        <pt x="1331" y="1048" on="0"/>
        <pt x="1331" y="874" on="1"/>
      </contour>
    </TTGlyph>
    <TTGlyph name="R" xMin="-25" yMin="-25" xMax="1401" yMax="1358">
      <contour>
        <pt x="1401" y="1057" on="1"/>
        <pt x="1401" y="1202" on="0"/>
        <pt x="1159" y="1358" on="0"/>
        <pt x="1028" y="1358" on="1"/>
        <pt x="897" y="1358" on="0"/>
        <pt x="688" y="1352" on="0"/>
        <pt x="514" y="1352" on="0"/>
        <pt x="371" y="1358" on="1"/>
        <pt x="356" y="1358" on="0"/>
        <pt x="338" y="1292" on="0"/>
        <pt x="340" y="1264" on="0"/>
        <pt x="346" y="1264" on="1"/>
        <pt x="496" y="1263" on="0"/>
        <pt x="496" y="1200" on="1"/>
        <pt x="495" y="1184" on="0"/>
        <pt x="487" y="1157" on="1"/>
        <pt x="201" y="203" on="1"/>
        <pt x="178" y="127" on="0"/>
        <pt x="94" y="86" on="0"/>
        <pt x="8" y="86" on="1"/>
        <pt x="-8" y="86" on="0"/>
        <pt x="-25" y="18" on="0"/>
        <pt x="-24" y="-8" on="0"/>
        <pt x="-16" y="-8" on="1"/>
        <pt x="59" y="0" on="0"/>
        <pt x="479" y="0" on="0"/>
        <pt x="557" y="-8" on="1"/>
        <pt x="571" y="-8" on="0"/>
        <pt x="590" y="57" on="0"/>
        <pt x="590" y="86" on="0"/>
        <pt x="584" y="86" on="1"/>
        <pt x="426" y="86" on="0"/>
        <pt x="426" y="152" on="1"/>
        <pt x="426" y="178" on="0"/>
        <pt x="434" y="203" on="1"/>
        <pt x="545" y="565" on="1"/>
        <pt x="547" y="580" on="0"/>
        <pt x="555" y="586" on="1"/>
        <pt x="565" y="592" on="0"/>
        <pt x="602" y="586" on="0"/>
        <pt x="660" y="585" on="0"/>
        <pt x="676" y="571" on="1"/>
        <pt x="700" y="547" on="0"/>
        <pt x="727" y="481" on="1"/>
        <pt x="825" y="233" on="1"/>
        <pt x="850" y="170" on="0"/>
        <pt x="952" y="49" on="0"/>
        <pt x="1096" y="-25" on="0"/>
        <pt x="1231" y="-25" on="1"/>
        <pt x="1274" y="-24" on="0"/>
        <pt x="1325" y="-20" on="1"/>
        <pt x="1346" y="-21" on="0"/>
        <pt x="1346" y="6" on="1"/>
        <pt x="1347" y="33" on="0"/>
        <pt x="1331" y="33" on="1"/>
        <pt x="1229" y="30" on="0"/>
        <pt x="1141" y="184" on="1"/>
        <pt x="1000" y="430" on="0"/>
        <pt x="967" y="573" on="1"/>
        <pt x="967" y="580" on="0"/>
        <pt x="961" y="621" on="0"/>
        <pt x="981" y="627" on="1"/>
        <pt x="1176" y="680" on="0"/>
        <pt x="1401" y="912" on="0"/>
        <pt x="1401" y="1057" on="1"/>
      </contour>
      <contour>
        <pt x="1137" y="1063" on="1"/>
        <pt x="1137" y="893" on="0"/>
        <pt x="860" y="664" on="0"/>
        <pt x="680" y="664" on="1"/>
        <pt x="602" y="666" on="0"/>
        <pt x="586" y="682" on="1"/>
        <pt x="582" y="686" on="0"/>
        <pt x="582" y="696" on="0"/>
        <pt x="584" y="702" on="1"/>
        <pt x="752" y="1255" on="1"/>
        <pt x="754" y="1262" on="0"/>
        <pt x="768" y="1278" on="0"/>
        <pt x="803" y="1278" on="1"/>
        <pt x="989" y="1278" on="0"/>
        <pt x="1137" y="1149" on="0"/>
        <pt x="1137" y="1063" on="1"/>
      </contour>
    </TTGlyph>
    <TTGlyph name="Racute" xMin="-25" yMin="-25" xMax="1401" yMax="1767">
      <component glyphName="acute.case" x="80" y="0" flags="0x0"/>
      <component glyphName="R" x="0" y="0" flags="0x0"/>
    </TTGlyph>
    <TTGlyph name="Rcaron" xMin="-25" yMin="-25" xMax="1401" yMax="1819">
      <component glyphName="caron.case" x="225" y="0" flags="0x0"/>
      <component glyphName="R" x="0" y="0" flags="0x0"/>
    </TTGlyph>
    <TTGlyph name="S" xMin="104" yMin="-27" xMax="1147" yMax="1384">
      <contour>
        <pt x="1036" y="532" on="1"/>
        <pt x="1036" y="729" on="0"/>
        <pt x="799" y="807" on="1"/>
        <pt x="692" y="840" on="1"/>
        <pt x="526" y="895" on="0"/>
        <pt x="526" y="1001" on="1"/>
        <pt x="526" y="1110" on="0"/>
        <pt x="694" y="1300" on="0"/>
        <pt x="803" y="1300" on="1"/>
        <pt x="1012" y="1303" on="0"/>
        <pt x="1016" y="1094" on="1"/>
        <pt x="1016" y="1067" on="1"/>
        <pt x="1016" y="1051" on="0"/>
        <pt x="1110" y="1049" on="0"/>
        <pt x="1114" y="1069" on="1"/>
        <pt x="1147" y="1227" on="0"/>
        <pt x="1145" y="1354" on="1"/>
        <pt x="1094" y="1354" on="0"/>
        <pt x="957" y="1384" on="0"/>
        <pt x="840" y="1384" on="1"/>
        <pt x="616" y="1384" on="0"/>
        <pt x="297" y="1090" on="0"/>
        <pt x="297" y="885" on="1"/>
        <pt x="295" y="700" on="0"/>
        <pt x="522" y="608" on="1"/>
        <pt x="614" y="571" on="1"/>
        <pt x="791" y="502" on="0"/>
        <pt x="791" y="379" on="1"/>
        <pt x="791" y="266" on="0"/>
        <pt x="616" y="63" on="0"/>
        <pt x="512" y="63" on="1"/>
        <pt x="360" y="63" on="0"/>
        <pt x="233" y="226" on="0"/>
        <pt x="233" y="324" on="1"/>
        <pt x="236" y="354" on="0"/>
        <pt x="242" y="387" on="1"/>
        <pt x="246" y="408" on="0"/>
        <pt x="147" y="410" on="0"/>
        <pt x="141" y="385" on="1"/>
        <pt x="104" y="262" on="0"/>
        <pt x="104" y="117" on="1"/>
        <pt x="104" y="72" on="1"/>
        <pt x="215" y="10" on="0"/>
        <pt x="348" y="-27" on="0"/>
        <pt x="469" y="-27" on="1"/>
        <pt x="690" y="-27" on="0"/>
        <pt x="1036" y="305" on="0"/>
        <pt x="1036" y="532" on="1"/>
      </contour>
    </TTGlyph>
    <TTGlyph name="Sacute" xMin="104" yMin="-27" xMax="1239" yMax="1767">
      <component glyphName="acute.case" x="141" y="0" flags="0x0"/>
      <component glyphName="S" x="0" y="0" flags="0x0"/>
    </TTGlyph>
    <TTGlyph name="Scaron" xMin="104" yMin="-27" xMax="1301" yMax="1819">
      <component glyphName="caron.case" x="211" y="0" flags="0x0"/>
      <component glyphName="S" x="0" y="0" flags="0x0"/>
    </TTGlyph>
    <TTGlyph name="Scedilla" xMin="100" yMin="-514" xMax="1147" yMax="1384">
      <contour>
        <pt x="518" y="-324" on="1"/>
        <pt x="518" y="-228" on="0"/>
        <pt x="420" y="-154" on="1"/>
        <pt x="397" y="-137" on="0"/>
        <pt x="391" y="-122" on="0"/>
        <pt x="403" y="-106" on="1"/>
        <pt x="461" y="-27" on="1"/>
        <pt x="469" y="-27" on="1"/>
        <pt x="690" y="-27" on="0"/>
        <pt x="1036" y="305" on="0"/>
        <pt x="1036" y="532" on="1"/>
        <pt x="1039" y="729" on="0"/>
        <pt x="799" y="807" on="1"/>
        <pt x="692" y="840" on="1"/>
        <pt x="526" y="895" on="0"/>
        <pt x="526" y="1001" on="1"/>
        <pt x="526" y="1110" on="0"/>
        <pt x="694" y="1300" on="0"/>
        <pt x="803" y="1300" on="1"/>
        <pt x="1012" y="1303" on="0"/>
        <pt x="1016" y="1094" on="1"/>
        <pt x="1016" y="1067" on="1"/>
        <pt x="1016" y="1051" on="0"/>
        <pt x="1110" y="1049" on="0"/>
        <pt x="1114" y="1069" on="1"/>
        <pt x="1147" y="1227" on="0"/>
        <pt x="1145" y="1354" on="1"/>
        <pt x="1094" y="1354" on="0"/>
        <pt x="957" y="1384" on="0"/>
        <pt x="840" y="1384" on="1"/>
        <pt x="616" y="1384" on="0"/>
        <pt x="297" y="1090" on="0"/>
        <pt x="297" y="885" on="1"/>
        <pt x="295" y="700" on="0"/>
        <pt x="522" y="608" on="1"/>
        <pt x="614" y="571" on="1"/>
        <pt x="791" y="502" on="0"/>
        <pt x="791" y="379" on="1"/>
        <pt x="791" y="266" on="0"/>
        <pt x="616" y="63" on="0"/>
        <pt x="512" y="63" on="1"/>
        <pt x="360" y="63" on="0"/>
        <pt x="233" y="226" on="0"/>
        <pt x="233" y="324" on="1"/>
        <pt x="236" y="354" on="0"/>
        <pt x="242" y="387" on="1"/>
        <pt x="246" y="408" on="0"/>
        <pt x="147" y="410" on="0"/>
        <pt x="141" y="385" on="1"/>
        <pt x="104" y="262" on="0"/>
        <pt x="104" y="117" on="1"/>
        <pt x="104" y="72" on="1"/>
        <pt x="217" y="10" on="0"/>
        <pt x="283" y="-8" on="1"/>
        <pt x="315" y="-19" on="0"/>
        <pt x="358" y="-23" on="1"/>
        <pt x="225" y="-217" on="1"/>
        <pt x="231" y="-233" on="1"/>
        <pt x="358" y="-287" on="0"/>
        <pt x="358" y="-381" on="1"/>
        <pt x="358" y="-403" on="0"/>
        <pt x="323" y="-432" on="0"/>
        <pt x="305" y="-432" on="1"/>
        <pt x="285" y="-432" on="0"/>
        <pt x="197" y="-356" on="0"/>
        <pt x="166" y="-356" on="1"/>
        <pt x="137" y="-356" on="0"/>
        <pt x="100" y="-395" on="0"/>
        <pt x="100" y="-424" on="1"/>
        <pt x="100" y="-514" on="0"/>
        <pt x="258" y="-514" on="1"/>
        <pt x="362" y="-514" on="0"/>
        <pt x="518" y="-406" on="0"/>
        <pt x="518" y="-324" on="1"/>
      </contour>
    </TTGlyph>
    <TTGlyph name="Scircumflex" xMin="104" yMin="-27" xMax="1246" yMax="1820">
      <component glyphName="circumflex.case" x="156" y="0" flags="0x0"/>
      <component glyphName="S" x="0" y="0" flags="0x0"/>
    </TTGlyph>
    <TTGlyph name="T" xMin="238" yMin="-6" xMax="1544" yMax="1358">
      <contour>
        <pt x="487" y="203" on="1"/>
        <pt x="464" y="127" on="0"/>
        <pt x="375" y="86" on="0"/>
        <pt x="283" y="86" on="1"/>
        <pt x="276" y="86" on="0"/>
        <pt x="252" y="37" on="0"/>
        <pt x="252" y="-6" on="0"/>
        <pt x="258" y="-6" on="1"/>
        <pt x="360" y="0" on="0"/>
        <pt x="742" y="0" on="0"/>
        <pt x="838" y="-6" on="1"/>
        <pt x="854" y="-6" on="0"/>
        <pt x="870" y="55" on="0"/>
        <pt x="868" y="86" on="0"/>
        <pt x="862" y="86" on="1"/>
        <pt x="764" y="86" on="0"/>
        <pt x="715" y="135" on="0"/>
        <pt x="715" y="183" on="0"/>
        <pt x="721" y="203" on="1"/>
        <pt x="1024" y="1235" on="1"/>
        <pt x="1034" y="1264" on="0"/>
        <pt x="1059" y="1264" on="1"/>
        <pt x="1167" y="1264" on="1"/>
        <pt x="1278" y="1264" on="0"/>
        <pt x="1356" y="1153" on="0"/>
        <pt x="1356" y="1100" on="1"/>
        <pt x="1355" y="1061" on="0"/>
        <pt x="1339" y="1008" on="1"/>
        <pt x="1335" y="991" on="0"/>
        <pt x="1436" y="992" on="0"/>
        <pt x="1440" y="1008" on="1"/>
        <pt x="1532" y="1319" on="1"/>
        <pt x="1544" y="1358" on="0"/>
        <pt x="1464" y="1358" on="1"/>
        <pt x="1315" y="1352" on="0"/>
        <pt x="615" y="1354" on="0"/>
        <pt x="494" y="1356" on="1"/>
        <pt x="375" y="1356" on="0"/>
        <pt x="344" y="1346" on="0"/>
        <pt x="336" y="1319" on="1"/>
        <pt x="242" y="1008" on="1"/>
        <pt x="238" y="989" on="0"/>
        <pt x="340" y="992" on="0"/>
        <pt x="344" y="1008" on="1"/>
        <pt x="422" y="1264" on="0"/>
        <pt x="670" y="1264" on="1"/>
        <pt x="766" y="1264" on="1"/>
        <pt x="807" y="1264" on="0"/>
        <pt x="791" y="1229" on="1"/>
        <pt x="487" y="203" on="1"/>
      </contour>
    </TTGlyph>
    <TTGlyph name="T.alt" xMin="238" yMin="-8" xMax="1862" yMax="1358">
      <contour>
        <pt x="1192" y="1237" on="1"/>
        <pt x="1200" y="1264" on="0"/>
        <pt x="1225" y="1264" on="1"/>
        <pt x="1499" y="1257" on="1"/>
        <pt x="1690" y="1253" on="0"/>
        <pt x="1690" y="1110" on="1"/>
        <pt x="1689" y="1061" on="0"/>
        <pt x="1673" y="1008" on="1"/>
        <pt x="1667" y="993" on="0"/>
        <pt x="1768" y="992" on="0"/>
        <pt x="1772" y="1008" on="1"/>
        <pt x="1862" y="1311" on="1"/>
        <pt x="1862" y="1358" on="0"/>
        <pt x="1796" y="1358" on="1"/>
        <pt x="1722" y="1358" on="0"/>
        <pt x="1253" y="1352" on="0"/>
        <pt x="981" y="1352" on="0"/>
        <pt x="501" y="1358" on="0"/>
        <pt x="401" y="1358" on="1"/>
        <pt x="348" y="1358" on="0"/>
        <pt x="340" y="1331" on="1"/>
        <pt x="244" y="1008" on="1"/>
        <pt x="238" y="991" on="0"/>
        <pt x="340" y="992" on="0"/>
        <pt x="344" y="1008" on="1"/>
        <pt x="414" y="1251" on="0"/>
        <pt x="670" y="1257" on="1"/>
        <pt x="932" y="1264" on="1"/>
        <pt x="961" y="1263" on="0"/>
        <pt x="961" y="1243" on="1"/>
        <pt x="958" y="1239" on="0"/>
        <pt x="956" y="1231" on="1"/>
        <pt x="655" y="203" on="1"/>
        <pt x="633" y="127" on="0"/>
        <pt x="537" y="86" on="0"/>
        <pt x="449" y="86" on="1"/>
        <pt x="436" y="86" on="0"/>
        <pt x="416" y="20" on="0"/>
        <pt x="416" y="-8" on="0"/>
        <pt x="424" y="-8" on="1"/>
        <pt x="500" y="0" on="0"/>
        <pt x="928" y="0" on="0"/>
        <pt x="1006" y="-8" on="1"/>
        <pt x="1020" y="-8" on="0"/>
        <pt x="1036" y="55" on="0"/>
        <pt x="1036" y="86" on="0"/>
        <pt x="1028" y="86" on="1"/>
        <pt x="881" y="86" on="0"/>
        <pt x="881" y="162" on="1"/>
        <pt x="883" y="178" on="0"/>
        <pt x="889" y="203" on="1"/>
      </contour>
    </TTGlyph>
    <TTGlyph name="Tcaron" xMin="238" yMin="-6" xMax="1544" yMax="1819">
      <component glyphName="caron.case" x="287" y="0" flags="0x0"/>
      <component glyphName="T" x="0" y="0" flags="0x0"/>
    </TTGlyph>
    <TTGlyph name="Thorn" xMin="-150" yMin="-520" xMax="1278" yMax="1384">
      <contour>
        <pt x="59" y="-201" on="1"/>
        <pt x="39" y="-269" on="0"/>
        <pt x="-51" y="-357" on="0"/>
        <pt x="-141" y="-414" on="1"/>
        <pt x="-150" y="-420" on="0"/>
        <pt x="-150" y="-449" on="0"/>
        <pt x="-102" y="-520" on="0"/>
        <pt x="-84" y="-520" on="1"/>
        <pt x="-76" y="-520" on="1"/>
        <pt x="33" y="-469" on="0"/>
        <pt x="260" y="-315" on="0"/>
        <pt x="276" y="-260" on="1"/>
        <pt x="334" y="-66" on="1"/>
        <pt x="346" y="-25" on="0"/>
        <pt x="383" y="-23" on="1"/>
        <pt x="580" y="-10" on="0"/>
        <pt x="1083" y="371" on="0"/>
        <pt x="1278" y="793" on="0"/>
        <pt x="1278" y="975" on="1"/>
        <pt x="1277" y="1188" on="0"/>
        <pt x="1171" y="1294" on="1"/>
        <pt x="1134" y="1329" on="0"/>
        <pt x="1081" y="1329" on="1"/>
        <pt x="999" y="1329" on="0"/>
        <pt x="790" y="1184" on="0"/>
        <pt x="692" y="1135" on="1"/>
        <pt x="721" y="1227" on="0"/>
        <pt x="760" y="1329" on="0"/>
        <pt x="760" y="1352" on="1"/>
        <pt x="760" y="1384" on="0"/>
        <pt x="723" y="1384" on="1"/>
        <pt x="694" y="1382" on="0"/>
        <pt x="647" y="1368" on="1"/>
        <pt x="487" y="1319" on="0"/>
        <pt x="342" y="1319" on="1"/>
        <pt x="330" y="1319" on="0"/>
        <pt x="303" y="1225" on="0"/>
        <pt x="315" y="1225" on="1"/>
        <pt x="453" y="1225" on="0"/>
        <pt x="453" y="1149" on="1"/>
        <pt x="452" y="1123" on="0"/>
        <pt x="442" y="1090" on="1"/>
        <pt x="59" y="-201" on="1"/>
      </contour>
      <contour>
        <pt x="643" y="981" on="1"/>
        <pt x="657" y="1024" on="0"/>
        <pt x="694" y="1044" on="1"/>
        <pt x="809" y="1113" on="0"/>
        <pt x="899" y="1176" on="1"/>
        <pt x="908" y="1180" on="0"/>
        <pt x="924" y="1180" on="1"/>
        <pt x="938" y="1179" on="0"/>
        <pt x="952" y="1163" on="1"/>
        <pt x="1038" y="1061" on="0"/>
        <pt x="1038" y="901" on="1"/>
        <pt x="1040" y="735" on="0"/>
        <pt x="889" y="387" on="0"/>
        <pt x="588" y="117" on="0"/>
        <pt x="428" y="76" on="1"/>
        <pt x="418" y="74" on="0"/>
        <pt x="410" y="74" on="1"/>
        <pt x="385" y="74" on="0"/>
        <pt x="385" y="90" on="1"/>
        <pt x="385" y="103" on="0"/>
        <pt x="389" y="121" on="1"/>
      </contour>
    </TTGlyph>
    <TTGlyph name="Thorn.nordic" xMin="-25" yMin="-6" xMax="1282" yMax="1364">
      <contour>
        <pt x="1020" y="762" on="1"/>
        <pt x="1020" y="592" on="0"/>
        <pt x="874" y="475" on="1"/>
        <pt x="764" y="387" on="0"/>
        <pt x="598" y="387" on="1"/>
        <pt x="557" y="387" on="0"/>
        <pt x="539" y="391" on="1"/>
        <pt x="508" y="397" on="0"/>
        <pt x="508" y="422" on="1"/>
        <pt x="508" y="434" on="0"/>
        <pt x="510" y="440" on="1"/>
        <pt x="662" y="971" on="1"/>
        <pt x="666" y="981" on="0"/>
        <pt x="694" y="989" on="0"/>
        <pt x="772" y="989" on="1"/>
        <pt x="893" y="989" on="0"/>
        <pt x="948" y="932" on="1"/>
        <pt x="1020" y="877" on="0"/>
        <pt x="1020" y="762" on="1"/>
      </contour>
      <contour>
        <pt x="1282" y="774" on="1"/>
        <pt x="1282" y="889" on="0"/>
        <pt x="1194" y="971" on="1"/>
        <pt x="1085" y="1069" on="0"/>
        <pt x="866" y="1069" on="1"/>
        <pt x="762" y="1069" on="0"/>
        <pt x="688" y="1067" on="1"/>
        <pt x="715" y="1153" on="1"/>
        <pt x="735" y="1222" on="0"/>
        <pt x="784" y="1249" on="1"/>
        <pt x="821" y="1270" on="0"/>
        <pt x="915" y="1270" on="1"/>
        <pt x="928" y="1274" on="0"/>
        <pt x="932" y="1282" on="1"/>
        <pt x="942" y="1295" on="0"/>
        <pt x="946" y="1313" on="1"/>
        <pt x="950" y="1330" on="0"/>
        <pt x="950" y="1350" on="1"/>
        <pt x="948" y="1364" on="0"/>
        <pt x="942" y="1364" on="1"/>
        <pt x="884" y="1364" on="0"/>
        <pt x="651" y="1358" on="1"/>
        <pt x="613" y="1358" on="0"/>
        <pt x="373" y="1364" on="1"/>
        <pt x="356" y="1364" on="0"/>
        <pt x="336" y="1270" on="0"/>
        <pt x="346" y="1270" on="1"/>
        <pt x="424" y="1270" on="0"/>
        <pt x="485" y="1241" on="0"/>
        <pt x="485" y="1204" on="1"/>
        <pt x="485" y="1186" on="0"/>
        <pt x="477" y="1153" on="1"/>
        <pt x="207" y="203" on="1"/>
        <pt x="191" y="146" on="0"/>
        <pt x="156" y="119" on="1"/>
        <pt x="112" y="86" on="0"/>
        <pt x="6" y="86" on="1"/>
        <pt x="-12" y="86" on="0"/>
        <pt x="-18" y="39" on="1"/>
        <pt x="-25" y="6" on="1"/>
        <pt x="-24" y="-6" on="0"/>
        <pt x="-16" y="-6" on="1"/>
        <pt x="-6" y="-6" on="0"/>
        <pt x="287" y="0" on="1"/>
        <pt x="403" y="4" on="0"/>
        <pt x="559" y="-6" on="1"/>
        <pt x="565" y="-6" on="0"/>
        <pt x="571" y="4" on="1"/>
        <pt x="590" y="37" on="0"/>
        <pt x="590" y="70" on="1"/>
        <pt x="588" y="86" on="0"/>
        <pt x="582" y="86" on="1"/>
        <pt x="561" y="86" on="1"/>
        <pt x="461" y="86" on="0"/>
        <pt x="438" y="133" on="1"/>
        <pt x="434" y="143" on="0"/>
        <pt x="434" y="178" on="0"/>
        <pt x="440" y="203" on="1"/>
        <pt x="463" y="281" on="1"/>
        <pt x="467" y="295" on="0"/>
        <pt x="477" y="303" on="1"/>
        <pt x="484" y="307" on="0"/>
        <pt x="494" y="309" on="1"/>
        <pt x="502" y="311" on="0"/>
        <pt x="512" y="309" on="1"/>
        <pt x="549" y="305" on="0"/>
        <pt x="641" y="301" on="1"/>
        <pt x="696" y="299" on="0"/>
        <pt x="782" y="313" on="1"/>
        <pt x="1006" y="352" on="0"/>
        <pt x="1143" y="479" on="1"/>
        <pt x="1282" y="608" on="0"/>
        <pt x="1282" y="774" on="1"/>
      </contour>
    </TTGlyph>
    <TTGlyph name="U" xMin="242" yMin="-27" xMax="1778" yMax="1364">
      <contour>
        <pt x="1554" y="1153" on="1"/>
        <pt x="1571" y="1204" on="0"/>
        <pt x="1639" y="1270" on="0"/>
        <pt x="1745" y="1270" on="1"/>
        <pt x="1757" y="1270" on="0"/>
        <pt x="1778" y="1339" on="0"/>
        <pt x="1777" y="1364" on="0"/>
        <pt x="1769" y="1364" on="1"/>
        <pt x="1710" y="1358" on="0"/>
        <pt x="1357" y="1358" on="0"/>
        <pt x="1300" y="1364" on="1"/>
        <pt x="1288" y="1364" on="0"/>
        <pt x="1268" y="1296" on="0"/>
        <pt x="1268" y="1270" on="0"/>
        <pt x="1274" y="1270" on="1"/>
        <pt x="1419" y="1270" on="0"/>
        <pt x="1419" y="1196" on="1"/>
        <pt x="1419" y="1180" on="0"/>
        <pt x="1411" y="1153" on="1"/>
        <pt x="1217" y="506" on="1"/>
        <pt x="1141" y="254" on="0"/>
        <pt x="895" y="63" on="0"/>
        <pt x="719" y="63" on="1"/>
        <pt x="631" y="63" on="0"/>
        <pt x="469" y="152" on="0"/>
        <pt x="471" y="371" on="0"/>
        <pt x="563" y="678" on="1"/>
        <pt x="707" y="1153" on="1"/>
        <pt x="725" y="1217" on="0"/>
        <pt x="782" y="1270" on="0"/>
        <pt x="897" y="1270" on="1"/>
        <pt x="911" y="1270" on="0"/>
        <pt x="930" y="1337" on="0"/>
        <pt x="930" y="1364" on="0"/>
        <pt x="924" y="1364" on="1"/>
        <pt x="864" y="1358" on="0"/>
        <pt x="428" y="1358" on="0"/>
        <pt x="371" y="1364" on="1"/>
        <pt x="356" y="1364" on="0"/>
        <pt x="338" y="1298" on="0"/>
        <pt x="338" y="1270" on="0"/>
        <pt x="346" y="1270" on="1"/>
        <pt x="422" y="1270" on="0"/>
        <pt x="481" y="1239" on="0"/>
        <pt x="481" y="1212" on="1"/>
        <pt x="481" y="1188" on="0"/>
        <pt x="471" y="1155" on="1"/>
        <pt x="291" y="555" on="1"/>
        <pt x="242" y="391" on="0"/>
        <pt x="242" y="262" on="1"/>
        <pt x="242" y="127" on="0"/>
        <pt x="443" y="-27" on="0"/>
        <pt x="664" y="-27" on="1"/>
        <pt x="905" y="-27" on="0"/>
        <pt x="1188" y="162" on="0"/>
        <pt x="1327" y="405" on="0"/>
        <pt x="1468" y="870" on="1"/>
      </contour>
    </TTGlyph>
    <TTGlyph name="Uacute" xMin="242" yMin="-27" xMax="1778" yMax="1767">
      <component glyphName="acute.case" x="319" y="0" flags="0x0"/>
      <component glyphName="U" x="0" y="0" flags="0x0"/>
    </TTGlyph>
    <TTGlyph name="Ubreve" xMin="242" yMin="-27" xMax="1778" yMax="1800">
      <component glyphName="breve" x="752" y="465" flags="0x4"/>
      <component glyphName="U" x="0" y="0" flags="0x0"/>
    </TTGlyph>
    <TTGlyph name="Ucircumflex" xMin="242" yMin="-27" xMax="1778" yMax="1820">
      <component glyphName="circumflex.case" x="424" y="0" flags="0x0"/>
      <component glyphName="U" x="0" y="0" flags="0x0"/>
    </TTGlyph>
    <TTGlyph name="Udieresis" xMin="242" yMin="-27" xMax="1778" yMax="1751">
      <component glyphName="dieresis.case" x="399" y="0" flags="0x0"/>
      <component glyphName="U" x="0" y="0" flags="0x0"/>
    </TTGlyph>
    <TTGlyph name="Ugrave" xMin="242" yMin="-27" xMax="1778" yMax="1767">
      <component glyphName="grave.case" x="307" y="0" flags="0x0"/>
      <component glyphName="U" x="0" y="0" flags="0x0"/>
    </TTGlyph>
    <TTGlyph name="Uhungarumlaut" xMin="242" yMin="-27" xMax="1778" yMax="1767">
      <component glyphName="hungarumlaut.case" x="643" y="0" flags="0x0"/>
      <component glyphName="U" x="0" y="0" flags="0x0"/>
    </TTGlyph>
    <TTGlyph name="Umacron" xMin="242" yMin="-27" xMax="1778" yMax="1669">
      <component glyphName="macron.case" x="412" y="0" flags="0x0"/>
      <component glyphName="U" x="0" y="0" flags="0x0"/>
    </TTGlyph>
    <TTGlyph name="Uogonek" xMin="242" yMin="-488" xMax="1778" yMax="1364">
      <contour>
        <pt x="1554" y="1153" on="1"/>
        <pt x="1571" y="1204" on="0"/>
        <pt x="1639" y="1270" on="0"/>
        <pt x="1745" y="1270" on="1"/>
        <pt x="1757" y="1270" on="0"/>
        <pt x="1778" y="1339" on="0"/>
        <pt x="1777" y="1364" on="0"/>
        <pt x="1769" y="1364" on="1"/>
        <pt x="1710" y="1358" on="0"/>
        <pt x="1357" y="1358" on="0"/>
        <pt x="1300" y="1364" on="1"/>
        <pt x="1288" y="1364" on="0"/>
        <pt x="1268" y="1296" on="0"/>
        <pt x="1268" y="1270" on="0"/>
        <pt x="1274" y="1270" on="1"/>
        <pt x="1419" y="1270" on="0"/>
        <pt x="1419" y="1196" on="1"/>
        <pt x="1419" y="1180" on="0"/>
        <pt x="1411" y="1153" on="1"/>
        <pt x="1217" y="506" on="1"/>
        <pt x="1141" y="254" on="0"/>
        <pt x="895" y="63" on="0"/>
        <pt x="719" y="63" on="1"/>
        <pt x="631" y="63" on="0"/>
        <pt x="469" y="152" on="0"/>
        <pt x="471" y="371" on="0"/>
        <pt x="563" y="678" on="1"/>
        <pt x="707" y="1153" on="1"/>
        <pt x="725" y="1217" on="0"/>
        <pt x="782" y="1270" on="0"/>
        <pt x="897" y="1270" on="1"/>
        <pt x="911" y="1270" on="0"/>
        <pt x="930" y="1337" on="0"/>
        <pt x="930" y="1364" on="0"/>
        <pt x="924" y="1364" on="1"/>
        <pt x="864" y="1358" on="0"/>
        <pt x="428" y="1358" on="0"/>
        <pt x="371" y="1364" on="1"/>
        <pt x="356" y="1364" on="0"/>
        <pt x="338" y="1298" on="0"/>
        <pt x="338" y="1270" on="0"/>
        <pt x="346" y="1270" on="1"/>
        <pt x="422" y="1270" on="0"/>
        <pt x="481" y="1239" on="0"/>
        <pt x="481" y="1212" on="1"/>
        <pt x="481" y="1188" on="0"/>
        <pt x="471" y="1155" on="1"/>
        <pt x="291" y="555" on="1"/>
        <pt x="242" y="391" on="0"/>
        <pt x="242" y="262" on="1"/>
        <pt x="242" y="127" on="0"/>
        <pt x="443" y="-27" on="0"/>
        <pt x="664" y="-27" on="1"/>
        <pt x="727" y="-26" on="0"/>
        <pt x="784" y="-20" on="1"/>
        <pt x="532" y="-209" on="0"/>
        <pt x="532" y="-373" on="1"/>
        <pt x="532" y="-487" on="0"/>
        <pt x="838" y="-488" on="0"/>
        <pt x="944" y="-375" on="1"/>
        <pt x="954" y="-342" on="0"/>
        <pt x="936" y="-336" on="1"/>
        <pt x="884" y="-367" on="0"/>
        <pt x="823" y="-367" on="1"/>
        <pt x="727" y="-367" on="0"/>
        <pt x="727" y="-293" on="1"/>
        <pt x="729" y="-170" on="0"/>
        <pt x="952" y="18" on="1"/>
        <pt x="1004" y="39" on="0"/>
        <pt x="1047" y="68" on="1"/>
        <pt x="1188" y="162" on="0"/>
        <pt x="1327" y="405" on="0"/>
        <pt x="1468" y="870" on="1"/>
      </contour>
    </TTGlyph>
    <TTGlyph name="Uring" xMin="242" yMin="-27" xMax="1778" yMax="1933">
      <component glyphName="ring" x="788" y="465" flags="0x4"/>
      <component glyphName="U" x="0" y="0" flags="0x0"/>
    </TTGlyph>
    <TTGlyph name="Utilde" xMin="242" yMin="-27" xMax="1778" yMax="1710">
      <component glyphName="tilde.case" x="616" y="0" flags="0x0"/>
      <component glyphName="U" x="0" y="0" flags="0x0"/>
    </TTGlyph>
    <TTGlyph name="V" xMin="240" yMin="-39" xMax="1649" yMax="1364">
      <contour>
        <pt x="1012" y="657" on="1"/>
        <pt x="1231" y="972" on="0"/>
        <pt x="1407" y="1202" on="1"/>
        <pt x="1458" y="1270" on="0"/>
        <pt x="1614" y="1270" on="1"/>
        <pt x="1626" y="1270" on="0"/>
        <pt x="1649" y="1339" on="0"/>
        <pt x="1646" y="1364" on="0"/>
        <pt x="1640" y="1364" on="1"/>
        <pt x="1583" y="1358" on="0"/>
        <pt x="1245" y="1358" on="0"/>
        <pt x="1188" y="1364" on="1"/>
        <pt x="1176" y="1364" on="0"/>
        <pt x="1153" y="1298" on="0"/>
        <pt x="1153" y="1270" on="0"/>
        <pt x="1161" y="1270" on="1"/>
        <pt x="1249" y="1272" on="0"/>
        <pt x="1249" y="1231" on="1"/>
        <pt x="1249" y="1206" on="0"/>
        <pt x="1210" y="1147" on="1"/>
        <pt x="1104" y="978" on="0"/>
        <pt x="973" y="788" on="1"/>
        <pt x="684" y="375" on="1"/>
        <pt x="674" y="358" on="0"/>
        <pt x="666" y="358" on="1"/>
        <pt x="655" y="360" on="0"/>
        <pt x="655" y="383" on="1"/>
        <pt x="604" y="1153" on="1"/>
        <pt x="600" y="1217" on="0"/>
        <pt x="664" y="1270" on="0"/>
        <pt x="760" y="1270" on="1"/>
        <pt x="772" y="1270" on="0"/>
        <pt x="786" y="1331" on="0"/>
        <pt x="784" y="1364" on="0"/>
        <pt x="776" y="1364" on="1"/>
        <pt x="721" y="1358" on="0"/>
        <pt x="321" y="1358" on="0"/>
        <pt x="264" y="1364" on="1"/>
        <pt x="252" y="1364" on="0"/>
        <pt x="240" y="1298" on="0"/>
        <pt x="240" y="1270" on="0"/>
        <pt x="248" y="1270" on="1"/>
        <pt x="317" y="1270" on="0"/>
        <pt x="371" y="1231" on="0"/>
        <pt x="375" y="1153" on="1"/>
        <pt x="449" y="35" on="1"/>
        <pt x="455" y="-39" on="0"/>
        <pt x="498" y="-39" on="1"/>
        <pt x="527" y="-37" on="0"/>
        <pt x="543" y="-14" on="1"/>
        <pt x="1012" y="657" on="1"/>
      </contour>
    </TTGlyph>
    <TTGlyph name="W" xMin="219" yMin="-39" xMax="2308" yMax="1364">
      <contour>
        <pt x="1661" y="651" on="1"/>
        <pt x="1833" y="889" on="0"/>
        <pt x="2077" y="1198" on="1"/>
        <pt x="2132" y="1270" on="0"/>
        <pt x="2273" y="1270" on="1"/>
        <pt x="2288" y="1270" on="0"/>
        <pt x="2308" y="1339" on="0"/>
        <pt x="2308" y="1364" on="0"/>
        <pt x="2300" y="1364" on="1"/>
        <pt x="2243" y="1358" on="0"/>
        <pt x="1941" y="1358" on="0"/>
        <pt x="1884" y="1364" on="1"/>
        <pt x="1874" y="1364" on="0"/>
        <pt x="1851" y="1294" on="0"/>
        <pt x="1852" y="1270" on="0"/>
        <pt x="1858" y="1270" on="1"/>
        <pt x="1944" y="1270" on="0"/>
        <pt x="1944" y="1237" on="1"/>
        <pt x="1941" y="1210" on="0"/>
        <pt x="1898" y="1147" on="1"/>
        <pt x="1446" y="512" on="0"/>
        <pt x="1317" y="350" on="1"/>
        <pt x="1298" y="328" on="0"/>
        <pt x="1280" y="328" on="1"/>
        <pt x="1266" y="327" on="0"/>
        <pt x="1264" y="350" on="1"/>
        <pt x="1212" y="678" on="1"/>
        <pt x="1208" y="707" on="0"/>
        <pt x="1208" y="776" on="0"/>
        <pt x="1239" y="819" on="1"/>
        <pt x="1528" y="1210" on="1"/>
        <pt x="1571" y="1270" on="0"/>
        <pt x="1729" y="1270" on="1"/>
        <pt x="1741" y="1270" on="0"/>
        <pt x="1761" y="1339" on="0"/>
        <pt x="1761" y="1364" on="0"/>
        <pt x="1755" y="1364" on="1"/>
        <pt x="1698" y="1358" on="0"/>
        <pt x="1405" y="1358" on="0"/>
        <pt x="1348" y="1364" on="1"/>
        <pt x="1333" y="1364" on="0"/>
        <pt x="1313" y="1298" on="0"/>
        <pt x="1315" y="1270" on="0"/>
        <pt x="1323" y="1270" on="1"/>
        <pt x="1399" y="1270" on="0"/>
        <pt x="1399" y="1221" on="0"/>
        <pt x="1346" y="1147" on="1"/>
        <pt x="1210" y="963" on="1"/>
        <pt x="1190" y="936" on="0"/>
        <pt x="1182" y="936" on="1"/>
        <pt x="1173" y="934" on="0"/>
        <pt x="1169" y="963" on="1"/>
        <pt x="1141" y="1153" on="1"/>
        <pt x="1135" y="1190" on="0"/>
        <pt x="1135" y="1221" on="1"/>
        <pt x="1135" y="1270" on="0"/>
        <pt x="1237" y="1270" on="1"/>
        <pt x="1247" y="1270" on="0"/>
        <pt x="1262" y="1331" on="0"/>
        <pt x="1261" y="1364" on="0"/>
        <pt x="1253" y="1364" on="1"/>
        <pt x="1196" y="1358" on="0"/>
        <pt x="872" y="1358" on="0"/>
        <pt x="815" y="1364" on="1"/>
        <pt x="805" y="1364" on="0"/>
        <pt x="788" y="1305" on="0"/>
        <pt x="791" y="1270" on="0"/>
        <pt x="799" y="1270" on="1"/>
        <pt x="854" y="1270" on="0"/>
        <pt x="899" y="1227" on="0"/>
        <pt x="909" y="1153" on="1"/>
        <pt x="973" y="748" on="1"/>
        <pt x="977" y="717" on="0"/>
        <pt x="977" y="670" on="1"/>
        <pt x="977" y="643" on="0"/>
        <pt x="936" y="588" on="1"/>
        <pt x="762" y="350" on="1"/>
        <pt x="745" y="328" on="0"/>
        <pt x="729" y="328" on="1"/>
        <pt x="711" y="327" on="0"/>
        <pt x="709" y="350" on="1"/>
        <pt x="586" y="1153" on="1"/>
        <pt x="580" y="1192" on="0"/>
        <pt x="580" y="1223" on="1"/>
        <pt x="580" y="1270" on="0"/>
        <pt x="674" y="1270" on="1"/>
        <pt x="684" y="1270" on="0"/>
        <pt x="700" y="1327" on="0"/>
        <pt x="700" y="1364" on="0"/>
        <pt x="690" y="1364" on="1"/>
        <pt x="635" y="1358" on="0"/>
        <pt x="303" y="1358" on="0"/>
        <pt x="246" y="1364" on="1"/>
        <pt x="233" y="1364" on="0"/>
        <pt x="219" y="1298" on="0"/>
        <pt x="221" y="1270" on="0"/>
        <pt x="229" y="1270" on="1"/>
        <pt x="299" y="1270" on="0"/>
        <pt x="342" y="1231" on="0"/>
        <pt x="354" y="1153" on="1"/>
        <pt x="524" y="35" on="1"/>
        <pt x="537" y="-39" on="0"/>
        <pt x="578" y="-39" on="1"/>
        <pt x="604" y="-39" on="0"/>
        <pt x="631" y="-2" on="1"/>
        <pt x="977" y="467" on="1"/>
        <pt x="995" y="492" on="0"/>
        <pt x="1001" y="492" on="1"/>
        <pt x="1010" y="492" on="0"/>
        <pt x="1014" y="467" on="1"/>
        <pt x="1079" y="35" on="1"/>
        <pt x="1089" y="-39" on="0"/>
        <pt x="1130" y="-39" on="1"/>
        <pt x="1157" y="-39" on="0"/>
        <pt x="1184" y="-2" on="1"/>
        <pt x="1661" y="651" on="1"/>
      </contour>
    </TTGlyph>
    <TTGlyph name="Wcircumflex" xMin="219" yMin="-39" xMax="2308" yMax="1820">
      <component glyphName="circumflex.case" x="588" y="0" flags="0x0"/>
      <component glyphName="W" x="0" y="0" flags="0x0"/>
    </TTGlyph>
    <TTGlyph name="X" xMin="-127" yMin="-8" xMax="1649" yMax="1364">
      <contour>
        <pt x="172" y="180" on="1"/>
        <pt x="113" y="125" on="0"/>
        <pt x="6" y="86" on="0"/>
        <pt x="-96" y="86" on="1"/>
        <pt x="-111" y="86" on="0"/>
        <pt x="-127" y="18" on="0"/>
        <pt x="-127" y="-8" on="0"/>
        <pt x="-119" y="-8" on="1"/>
        <pt x="-43" y="0" on="0"/>
        <pt x="291" y="0" on="0"/>
        <pt x="369" y="-8" on="1"/>
        <pt x="383" y="-8" on="0"/>
        <pt x="403" y="86" on="0"/>
        <pt x="389" y="86" on="1"/>
        <pt x="299" y="86" on="0"/>
        <pt x="299" y="123" on="1"/>
        <pt x="299" y="170" on="0"/>
        <pt x="432" y="297" on="1"/>
        <pt x="682" y="535" on="1"/>
        <pt x="703" y="555" on="0"/>
        <pt x="715" y="555" on="1"/>
        <pt x="729" y="555" on="0"/>
        <pt x="737" y="535" on="1"/>
        <pt x="872" y="203" on="1"/>
        <pt x="891" y="157" on="0"/>
        <pt x="891" y="137" on="1"/>
        <pt x="891" y="86" on="0"/>
        <pt x="766" y="86" on="1"/>
        <pt x="754" y="86" on="0"/>
        <pt x="731" y="-8" on="0"/>
        <pt x="745" y="-8" on="1"/>
        <pt x="821" y="0" on="0"/>
        <pt x="1202" y="0" on="0"/>
        <pt x="1280" y="-8" on="1"/>
        <pt x="1294" y="-8" on="0"/>
        <pt x="1312" y="86" on="0"/>
        <pt x="1300" y="86" on="1"/>
        <pt x="1200" y="86" on="0"/>
        <pt x="1127" y="133" on="0"/>
        <pt x="1094" y="219" on="1"/>
        <pt x="909" y="711" on="1"/>
        <pt x="903" y="723" on="0"/>
        <pt x="903" y="737" on="1"/>
        <pt x="904" y="754" on="0"/>
        <pt x="924" y="774" on="1"/>
        <pt x="1249" y="1079" on="1"/>
        <pt x="1384" y="1204" on="0"/>
        <pt x="1507" y="1270" on="0"/>
        <pt x="1616" y="1270" on="1"/>
        <pt x="1630" y="1270" on="0"/>
        <pt x="1649" y="1339" on="0"/>
        <pt x="1646" y="1364" on="0"/>
        <pt x="1640" y="1364" on="1"/>
        <pt x="1583" y="1358" on="0"/>
        <pt x="1263" y="1358" on="0"/>
        <pt x="1206" y="1364" on="1"/>
        <pt x="1192" y="1364" on="0"/>
        <pt x="1170" y="1270" on="0"/>
        <pt x="1182" y="1270" on="1"/>
        <pt x="1249" y="1270" on="0"/>
        <pt x="1249" y="1245" on="1"/>
        <pt x="1250" y="1217" on="0"/>
        <pt x="1180" y="1151" on="1"/>
        <pt x="885" y="870" on="1"/>
        <pt x="870" y="856" on="0"/>
        <pt x="860" y="856" on="1"/>
        <pt x="848" y="856" on="0"/>
        <pt x="842" y="872" on="1"/>
        <pt x="739" y="1151" on="1"/>
        <pt x="727" y="1179" on="0"/>
        <pt x="727" y="1204" on="1"/>
        <pt x="727" y="1270" on="0"/>
        <pt x="872" y="1270" on="1"/>
        <pt x="887" y="1270" on="0"/>
        <pt x="909" y="1364" on="0"/>
        <pt x="895" y="1364" on="1"/>
        <pt x="838" y="1358" on="0"/>
        <pt x="372" y="1358" on="0"/>
        <pt x="315" y="1364" on="1"/>
        <pt x="301" y="1364" on="0"/>
        <pt x="285" y="1270" on="0"/>
        <pt x="297" y="1270" on="1"/>
        <pt x="383" y="1270" on="0"/>
        <pt x="465" y="1204" on="0"/>
        <pt x="496" y="1130" on="1"/>
        <pt x="672" y="696" on="1"/>
        <pt x="678" y="684" on="0"/>
        <pt x="678" y="674" on="1"/>
        <pt x="678" y="655" on="0"/>
        <pt x="664" y="643" on="1"/>
        <pt x="172" y="180" on="1"/>
      </contour>
    </TTGlyph>
    <TTGlyph name="Y" xMin="199" yMin="-8" xMax="1587" yMax="1364">
      <contour>
        <pt x="434" y="217" on="1"/>
        <pt x="409" y="133" on="0"/>
        <pt x="340" y="86" on="0"/>
        <pt x="256" y="86" on="1"/>
        <pt x="242" y="86" on="0"/>
        <pt x="219" y="-8" on="0"/>
        <pt x="231" y="-8" on="1"/>
        <pt x="307" y="0" on="0"/>
        <pt x="682" y="0" on="0"/>
        <pt x="758" y="-8" on="1"/>
        <pt x="772" y="-8" on="0"/>
        <pt x="796" y="86" on="0"/>
        <pt x="782" y="86" on="1"/>
        <pt x="657" y="87" on="0"/>
        <pt x="657" y="150" on="1"/>
        <pt x="658" y="174" on="0"/>
        <pt x="666" y="201" on="1"/>
        <pt x="754" y="508" on="1"/>
        <pt x="780" y="600" on="0"/>
        <pt x="819" y="641" on="1"/>
        <pt x="1198" y="1044" on="1"/>
        <pt x="1343" y="1200" on="0"/>
        <pt x="1452" y="1270" on="0"/>
        <pt x="1554" y="1270" on="1"/>
        <pt x="1571" y="1270" on="0"/>
        <pt x="1585" y="1337" on="0"/>
        <pt x="1587" y="1364" on="0"/>
        <pt x="1579" y="1364" on="1"/>
        <pt x="1520" y="1358" on="0"/>
        <pt x="1208" y="1358" on="0"/>
        <pt x="1151" y="1364" on="1"/>
        <pt x="1139" y="1364" on="0"/>
        <pt x="1112" y="1270" on="0"/>
        <pt x="1126" y="1270" on="1"/>
        <pt x="1221" y="1270" on="0"/>
        <pt x="1221" y="1235" on="1"/>
        <pt x="1221" y="1208" on="0"/>
        <pt x="1174" y="1157" on="1"/>
        <pt x="786" y="752" on="1"/>
        <pt x="768" y="731" on="0"/>
        <pt x="741" y="731" on="0"/>
        <pt x="733" y="754" on="1"/>
        <pt x="602" y="1157" on="1"/>
        <pt x="592" y="1191" on="0"/>
        <pt x="592" y="1214" on="1"/>
        <pt x="592" y="1270" on="0"/>
        <pt x="713" y="1270" on="1"/>
        <pt x="725" y="1270" on="0"/>
        <pt x="749" y="1364" on="0"/>
        <pt x="733" y="1364" on="1"/>
        <pt x="676" y="1358" on="0"/>
        <pt x="284" y="1358" on="0"/>
        <pt x="227" y="1364" on="1"/>
        <pt x="213" y="1364" on="0"/>
        <pt x="199" y="1296" on="0"/>
        <pt x="199" y="1270" on="0"/>
        <pt x="207" y="1270" on="1"/>
        <pt x="276" y="1270" on="0"/>
        <pt x="338" y="1221" on="0"/>
        <pt x="365" y="1139" on="1"/>
        <pt x="516" y="678" on="1"/>
        <pt x="537" y="621" on="0"/>
        <pt x="537" y="557" on="0"/>
        <pt x="512" y="473" on="1"/>
        <pt x="434" y="217" on="1"/>
      </contour>
    </TTGlyph>
    <TTGlyph name="Yacute" xMin="199" yMin="-8" xMax="1587" yMax="1767">
      <component glyphName="acute.case" x="182" y="0" flags="0x0"/>
      <component glyphName="Y" x="0" y="0" flags="0x0"/>
    </TTGlyph>
    <TTGlyph name="Ycircumflex" xMin="199" yMin="-8" xMax="1587" yMax="1820">
      <component glyphName="circumflex.case" x="246" y="0" flags="0x0"/>
      <component glyphName="Y" x="0" y="0" flags="0x0"/>
    </TTGlyph>
    <TTGlyph name="Ydieresis" xMin="199" yMin="-8" xMax="1587" yMax="1772">
      <component glyphName="dieresis" x="395" y="510" flags="0x4"/>
      <component glyphName="Y" x="0" y="0" flags="0x0"/>
    </TTGlyph>
    <TTGlyph name="Z" xMin="-31" yMin="-35" xMax="1563" yMax="1366">
      <contour>
        <pt x="-10" y="102" on="1"/>
        <pt x="-30" y="82" on="0"/>
        <pt x="-31" y="57" on="1"/>
        <pt x="-30" y="0" on="0"/>
        <pt x="23" y="0" on="1"/>
        <pt x="414" y="0" on="1"/>
        <pt x="831" y="0" on="0"/>
        <pt x="1007" y="-13" on="0"/>
        <pt x="1122" y="-33" on="1"/>
        <pt x="1145" y="-35" on="0"/>
        <pt x="1157" y="4" on="1"/>
        <pt x="1177" y="61" on="0"/>
        <pt x="1206" y="147" on="1"/>
        <pt x="1235" y="232" on="0"/>
        <pt x="1294" y="334" on="1"/>
        <pt x="1303" y="346" on="0"/>
        <pt x="1243" y="366" on="0"/>
        <pt x="1235" y="352" on="1"/>
        <pt x="1200" y="293" on="0"/>
        <pt x="1141" y="213" on="1"/>
        <pt x="1054" y="102" on="0"/>
        <pt x="952" y="98" on="1"/>
        <pt x="688" y="86" on="0"/>
        <pt x="356" y="86" on="1"/>
        <pt x="330" y="86" on="0"/>
        <pt x="322" y="115" on="0"/>
        <pt x="338" y="129" on="1"/>
        <pt x="1536" y="1262" on="1"/>
        <pt x="1563" y="1286" on="0"/>
        <pt x="1563" y="1317" on="1"/>
        <pt x="1562" y="1360" on="0"/>
        <pt x="1513" y="1360" on="1"/>
        <pt x="1110" y="1352" on="1"/>
        <pt x="569" y="1352" on="0"/>
        <pt x="477" y="1366" on="0"/>
        <pt x="461" y="1366" on="1"/>
        <pt x="411" y="1366" on="0"/>
        <pt x="399" y="1327" on="1"/>
        <pt x="348" y="1167" on="0"/>
        <pt x="274" y="989" on="1"/>
        <pt x="266" y="971" on="0"/>
        <pt x="328" y="961" on="0"/>
        <pt x="334" y="977" on="1"/>
        <pt x="354" y="1024" on="0"/>
        <pt x="502" y="1204" on="0"/>
        <pt x="600" y="1272" on="0"/>
        <pt x="649" y="1272" on="1"/>
        <pt x="1180" y="1272" on="1"/>
        <pt x="1206" y="1272" on="0"/>
        <pt x="1210" y="1243" on="0"/>
        <pt x="1192" y="1229" on="1"/>
        <pt x="-10" y="102" on="1"/>
      </contour>
    </TTGlyph>
    <TTGlyph name="Zacute" xMin="-31" yMin="-35" xMax="1563" yMax="1767">
      <component glyphName="acute.case" x="195" y="0" flags="0x0"/>
      <component glyphName="Z" x="0" y="0" flags="0x0"/>
    </TTGlyph>
    <TTGlyph name="Zcaron" xMin="-31" yMin="-35" xMax="1563" yMax="1819">
      <component glyphName="caron.case" x="350" y="0" flags="0x0"/>
      <component glyphName="Z" x="0" y="0" flags="0x0"/>
    </TTGlyph>
    <TTGlyph name="Zdotaccent" xMin="-31" yMin="-35" xMax="1563" yMax="1792">
      <component glyphName="dotaccent" x="725" y="465" flags="0x4"/>
      <component glyphName="Z" x="0" y="0" flags="0x0"/>
    </TTGlyph>
    <TTGlyph name="a" xMin="63" yMin="-27" xMax="952" yMax="885">
      <contour>
        <pt x="948" y="831" on="1"/>
        <pt x="952" y="844" on="0"/>
        <pt x="952" y="850" on="1"/>
        <pt x="952" y="885" on="0"/>
        <pt x="776" y="885" on="0"/>
        <pt x="768" y="862" on="1"/>
        <pt x="748" y="813" on="1"/>
        <pt x="702" y="844" on="0"/>
        <pt x="641" y="844" on="1"/>
        <pt x="434" y="844" on="0"/>
        <pt x="63" y="375" on="0"/>
        <pt x="63" y="166" on="1"/>
        <pt x="63" y="82" on="0"/>
        <pt x="149" y="-27" on="0"/>
        <pt x="223" y="-27" on="1"/>
        <pt x="361" y="-27" on="0"/>
        <pt x="584" y="221" on="1"/>
        <pt x="596" y="215" on="1"/>
        <pt x="569" y="156" on="1"/>
        <pt x="553" y="112" on="0"/>
        <pt x="553" y="63" on="1"/>
        <pt x="551" y="-27" on="0"/>
        <pt x="631" y="-27" on="1"/>
        <pt x="686" y="-27" on="0"/>
        <pt x="838" y="68" on="0"/>
        <pt x="930" y="158" on="1"/>
        <pt x="934" y="164" on="0"/>
        <pt x="934" y="168" on="1"/>
        <pt x="933" y="179" on="0"/>
        <pt x="913" y="195" on="1"/>
        <pt x="886" y="219" on="0"/>
        <pt x="874" y="207" on="1"/>
        <pt x="809" y="141" on="0"/>
        <pt x="772" y="141" on="1"/>
        <pt x="750" y="142" on="0"/>
        <pt x="750" y="162" on="1"/>
        <pt x="750" y="170" on="0"/>
        <pt x="752" y="180" on="1"/>
      </contour>
      <contour>
        <pt x="666" y="553" on="1"/>
        <pt x="639" y="465" on="0"/>
        <pt x="532" y="272" on="0"/>
        <pt x="383" y="111" on="0"/>
        <pt x="332" y="111" on="1"/>
        <pt x="285" y="110" on="0"/>
        <pt x="285" y="227" on="1"/>
        <pt x="285" y="383" on="0"/>
        <pt x="505" y="760" on="0"/>
        <pt x="614" y="760" on="1"/>
        <pt x="682" y="760" on="0"/>
        <pt x="715" y="713" on="1"/>
        <pt x="666" y="553" on="1"/>
      </contour>
    </TTGlyph>
    <TTGlyph name="aacute" xMin="63" yMin="-27" xMax="952" yMax="1333">
      <component glyphName="a" x="0" y="0" flags="0x0"/>
      <component glyphName="acutecomb" x="855" y="0" flags="0x0"/>
    </TTGlyph>
    <TTGlyph name="abreve" xMin="63" yMin="-27" xMax="1033" yMax="1335">
      <component glyphName="a" x="0" y="0" flags="0x0"/>
      <component glyphName="uni0306" x="1117" y="0" flags="0x0"/>
    </TTGlyph>
    <TTGlyph name="acircumflex" xMin="63" yMin="-27" xMax="957" yMax="1407">
      <component glyphName="a" x="0" y="0" flags="0x0"/>
      <component glyphName="uni0302" x="1199" y="0" flags="0x0"/>
    </TTGlyph>
    <TTGlyph name="acute" xMin="315" yMin="928" xMax="711" yMax="1333">
      <contour>
        <pt x="680" y="1219" on="1"/>
        <pt x="711" y="1248" on="0"/>
        <pt x="668" y="1290" on="1"/>
        <pt x="629" y="1333" on="0"/>
        <pt x="584" y="1333" on="1"/>
        <pt x="559" y="1333" on="0"/>
        <pt x="547" y="1315" on="1"/>
        <pt x="338" y="1001" on="1"/>
        <pt x="315" y="971" on="0"/>
        <pt x="331" y="930" on="0"/>
        <pt x="356" y="930" on="1"/>
        <pt x="377" y="928" on="0"/>
        <pt x="397" y="946" on="1"/>
        <pt x="680" y="1219" on="1"/>
      </contour>
    </TTGlyph>
    <TTGlyph name="acute.case" xMin="641" yMin="1475" xMax="1098" yMax="1767">
      <contour>
        <pt x="1071" y="1620" on="1"/>
        <pt x="1096" y="1628" on="0"/>
        <pt x="1098" y="1655" on="1"/>
        <pt x="1098" y="1675" on="0"/>
        <pt x="1073" y="1731" on="0"/>
        <pt x="1028" y="1767" on="0"/>
        <pt x="1010" y="1767" on="1"/>
        <pt x="997" y="1765" on="0"/>
        <pt x="987" y="1759" on="1"/>
        <pt x="672" y="1552" on="1"/>
        <pt x="641" y="1534" on="0"/>
        <pt x="641" y="1509" on="1"/>
        <pt x="641" y="1491" on="0"/>
        <pt x="670" y="1475" on="0"/>
        <pt x="684" y="1475" on="1"/>
        <pt x="695" y="1475" on="0"/>
        <pt x="707" y="1479" on="1"/>
        <pt x="1071" y="1620" on="1"/>
      </contour>
    </TTGlyph>
    <TTGlyph name="acutecomb" xMin="-344" yMin="928" xMax="52" yMax="1333">
      <component glyphName="acute" x="-659" y="0" flags="0x0"/>
    </TTGlyph>
    <TTGlyph name="acutecomb.case" xMin="-418" yMin="1475" xMax="39" yMax="1767">
      <component glyphName="acute.case" x="-1059" y="0" flags="0x0"/>
    </TTGlyph>
    <TTGlyph name="adieresis" xMin="63" yMin="-27" xMax="1037" yMax="1262">
      <component glyphName="a" x="0" y="0" flags="0x0"/>
      <component glyphName="uni0308" x="881" y="0" flags="0x0"/>
    </TTGlyph>
    <TTGlyph name="ae" xMin="37" yMin="-27" xMax="1110" yMax="852">
      <contour>
        <pt x="37" y="162" on="1"/>
        <pt x="37" y="82" on="0"/>
        <pt x="123" y="-27" on="0"/>
        <pt x="197" y="-27" on="1"/>
        <pt x="338" y="-26" on="0"/>
        <pt x="471" y="74" on="1"/>
        <pt x="500" y="23" on="0"/>
        <pt x="577" y="-27" on="0"/>
        <pt x="649" y="-27" on="1"/>
        <pt x="805" y="-27" on="0"/>
        <pt x="965" y="172" on="1"/>
        <pt x="973" y="184" on="0"/>
        <pt x="923" y="225" on="0"/>
        <pt x="913" y="215" on="1"/>
        <pt x="879" y="178" on="0"/>
        <pt x="768" y="104" on="0"/>
        <pt x="723" y="104" on="1"/>
        <pt x="674" y="104" on="0"/>
        <pt x="614" y="184" on="0"/>
        <pt x="614" y="252" on="1"/>
        <pt x="615" y="284" on="0"/>
        <pt x="625" y="356" on="1"/>
        <pt x="688" y="373" on="0"/>
        <pt x="815" y="418" on="0"/>
        <pt x="997" y="504" on="0"/>
        <pt x="1110" y="635" on="0"/>
        <pt x="1110" y="711" on="1"/>
        <pt x="1110" y="852" on="0"/>
        <pt x="940" y="852" on="1"/>
        <pt x="764" y="852" on="0"/>
        <pt x="342" y="657" on="0"/>
        <pt x="37" y="328" on="0"/>
        <pt x="37" y="162" on="1"/>
      </contour>
      <contour>
        <pt x="641" y="438" on="1"/>
        <pt x="668" y="555" on="0"/>
        <pt x="795" y="758" on="0"/>
        <pt x="852" y="758" on="1"/>
        <pt x="872" y="758" on="0"/>
        <pt x="899" y="727" on="0"/>
        <pt x="905" y="700" on="0"/>
        <pt x="905" y="688" on="1"/>
        <pt x="905" y="600" on="0"/>
        <pt x="731" y="465" on="0"/>
        <pt x="641" y="438" on="1"/>
      </contour>
      <contour>
        <pt x="258" y="195" on="1"/>
        <pt x="258" y="326" on="0"/>
        <pt x="494" y="631" on="0"/>
        <pt x="662" y="715" on="1"/>
        <pt x="670" y="707" on="1"/>
        <pt x="567" y="616" on="0"/>
        <pt x="410" y="340" on="0"/>
        <pt x="410" y="231" on="1"/>
        <pt x="410" y="198" on="0"/>
        <pt x="420" y="143" on="1"/>
        <pt x="358" y="104" on="0"/>
        <pt x="317" y="104" on="1"/>
        <pt x="289" y="104" on="0"/>
        <pt x="258" y="160" on="0"/>
        <pt x="258" y="195" on="1"/>
      </contour>
    </TTGlyph>
    <TTGlyph name="aeacute" xMin="37" yMin="-27" xMax="1110" yMax="1333">
      <component glyphName="ae" x="0" y="0" flags="0x0"/>
      <component glyphName="acutecomb" x="1054" y="0" flags="0x0"/>
    </TTGlyph>
    <TTGlyph name="agrave" xMin="63" yMin="-27" xMax="952" yMax="1333">
      <component glyphName="a" x="0" y="0" flags="0x0"/>
      <component glyphName="gravecomb" x="1081" y="0" flags="0x0"/>
    </TTGlyph>
    <TTGlyph name="amacron" xMin="63" yMin="-27" xMax="976" yMax="1161">
      <component glyphName="a" x="0" y="0" flags="0x0"/>
      <component glyphName="uni0304" x="867" y="0" flags="0x0"/>
    </TTGlyph>
    <TTGlyph name="ampersand" xMin="104" yMin="-29" xMax="1796" yMax="1573">
      <contour>
        <pt x="104" y="401" on="1"/>
        <pt x="104" y="194" on="0"/>
        <pt x="383" y="-29" on="0"/>
        <pt x="608" y="-29" on="1"/>
        <pt x="827" y="-29" on="0"/>
        <pt x="1163" y="213" on="0"/>
        <pt x="1323" y="526" on="0"/>
        <pt x="1323" y="678" on="1"/>
        <pt x="1323" y="723" on="0"/>
        <pt x="1313" y="780" on="1"/>
        <pt x="1397" y="702" on="0"/>
        <pt x="1434" y="655" on="1"/>
        <pt x="1460" y="625" on="0"/>
        <pt x="1485" y="625" on="1"/>
        <pt x="1509" y="625" on="0"/>
        <pt x="1593" y="659" on="0"/>
        <pt x="1616" y="668" on="0"/>
        <pt x="1698" y="686" on="0"/>
        <pt x="1731" y="700" on="0"/>
        <pt x="1778" y="731" on="0"/>
        <pt x="1796" y="787" on="0"/>
        <pt x="1796" y="834" on="1"/>
        <pt x="1796" y="881" on="0"/>
        <pt x="1739" y="973" on="0"/>
        <pt x="1694" y="973" on="1"/>
        <pt x="1649" y="973" on="0"/>
        <pt x="1581" y="928" on="0"/>
        <pt x="1581" y="887" on="1"/>
        <pt x="1581" y="866" on="0"/>
        <pt x="1612" y="815" on="0"/>
        <pt x="1611" y="737" on="0"/>
        <pt x="1591" y="737" on="1"/>
        <pt x="1573" y="737" on="0"/>
        <pt x="1530" y="803" on="1"/>
        <pt x="1413" y="985" on="0"/>
        <pt x="1253" y="985" on="1"/>
        <pt x="1116" y="985" on="0"/>
        <pt x="872" y="770" on="0"/>
        <pt x="872" y="651" on="1"/>
        <pt x="872" y="600" on="0"/>
        <pt x="946" y="537" on="0"/>
        <pt x="991" y="537" on="1"/>
        <pt x="1038" y="537" on="0"/>
        <pt x="1102" y="584" on="0"/>
        <pt x="1102" y="623" on="1"/>
        <pt x="1102" y="662" on="0"/>
        <pt x="1057" y="700" on="0"/>
        <pt x="1012" y="731" on="0"/>
        <pt x="1012" y="758" on="1"/>
        <pt x="1012" y="782" on="0"/>
        <pt x="1108" y="842" on="0"/>
        <pt x="1163" y="842" on="1"/>
        <pt x="1220" y="842" on="0"/>
        <pt x="1247" y="819" on="1"/>
        <pt x="1239" y="569" on="0"/>
        <pt x="895" y="154" on="0"/>
        <pt x="651" y="154" on="1"/>
        <pt x="498" y="154" on="0"/>
        <pt x="315" y="318" on="0"/>
        <pt x="315" y="455" on="1"/>
        <pt x="518" y="594" on="1"/>
        <pt x="616" y="662" on="0"/>
        <pt x="924" y="903" on="0"/>
        <pt x="1139" y="1108" on="0"/>
        <pt x="1300" y="1344" on="0"/>
        <pt x="1300" y="1432" on="1"/>
        <pt x="1300" y="1487" on="0"/>
        <pt x="1235" y="1573" on="0"/>
        <pt x="1178" y="1573" on="1"/>
        <pt x="1118" y="1573" on="0"/>
        <pt x="1051" y="1503" on="0"/>
        <pt x="1051" y="1464" on="1"/>
        <pt x="1051" y="1425" on="0"/>
        <pt x="1098" y="1372" on="0"/>
        <pt x="1098" y="1354" on="1"/>
        <pt x="1098" y="1270" on="0"/>
        <pt x="887" y="997" on="0"/>
        <pt x="778" y="911" on="1"/>
        <pt x="768" y="952" on="0"/>
        <pt x="694" y="1016" on="0"/>
        <pt x="643" y="1016" on="1"/>
        <pt x="494" y="1016" on="0"/>
        <pt x="203" y="758" on="0"/>
        <pt x="104" y="503" on="0"/>
        <pt x="104" y="401" on="1"/>
      </contour>
      <contour>
        <pt x="571" y="737" on="1"/>
        <pt x="381" y="577" on="0"/>
        <pt x="315" y="532" on="1"/>
        <pt x="319" y="627" on="0"/>
        <pt x="446" y="891" on="0"/>
        <pt x="526" y="891" on="1"/>
        <pt x="547" y="891" on="0"/>
        <pt x="590" y="852" on="0"/>
        <pt x="590" y="817" on="1"/>
        <pt x="589" y="784" on="0"/>
        <pt x="571" y="737" on="1"/>
      </contour>
    </TTGlyph>
    <TTGlyph name="aogonek" xMin="63" yMin="-521" xMax="952" yMax="885">
      <contour>
        <pt x="340" y="-404" on="1"/>
        <pt x="340" y="-521" on="0"/>
        <pt x="648" y="-519" on="0"/>
        <pt x="754" y="-406" on="1"/>
        <pt x="764" y="-373" on="0"/>
        <pt x="746" y="-367" on="1"/>
        <pt x="694" y="-398" on="0"/>
        <pt x="633" y="-398" on="1"/>
        <pt x="537" y="-398" on="0"/>
        <pt x="537" y="-324" on="1"/>
        <pt x="537" y="-193" on="0"/>
        <pt x="787" y="10" on="1"/>
        <pt x="680" y="10" on="1"/>
        <pt x="340" y="-214" on="0"/>
        <pt x="340" y="-404" on="1"/>
      </contour>
      <contour>
        <pt x="948" y="831" on="1"/>
        <pt x="952" y="844" on="0"/>
        <pt x="952" y="850" on="1"/>
        <pt x="952" y="885" on="0"/>
        <pt x="776" y="885" on="0"/>
        <pt x="768" y="862" on="1"/>
        <pt x="748" y="813" on="1"/>
        <pt x="702" y="844" on="0"/>
        <pt x="641" y="844" on="1"/>
        <pt x="434" y="844" on="0"/>
        <pt x="63" y="375" on="0"/>
        <pt x="63" y="166" on="1"/>
        <pt x="63" y="82" on="0"/>
        <pt x="149" y="-27" on="0"/>
        <pt x="223" y="-27" on="1"/>
        <pt x="361" y="-27" on="0"/>
        <pt x="584" y="221" on="1"/>
        <pt x="596" y="215" on="1"/>
        <pt x="569" y="156" on="1"/>
        <pt x="553" y="112" on="0"/>
        <pt x="553" y="63" on="1"/>
        <pt x="551" y="-27" on="0"/>
        <pt x="631" y="-27" on="1"/>
        <pt x="686" y="-27" on="0"/>
        <pt x="838" y="68" on="0"/>
        <pt x="930" y="158" on="1"/>
        <pt x="934" y="164" on="0"/>
        <pt x="934" y="168" on="1"/>
        <pt x="933" y="179" on="0"/>
        <pt x="913" y="195" on="1"/>
        <pt x="886" y="219" on="0"/>
        <pt x="874" y="207" on="1"/>
        <pt x="809" y="141" on="0"/>
        <pt x="772" y="141" on="1"/>
        <pt x="750" y="142" on="0"/>
        <pt x="750" y="162" on="1"/>
        <pt x="750" y="170" on="0"/>
        <pt x="752" y="180" on="1"/>
        <pt x="948" y="831" on="1"/>
      </contour>
      <contour>
        <pt x="666" y="553" on="1"/>
        <pt x="639" y="465" on="0"/>
        <pt x="532" y="272" on="0"/>
        <pt x="383" y="111" on="0"/>
        <pt x="332" y="111" on="1"/>
        <pt x="285" y="110" on="0"/>
        <pt x="285" y="227" on="1"/>
        <pt x="285" y="383" on="0"/>
        <pt x="505" y="760" on="0"/>
        <pt x="614" y="760" on="1"/>
        <pt x="682" y="760" on="0"/>
        <pt x="715" y="713" on="1"/>
        <pt x="666" y="553" on="1"/>
        <pt x="666" y="553" on="1"/>
      </contour>
    </TTGlyph>
    <TTGlyph name="aring" xMin="63" yMin="-27" xMax="988" yMax="1468">
      <component glyphName="a" x="0" y="0" flags="0x0"/>
      <component glyphName="uni030A" x="1148" y="0" flags="0x0"/>
    </TTGlyph>
    <TTGlyph name="aringacute" xMin="63" yMin="-27" xMax="1016" yMax="1885">
      <component glyphName="a" x="0" y="0" flags="0x0"/>
      <component glyphName="uni030A" x="1148" y="0" flags="0x0"/>
      <component glyphName="acutecomb" x="964" y="552" flags="0x4"/>
    </TTGlyph>
    <TTGlyph name="arrowdown" xMin="90" yMin="-428" xMax="934" yMax="1463">
      <contour>
        <pt x="612" y="1430" on="1"/>
        <pt x="612" y="1463" on="0"/>
        <pt x="412" y="1463" on="0"/>
        <pt x="412" y="1430" on="1"/>
        <pt x="412" y="-88" on="1"/>
        <pt x="109" y="147" on="1"/>
        <pt x="90" y="147" on="0"/>
        <pt x="93" y="29" on="0"/>
        <pt x="109" y="6" on="1"/>
        <pt x="414" y="-375" on="1"/>
        <pt x="457" y="-428" on="0"/>
        <pt x="506" y="-428" on="1"/>
        <pt x="557" y="-428" on="0"/>
        <pt x="600" y="-375" on="1"/>
        <pt x="915" y="6" on="1"/>
        <pt x="934" y="29" on="0"/>
        <pt x="933" y="150" on="0"/>
        <pt x="915" y="150" on="1"/>
        <pt x="612" y="-88" on="1"/>
        <pt x="612" y="1430" on="1"/>
      </contour>
    </TTGlyph>
    <TTGlyph name="arrowleft" xMin="80" yMin="94" xMax="1968" yMax="938">
      <contour>
        <pt x="418" y="616" on="1"/>
        <pt x="653" y="920" on="1"/>
        <pt x="653" y="938" on="0"/>
        <pt x="535" y="938" on="0"/>
        <pt x="512" y="920" on="1"/>
        <pt x="133" y="614" on="1"/>
        <pt x="80" y="571" on="0"/>
        <pt x="80" y="473" on="0"/>
        <pt x="133" y="428" on="1"/>
        <pt x="514" y="113" on="1"/>
        <pt x="537" y="94" on="0"/>
        <pt x="657" y="95" on="0"/>
        <pt x="657" y="113" on="1"/>
        <pt x="418" y="416" on="1"/>
        <pt x="1935" y="416" on="1"/>
        <pt x="1968" y="416" on="0"/>
        <pt x="1968" y="616" on="0"/>
        <pt x="1935" y="616" on="1"/>
      </contour>
    </TTGlyph>
    <TTGlyph name="arrowright" xMin="78" yMin="94" xMax="1968" yMax="938">
      <contour>
        <pt x="1534" y="920" on="1"/>
        <pt x="1511" y="938" on="0"/>
        <pt x="1391" y="938" on="0"/>
        <pt x="1391" y="920" on="1"/>
        <pt x="1630" y="616" on="1"/>
        <pt x="111" y="616" on="1"/>
        <pt x="80" y="616" on="0"/>
        <pt x="78" y="416" on="0"/>
        <pt x="111" y="416" on="1"/>
        <pt x="1630" y="416" on="1"/>
        <pt x="1393" y="113" on="1"/>
        <pt x="1393" y="94" on="0"/>
        <pt x="1511" y="95" on="0"/>
        <pt x="1534" y="113" on="1"/>
        <pt x="1915" y="418" on="1"/>
        <pt x="1968" y="461" on="0"/>
        <pt x="1968" y="559" on="0"/>
        <pt x="1915" y="604" on="1"/>
      </contour>
    </TTGlyph>
    <TTGlyph name="arrowup" xMin="90" yMin="-428" xMax="934" yMax="1460">
      <contour>
        <pt x="612" y="1122" on="1"/>
        <pt x="915" y="887" on="1"/>
        <pt x="934" y="887" on="0"/>
        <pt x="931" y="1003" on="0"/>
        <pt x="915" y="1026" on="1"/>
        <pt x="610" y="1407" on="1"/>
        <pt x="567" y="1460" on="0"/>
        <pt x="518" y="1460" on="1"/>
        <pt x="467" y="1460" on="0"/>
        <pt x="424" y="1407" on="1"/>
        <pt x="109" y="1026" on="1"/>
        <pt x="90" y="1004" on="0"/>
        <pt x="91" y="883" on="0"/>
        <pt x="109" y="883" on="1"/>
        <pt x="412" y="1122" on="1"/>
        <pt x="412" y="-395" on="1"/>
        <pt x="412" y="-428" on="0"/>
        <pt x="612" y="-428" on="0"/>
        <pt x="612" y="-395" on="1"/>
      </contour>
    </TTGlyph>
    <TTGlyph name="asciicircum" xMin="94" yMin="549" xMax="1014" yMax="1403">
      <contour>
        <pt x="588" y="1403" on="1"/>
        <pt x="520" y="1403" on="1"/>
        <pt x="94" y="549" on="1"/>
        <pt x="250" y="549" on="1"/>
        <pt x="545" y="1165" on="1"/>
        <pt x="557" y="1165" on="1"/>
        <pt x="850" y="549" on="1"/>
        <pt x="1014" y="549" on="1"/>
      </contour>
    </TTGlyph>
    <TTGlyph name="asciitilde" xMin="-6" yMin="346" xMax="745" yMax="573">
      <contour>
        <pt x="735" y="518" on="1"/>
        <pt x="745" y="530" on="0"/>
        <pt x="694" y="571" on="0"/>
        <pt x="680" y="561" on="1"/>
        <pt x="670" y="553" on="0"/>
        <pt x="616" y="506" on="0"/>
        <pt x="570" y="483" on="0"/>
        <pt x="541" y="483" on="1"/>
        <pt x="502" y="483" on="0"/>
        <pt x="313" y="573" on="0"/>
        <pt x="260" y="573" on="1"/>
        <pt x="219" y="573" on="0"/>
        <pt x="150" y="553" on="0"/>
        <pt x="92" y="510" on="0"/>
        <pt x="61" y="481" on="0"/>
        <pt x="12" y="422" on="0"/>
        <pt x="6" y="416" on="1"/>
        <pt x="-6" y="401" on="0"/>
        <pt x="45" y="353" on="0"/>
        <pt x="59" y="367" on="1"/>
        <pt x="141" y="438" on="0"/>
        <pt x="188" y="438" on="1"/>
        <pt x="233" y="438" on="0"/>
        <pt x="430" y="346" on="0"/>
        <pt x="481" y="346" on="1"/>
        <pt x="528" y="346" on="0"/>
        <pt x="614" y="389" on="0"/>
        <pt x="662" y="434" on="0"/>
        <pt x="727" y="510" on="0"/>
        <pt x="735" y="518" on="1"/>
      </contour>
    </TTGlyph>
    <TTGlyph name="asterisk" xMin="35" yMin="641" xMax="793" yMax="1384">
      <contour>
        <pt x="522" y="1012" on="1"/>
        <pt x="793" y="1151" on="1"/>
        <pt x="758" y="1247" on="1"/>
        <pt x="487" y="1108" on="1"/>
        <pt x="547" y="1384" on="1"/>
        <pt x="436" y="1384" on="1"/>
        <pt x="377" y="1108" on="1"/>
        <pt x="170" y="1243" on="1"/>
        <pt x="94" y="1147" on="1"/>
        <pt x="301" y="1012" on="1"/>
        <pt x="35" y="874" on="1"/>
        <pt x="70" y="778" on="1"/>
        <pt x="336" y="915" on="1"/>
        <pt x="276" y="641" on="1"/>
        <pt x="387" y="641" on="1"/>
        <pt x="446" y="915" on="1"/>
        <pt x="657" y="776" on="1"/>
        <pt x="733" y="872" on="1"/>
      </contour>
    </TTGlyph>
    <TTGlyph name="at" xMin="72" yMin="-33" xMax="1526" yMax="1384">
      <contour>
        <pt x="991" y="983" on="1"/>
        <pt x="960" y="1014" on="0"/>
        <pt x="899" y="1014" on="1"/>
        <pt x="791" y="1014" on="0"/>
        <pt x="588" y="829" on="0"/>
        <pt x="477" y="590" on="0"/>
        <pt x="477" y="494" on="1"/>
        <pt x="477" y="440" on="0"/>
        <pt x="531" y="358" on="0"/>
        <pt x="590" y="358" on="1"/>
        <pt x="693" y="358" on="0"/>
        <pt x="840" y="524" on="1"/>
        <pt x="850" y="518" on="1"/>
        <pt x="831" y="467" on="0"/>
        <pt x="831" y="436" on="1"/>
        <pt x="832" y="352" on="0"/>
        <pt x="975" y="352" on="1"/>
        <pt x="1223" y="352" on="0"/>
        <pt x="1526" y="647" on="0"/>
        <pt x="1526" y="848" on="1"/>
        <pt x="1526" y="1067" on="0"/>
        <pt x="1188" y="1384" on="0"/>
        <pt x="901" y="1384" on="1"/>
        <pt x="682" y="1384" on="0"/>
        <pt x="307" y="1198" on="0"/>
        <pt x="72" y="835" on="0"/>
        <pt x="72" y="602" on="1"/>
        <pt x="72" y="446" on="0"/>
        <pt x="197" y="197" on="0"/>
        <pt x="401" y="45" on="0"/>
        <pt x="649" y="-33" on="0"/>
        <pt x="782" y="-33" on="1"/>
        <pt x="1018" y="-33" on="0"/>
        <pt x="1194" y="76" on="1"/>
        <pt x="1210" y="84" on="0"/>
        <pt x="1183" y="135" on="0"/>
        <pt x="1167" y="127" on="1"/>
        <pt x="979" y="55" on="0"/>
        <pt x="844" y="55" on="1"/>
        <pt x="713" y="55" on="0"/>
        <pt x="504" y="127" on="0"/>
        <pt x="375" y="240" on="0"/>
        <pt x="289" y="387" on="0"/>
        <pt x="254" y="530" on="0"/>
        <pt x="254" y="604" on="1"/>
        <pt x="254" y="786" on="0"/>
        <pt x="401" y="1100" on="0"/>
        <pt x="695" y="1298" on="0"/>
        <pt x="883" y="1298" on="1"/>
        <pt x="1104" y="1298" on="0"/>
        <pt x="1397" y="1039" on="0"/>
        <pt x="1397" y="840" on="1"/>
        <pt x="1397" y="662" on="0"/>
        <pt x="1167" y="430" on="0"/>
        <pt x="1001" y="430" on="1"/>
        <pt x="958" y="430" on="0"/>
        <pt x="987" y="532" on="1"/>
        <pt x="1128" y="1010" on="1"/>
        <pt x="1135" y="1026" on="0"/>
        <pt x="1081" y="1053" on="0"/>
        <pt x="1065" y="1053" on="1"/>
        <pt x="1018" y="1052" on="0"/>
        <pt x="1012" y="1034" on="1"/>
        <pt x="991" y="983" on="1"/>
      </contour>
      <contour>
        <pt x="883" y="967" on="1"/>
        <pt x="949" y="967" on="0"/>
        <pt x="967" y="920" on="1"/>
        <pt x="924" y="772" on="1"/>
        <pt x="886" y="650" on="0"/>
        <pt x="825" y="580" on="1"/>
        <pt x="710" y="449" on="0"/>
        <pt x="659" y="449" on="1"/>
        <pt x="629" y="448" on="0"/>
        <pt x="629" y="518" on="1"/>
        <pt x="629" y="584" on="0"/>
        <pt x="698" y="793" on="0"/>
        <pt x="822" y="967" on="0"/>
        <pt x="883" y="967" on="1"/>
      </contour>
    </TTGlyph>
    <TTGlyph name="atilde" xMin="63" yMin="-27" xMax="1029" yMax="1257">
      <component glyphName="a" x="0" y="0" flags="0x0"/>
      <component glyphName="tildecomb" x="1127" y="0" flags="0x0"/>
    </TTGlyph>
    <TTGlyph name="b" xMin="88" yMin="-27" xMax="915" yMax="1487">
      <contour>
        <pt x="915" y="608" on="1"/>
        <pt x="915" y="852" on="0"/>
        <pt x="711" y="852" on="1"/>
        <pt x="576" y="852" on="0"/>
        <pt x="408" y="645" on="1"/>
        <pt x="391" y="653" on="1"/>
        <pt x="580" y="1448" on="1"/>
        <pt x="584" y="1458" on="0"/>
        <pt x="584" y="1464" on="1"/>
        <pt x="584" y="1487" on="0"/>
        <pt x="561" y="1487" on="1"/>
        <pt x="553" y="1487" on="0"/>
        <pt x="356" y="1432" on="0"/>
        <pt x="274" y="1432" on="1"/>
        <pt x="256" y="1432" on="0"/>
        <pt x="254" y="1360" on="0"/>
        <pt x="274" y="1360" on="1"/>
        <pt x="338" y="1360" on="0"/>
        <pt x="338" y="1282" on="1"/>
        <pt x="336" y="1255" on="0"/>
        <pt x="328" y="1214" on="1"/>
        <pt x="100" y="262" on="1"/>
        <pt x="88" y="217" on="0"/>
        <pt x="88" y="174" on="1"/>
        <pt x="90" y="-27" on="0"/>
        <pt x="270" y="-27" on="1"/>
        <pt x="543" y="-27" on="0"/>
        <pt x="915" y="360" on="0"/>
        <pt x="915" y="608" on="1"/>
      </contour>
      <contour>
        <pt x="696" y="618" on="1"/>
        <pt x="696" y="430" on="0"/>
        <pt x="497" y="63" on="0"/>
        <pt x="360" y="63" on="1"/>
        <pt x="291" y="63" on="0"/>
        <pt x="291" y="190" on="1"/>
        <pt x="291" y="238" on="0"/>
        <pt x="352" y="455" on="0"/>
        <pt x="553" y="731" on="0"/>
        <pt x="631" y="731" on="1"/>
        <pt x="696" y="731" on="0"/>
        <pt x="696" y="618" on="1"/>
      </contour>
    </TTGlyph>
    <TTGlyph name="backslash" xMin="-24" yMin="-14" xMax="752" yMax="1489">
      <contour>
        <pt x="119" y="1464" on="1"/>
        <pt x="109" y="1489" on="0"/>
        <pt x="-24" y="1430" on="0"/>
        <pt x="-12" y="1405" on="1"/>
        <pt x="614" y="-4" on="1"/>
        <pt x="625" y="-14" on="0"/>
        <pt x="688" y="2" on="0"/>
        <pt x="752" y="43" on="0"/>
        <pt x="748" y="55" on="1"/>
      </contour>
    </TTGlyph>
    <TTGlyph name="bar" xMin="197" yMin="-334" xMax="391" yMax="1434">
      <contour>
        <pt x="391" y="-334" on="1"/>
        <pt x="391" y="1434" on="1"/>
        <pt x="197" y="1434" on="1"/>
        <pt x="197" y="-334" on="1"/>
      </contour>
    </TTGlyph>
    <TTGlyph name="braceleft" xMin="231" yMin="-319" xMax="1128" yMax="1493">
      <contour>
        <pt x="1114" y="1493" on="1"/>
        <pt x="1040" y="1493" on="0"/>
        <pt x="965" y="1491" on="0"/>
        <pt x="852" y="1483" on="0"/>
        <pt x="793" y="1462" on="0"/>
        <pt x="713" y="1427" on="0"/>
        <pt x="666" y="1374" on="0"/>
        <pt x="610" y="1296" on="0"/>
        <pt x="569" y="1190" on="0"/>
        <pt x="551" y="1122" on="1"/>
        <pt x="463" y="797" on="1"/>
        <pt x="442" y="719" on="0"/>
        <pt x="352" y="647" on="0"/>
        <pt x="270" y="647" on="1"/>
        <pt x="254" y="647" on="0"/>
        <pt x="238" y="586" on="0"/>
        <pt x="254" y="586" on="1"/>
        <pt x="336" y="586" on="0"/>
        <pt x="388" y="512" on="0"/>
        <pt x="365" y="430" on="1"/>
        <pt x="252" y="6" on="1"/>
        <pt x="233" y="-61" on="0"/>
        <pt x="231" y="-166" on="0"/>
        <pt x="248" y="-236" on="0"/>
        <pt x="311" y="-283" on="0"/>
        <pt x="360" y="-305" on="0"/>
        <pt x="471" y="-317" on="0"/>
        <pt x="538" y="-319" on="0"/>
        <pt x="606" y="-319" on="1"/>
        <pt x="629" y="-319" on="1"/>
        <pt x="643" y="-319" on="0"/>
        <pt x="663" y="-244" on="0"/>
        <pt x="649" y="-244" on="1"/>
        <pt x="496" y="-244" on="0"/>
        <pt x="426" y="-141" on="0"/>
        <pt x="471" y="39" on="1"/>
        <pt x="543" y="305" on="1"/>
        <pt x="578" y="416" on="0"/>
        <pt x="564" y="569" on="0"/>
        <pt x="498" y="616" on="1"/>
        <pt x="551" y="643" on="0"/>
        <pt x="621" y="705" on="0"/>
        <pt x="670" y="801" on="0"/>
        <pt x="695" y="874" on="0"/>
        <pt x="715" y="950" on="1"/>
        <pt x="778" y="1184" on="1"/>
        <pt x="817" y="1327" on="0"/>
        <pt x="959" y="1417" on="0"/>
        <pt x="1094" y="1417" on="1"/>
        <pt x="1108" y="1417" on="0"/>
        <pt x="1128" y="1493" on="0"/>
        <pt x="1114" y="1493" on="1"/>
      </contour>
    </TTGlyph>
    <TTGlyph name="braceright" xMin="-20" yMin="-319" xMax="884" yMax="1493">
      <contour>
        <pt x="870" y="647" on="1"/>
        <pt x="788" y="647" on="0"/>
        <pt x="735" y="719" on="0"/>
        <pt x="758" y="797" on="1"/>
        <pt x="844" y="1122" on="1"/>
        <pt x="862" y="1190" on="0"/>
        <pt x="879" y="1296" on="0"/>
        <pt x="864" y="1374" on="0"/>
        <pt x="846" y="1427" on="0"/>
        <pt x="784" y="1462" on="0"/>
        <pt x="735" y="1483" on="0"/>
        <pt x="627" y="1491" on="0"/>
        <pt x="553" y="1493" on="0"/>
        <pt x="479" y="1493" on="1"/>
        <pt x="465" y="1493" on="0"/>
        <pt x="445" y="1417" on="0"/>
        <pt x="459" y="1417" on="1"/>
        <pt x="596" y="1417" on="0"/>
        <pt x="688" y="1327" on="0"/>
        <pt x="649" y="1184" on="1"/>
        <pt x="588" y="950" on="1"/>
        <pt x="549" y="836" on="0"/>
        <pt x="553" y="665" on="0"/>
        <pt x="625" y="616" on="1"/>
        <pt x="535" y="569" on="0"/>
        <pt x="449" y="430" on="0"/>
        <pt x="414" y="305" on="1"/>
        <pt x="344" y="39" on="1"/>
        <pt x="295" y="-137" on="0"/>
        <pt x="168" y="-244" on="0"/>
        <pt x="14" y="-244" on="1"/>
        <pt x="-2" y="-244" on="0"/>
        <pt x="-20" y="-319" on="0"/>
        <pt x="-6" y="-319" on="1"/>
        <pt x="16" y="-319" on="1"/>
        <pt x="78" y="-319" on="0"/>
        <pt x="135" y="-317" on="0"/>
        <pt x="240" y="-311" on="0"/>
        <pt x="297" y="-293" on="0"/>
        <pt x="379" y="-264" on="0"/>
        <pt x="430" y="-215" on="0"/>
        <pt x="487" y="-150" on="0"/>
        <pt x="529" y="-53" on="0"/>
        <pt x="545" y="6" on="1"/>
        <pt x="659" y="430" on="1"/>
        <pt x="682" y="512" on="0"/>
        <pt x="772" y="586" on="0"/>
        <pt x="854" y="586" on="1"/>
        <pt x="868" y="586" on="0"/>
        <pt x="884" y="647" on="0"/>
        <pt x="870" y="647" on="1"/>
      </contour>
    </TTGlyph>
    <TTGlyph name="bracketleft" xMin="47" yMin="-354" xMax="1118" yMax="1530">
      <contour>
        <pt x="608" y="1530" on="1"/>
        <pt x="588" y="1529" on="0"/>
        <pt x="584" y="1511" on="1"/>
        <pt x="53" y="-332" on="1"/>
        <pt x="47" y="-354" on="0"/>
        <pt x="72" y="-354" on="1"/>
        <pt x="578" y="-354" on="1"/>
        <pt x="594" y="-354" on="0"/>
        <pt x="618" y="-258" on="0"/>
        <pt x="604" y="-258" on="1"/>
        <pt x="303" y="-258" on="1"/>
        <pt x="289" y="-258" on="0"/>
        <pt x="297" y="-229" on="1"/>
        <pt x="768" y="1411" on="1"/>
        <pt x="777" y="1434" on="0"/>
        <pt x="795" y="1434" on="1"/>
        <pt x="1071" y="1434" on="1"/>
        <pt x="1085" y="1434" on="0"/>
        <pt x="1118" y="1530" on="0"/>
        <pt x="1104" y="1530" on="1"/>
      </contour>
    </TTGlyph>
    <TTGlyph name="bracketright" xMin="-245" yMin="-355" xMax="837" yMax="1530">
      <contour>
        <pt x="831" y="1511" on="1"/>
        <pt x="837" y="1529" on="0"/>
        <pt x="817" y="1530" on="1"/>
        <pt x="324" y="1530" on="1"/>
        <pt x="307" y="1530" on="0"/>
        <pt x="283" y="1434" on="0"/>
        <pt x="299" y="1434" on="1"/>
        <pt x="580" y="1434" on="1"/>
        <pt x="598" y="1434" on="0"/>
        <pt x="590" y="1411" on="1"/>
        <pt x="119" y="-233" on="1"/>
        <pt x="112" y="-258" on="0"/>
        <pt x="98" y="-258" on="1"/>
        <pt x="-207" y="-258" on="1"/>
        <pt x="-221" y="-258" on="0"/>
        <pt x="-245" y="-354" on="0"/>
        <pt x="-231" y="-354" on="1"/>
        <pt x="276" y="-354" on="1"/>
        <pt x="297" y="-355" on="0"/>
        <pt x="303" y="-332" on="1"/>
        <pt x="831" y="1511" on="1"/>
      </contour>
    </TTGlyph>
    <TTGlyph name="breve" xMin="123" yMin="1020" xMax="721" yMax="1335">
      <contour>
        <pt x="344" y="1020" on="1"/>
        <pt x="721" y="1020" on="0"/>
        <pt x="721" y="1327" on="1"/>
        <pt x="721" y="1335" on="0"/>
        <pt x="663" y="1335" on="0"/>
        <pt x="659" y="1327" on="1"/>
        <pt x="571" y="1155" on="0"/>
        <pt x="205" y="1155" on="0"/>
        <pt x="205" y="1309" on="1"/>
        <pt x="205" y="1327" on="1"/>
        <pt x="205" y="1335" on="0"/>
        <pt x="145" y="1335" on="0"/>
        <pt x="143" y="1327" on="1"/>
        <pt x="123" y="1255" on="0"/>
        <pt x="123" y="1200" on="1"/>
        <pt x="123" y="1020" on="0"/>
        <pt x="344" y="1020" on="1"/>
      </contour>
    </TTGlyph>
    <TTGlyph name="brokenbar" xMin="272" yMin="109" xMax="467" yMax="1372">
      <contour>
        <pt x="467" y="1372" on="1"/>
        <pt x="272" y="1372" on="1"/>
        <pt x="272" y="795" on="1"/>
        <pt x="467" y="795" on="1"/>
      </contour>
      <contour>
        <pt x="467" y="688" on="1"/>
        <pt x="272" y="688" on="1"/>
        <pt x="272" y="109" on="1"/>
        <pt x="467" y="109" on="1"/>
      </contour>
    </TTGlyph>
    <TTGlyph name="bullet" xMin="176" yMin="489" xMax="707" yMax="1012">
      <contour>
        <pt x="707" y="741" on="1"/>
        <pt x="707" y="833" on="0"/>
        <pt x="659" y="903" on="1"/>
        <pt x="637" y="934" on="1"/>
        <pt x="564" y="1012" on="0"/>
        <pt x="455" y="1012" on="1"/>
        <pt x="301" y="1011" on="0"/>
        <pt x="225" y="907" on="1"/>
        <pt x="176" y="838" on="0"/>
        <pt x="176" y="760" on="1"/>
        <pt x="177" y="619" on="0"/>
        <pt x="281" y="545" on="1"/>
        <pt x="358" y="489" on="0"/>
        <pt x="551" y="490" on="0"/>
        <pt x="621" y="549" on="1"/>
        <pt x="707" y="622" on="0"/>
        <pt x="707" y="741" on="1"/>
      </contour>
    </TTGlyph>
    <TTGlyph name="c" xMin="92" yMin="-27" xMax="780" yMax="852">
      <contour>
        <pt x="629" y="113" on="1"/>
        <pt x="637" y="121" on="0"/>
        <pt x="618" y="150" on="0"/>
        <pt x="590" y="166" on="0"/>
        <pt x="582" y="158" on="1"/>
        <pt x="565" y="141" on="0"/>
        <pt x="481" y="90" on="0"/>
        <pt x="428" y="90" on="1"/>
        <pt x="365" y="90" on="0"/>
        <pt x="301" y="232" on="0"/>
        <pt x="301" y="330" on="1"/>
        <pt x="301" y="479" on="0"/>
        <pt x="441" y="770" on="0"/>
        <pt x="537" y="770" on="1"/>
        <pt x="569" y="770" on="0"/>
        <pt x="592" y="745" on="1"/>
        <pt x="614" y="721" on="0"/>
        <pt x="618" y="674" on="1"/>
        <pt x="635" y="643" on="0"/>
        <pt x="678" y="643" on="1"/>
        <pt x="715" y="643" on="0"/>
        <pt x="780" y="700" on="0"/>
        <pt x="780" y="737" on="1"/>
        <pt x="780" y="786" on="0"/>
        <pt x="668" y="852" on="0"/>
        <pt x="588" y="852" on="1"/>
        <pt x="406" y="852" on="0"/>
        <pt x="92" y="467" on="0"/>
        <pt x="92" y="264" on="1"/>
        <pt x="92" y="133" on="0"/>
        <pt x="228" y="-27" on="0"/>
        <pt x="334" y="-27" on="1"/>
        <pt x="512" y="-27" on="0"/>
        <pt x="629" y="113" on="1"/>
      </contour>
    </TTGlyph>
    <TTGlyph name="cacute" xMin="92" yMin="-27" xMax="826" yMax="1333">
      <component glyphName="c" x="0" y="0" flags="0x0"/>
      <component glyphName="acutecomb" x="774" y="0" flags="0x0"/>
    </TTGlyph>
    <TTGlyph name="caron" xMin="168" yMin="925" xMax="729" yMax="1413">
      <contour>
        <pt x="438" y="1194" on="1"/>
        <pt x="395" y="1155" on="0"/>
        <pt x="375" y="1155" on="0"/>
        <pt x="352" y="1194" on="1"/>
        <pt x="231" y="1409" on="1"/>
        <pt x="229" y="1413" on="0"/>
        <pt x="217" y="1413" on="0"/>
        <pt x="205" y="1407" on="1"/>
        <pt x="168" y="1388" on="0"/>
        <pt x="168" y="1372" on="1"/>
        <pt x="168" y="1368" on="1"/>
        <pt x="279" y="956" on="1"/>
        <pt x="287" y="926" on="0"/>
        <pt x="350" y="925" on="0"/>
        <pt x="377" y="956" on="1"/>
        <pt x="725" y="1368" on="1"/>
        <pt x="729" y="1372" on="0"/>
        <pt x="729" y="1391" on="0"/>
        <pt x="702" y="1413" on="0"/>
        <pt x="688" y="1413" on="0"/>
        <pt x="682" y="1409" on="1"/>
      </contour>
    </TTGlyph>
    <TTGlyph name="caron.alt" xMin="606" yMin="1110" xMax="879" yMax="1491">
      <contour>
        <pt x="879" y="1440" on="1"/>
        <pt x="879" y="1491" on="0"/>
        <pt x="823" y="1491" on="1"/>
        <pt x="698" y="1491" on="0"/>
        <pt x="698" y="1436" on="1"/>
        <pt x="698" y="1432" on="0"/>
        <pt x="702" y="1405" on="0"/>
        <pt x="702" y="1378" on="1"/>
        <pt x="702" y="1282" on="0"/>
        <pt x="618" y="1165" on="1"/>
        <pt x="606" y="1147" on="0"/>
        <pt x="606" y="1122" on="0"/>
        <pt x="629" y="1110" on="0"/>
        <pt x="641" y="1110" on="1"/>
        <pt x="671" y="1110" on="0"/>
        <pt x="702" y="1145" on="1"/>
        <pt x="879" y="1342" on="0"/>
        <pt x="879" y="1440" on="1"/>
      </contour>
    </TTGlyph>
    <TTGlyph name="caron.case" xMin="358" yMin="1473" xMax="1090" yMax="1819">
      <contour>
        <pt x="631" y="1497" on="1"/>
        <pt x="655" y="1475" on="0"/>
        <pt x="708" y="1473" on="0"/>
        <pt x="733" y="1493" on="1"/>
        <pt x="1083" y="1763" on="1"/>
        <pt x="1090" y="1770" on="0"/>
        <pt x="1090" y="1778" on="1"/>
        <pt x="1090" y="1788" on="0"/>
        <pt x="1065" y="1819" on="0"/>
        <pt x="1053" y="1819" on="1"/>
        <pt x="1047" y="1819" on="1"/>
        <pt x="745" y="1686" on="1"/>
        <pt x="725" y="1675" on="0"/>
        <pt x="684" y="1678" on="0"/>
        <pt x="666" y="1686" on="1"/>
        <pt x="395" y="1819" on="1"/>
        <pt x="389" y="1819" on="1"/>
        <pt x="381" y="1819" on="0"/>
        <pt x="358" y="1784" on="0"/>
        <pt x="358" y="1774" on="1"/>
        <pt x="358" y="1767" on="0"/>
        <pt x="362" y="1763" on="1"/>
      </contour>
    </TTGlyph>
    <TTGlyph name="ccaron" xMin="92" yMin="-27" xMax="956" yMax="1413">
      <component glyphName="c" x="0" y="0" flags="0x0"/>
      <component glyphName="uni030C" x="845" y="0" flags="0x0"/>
    </TTGlyph>
    <TTGlyph name="ccedilla" xMin="12" yMin="-524" xMax="780" yMax="852">
      <contour>
        <pt x="430" y="-334" on="1"/>
        <pt x="430" y="-238" on="0"/>
        <pt x="332" y="-164" on="1"/>
        <pt x="309" y="-147" on="0"/>
        <pt x="303" y="-133" on="0"/>
        <pt x="315" y="-117" on="1"/>
        <pt x="383" y="-25" on="1"/>
        <pt x="529" y="-8" on="0"/>
        <pt x="629" y="113" on="1"/>
        <pt x="637" y="123" on="0"/>
        <pt x="618" y="150" on="0"/>
        <pt x="590" y="166" on="0"/>
        <pt x="582" y="158" on="1"/>
        <pt x="565" y="141" on="0"/>
        <pt x="481" y="90" on="0"/>
        <pt x="428" y="90" on="1"/>
        <pt x="365" y="90" on="0"/>
        <pt x="301" y="232" on="0"/>
        <pt x="301" y="330" on="1"/>
        <pt x="301" y="479" on="0"/>
        <pt x="441" y="770" on="0"/>
        <pt x="537" y="770" on="1"/>
        <pt x="569" y="770" on="0"/>
        <pt x="614" y="721" on="0"/>
        <pt x="618" y="674" on="1"/>
        <pt x="635" y="643" on="0"/>
        <pt x="678" y="643" on="1"/>
        <pt x="715" y="643" on="0"/>
        <pt x="780" y="700" on="0"/>
        <pt x="780" y="737" on="1"/>
        <pt x="780" y="786" on="0"/>
        <pt x="668" y="852" on="0"/>
        <pt x="588" y="852" on="1"/>
        <pt x="406" y="852" on="0"/>
        <pt x="92" y="467" on="0"/>
        <pt x="92" y="264" on="1"/>
        <pt x="92" y="133" on="0"/>
        <pt x="160" y="53" on="1"/>
        <pt x="209" y="-4" on="0"/>
        <pt x="279" y="-20" on="1"/>
        <pt x="137" y="-227" on="1"/>
        <pt x="143" y="-244" on="1"/>
        <pt x="270" y="-297" on="0"/>
        <pt x="270" y="-391" on="1"/>
        <pt x="270" y="-414" on="0"/>
        <pt x="235" y="-442" on="0"/>
        <pt x="217" y="-442" on="1"/>
        <pt x="197" y="-442" on="0"/>
        <pt x="109" y="-367" on="0"/>
        <pt x="78" y="-367" on="1"/>
        <pt x="49" y="-367" on="0"/>
        <pt x="12" y="-405" on="0"/>
        <pt x="12" y="-434" on="1"/>
        <pt x="12" y="-524" on="0"/>
        <pt x="170" y="-524" on="1"/>
        <pt x="274" y="-524" on="0"/>
        <pt x="430" y="-416" on="0"/>
        <pt x="430" y="-334" on="1"/>
      </contour>
    </TTGlyph>
    <TTGlyph name="ccircumflex" xMin="92" yMin="-27" xMax="876" yMax="1407">
      <component glyphName="c" x="0" y="0" flags="0x0"/>
      <component glyphName="uni0302" x="1118" y="0" flags="0x0"/>
    </TTGlyph>
    <TTGlyph name="cdotaccent" xMin="92" yMin="-27" xMax="785" yMax="1327">
      <component glyphName="c" x="0" y="0" flags="0x0"/>
      <component glyphName="uni0307" x="1082" y="0" flags="0x0"/>
    </TTGlyph>
    <TTGlyph name="cedilla" xMin="16" yMin="-514" xMax="434" yMax="0">
      <contour>
        <pt x="434" y="-324" on="1"/>
        <pt x="434" y="-228" on="0"/>
        <pt x="336" y="-154" on="1"/>
        <pt x="313" y="-137" on="0"/>
        <pt x="307" y="-122" on="0"/>
        <pt x="319" y="-106" on="1"/>
        <pt x="397" y="0" on="1"/>
        <pt x="289" y="0" on="1"/>
        <pt x="141" y="-217" on="1"/>
        <pt x="147" y="-233" on="1"/>
        <pt x="274" y="-287" on="0"/>
        <pt x="274" y="-381" on="1"/>
        <pt x="274" y="-403" on="0"/>
        <pt x="239" y="-432" on="0"/>
        <pt x="221" y="-432" on="1"/>
        <pt x="201" y="-432" on="0"/>
        <pt x="113" y="-356" on="0"/>
        <pt x="82" y="-356" on="1"/>
        <pt x="53" y="-356" on="0"/>
        <pt x="16" y="-395" on="0"/>
        <pt x="16" y="-424" on="1"/>
        <pt x="16" y="-514" on="0"/>
        <pt x="174" y="-514" on="1"/>
        <pt x="279" y="-514" on="0"/>
        <pt x="434" y="-406" on="0"/>
        <pt x="434" y="-324" on="1"/>
      </contour>
    </TTGlyph>
    <TTGlyph name="cent" xMin="119" yMin="17" xMax="977" yMax="1325">
      <contour>
        <pt x="975" y="1030" on="1"/>
        <pt x="952" y="1098" on="0"/>
        <pt x="793" y="1116" on="1"/>
        <pt x="870" y="1290" on="1"/>
        <pt x="874" y="1303" on="0"/>
        <pt x="770" y="1325" on="0"/>
        <pt x="764" y="1311" on="1"/>
        <pt x="680" y="1118" on="1"/>
        <pt x="473" y="1100" on="0"/>
        <pt x="303" y="924" on="1"/>
        <pt x="223" y="842" on="0"/>
        <pt x="119" y="624" on="0"/>
        <pt x="119" y="522" on="1"/>
        <pt x="119" y="424" on="0"/>
        <pt x="213" y="279" on="0"/>
        <pt x="291" y="244" on="1"/>
        <pt x="205" y="49" on="1"/>
        <pt x="201" y="37" on="0"/>
        <pt x="305" y="17" on="0"/>
        <pt x="311" y="29" on="1"/>
        <pt x="395" y="219" on="1"/>
        <pt x="416" y="219" on="1"/>
        <pt x="487" y="219" on="0"/>
        <pt x="627" y="252" on="0"/>
        <pt x="698" y="285" on="0"/>
        <pt x="791" y="336" on="0"/>
        <pt x="795" y="338" on="1"/>
        <pt x="817" y="348" on="0"/>
        <pt x="787" y="436" on="0"/>
        <pt x="762" y="422" on="1"/>
        <pt x="737" y="410" on="0"/>
        <pt x="694" y="381" on="0"/>
        <pt x="600" y="358" on="0"/>
        <pt x="539" y="358" on="1"/>
        <pt x="504" y="359" on="0"/>
        <pt x="467" y="379" on="1"/>
        <pt x="743" y="1004" on="1"/>
        <pt x="766" y="985" on="0"/>
        <pt x="780" y="942" on="1"/>
        <pt x="795" y="899" on="1"/>
        <pt x="833" y="839" on="0"/>
        <pt x="915" y="905" on="1"/>
        <pt x="946" y="928" on="0"/>
        <pt x="977" y="1003" on="0"/>
        <pt x="975" y="1030" on="1"/>
      </contour>
      <contour>
        <pt x="391" y="467" on="1"/>
        <pt x="365" y="526" on="0"/>
        <pt x="365" y="592" on="1"/>
        <pt x="365" y="711" on="0"/>
        <pt x="533" y="987" on="0"/>
        <pt x="635" y="1018" on="1"/>
      </contour>
    </TTGlyph>
    <TTGlyph name="cent.oldstyle" xMin="92" yMin="-174" xMax="780" yMax="989">
      <contour>
        <pt x="389" y="-23" on="1"/>
        <pt x="531" y="-4" on="0"/>
        <pt x="629" y="113" on="1"/>
        <pt x="637" y="123" on="0"/>
        <pt x="618" y="150" on="0"/>
        <pt x="590" y="166" on="0"/>
        <pt x="582" y="158" on="1"/>
        <pt x="565" y="141" on="0"/>
        <pt x="481" y="90" on="0"/>
        <pt x="428" y="90" on="1"/>
        <pt x="416" y="90" on="1"/>
        <pt x="569" y="762" on="1"/>
        <pt x="582" y="755" on="0"/>
        <pt x="592" y="745" on="1"/>
        <pt x="614" y="721" on="0"/>
        <pt x="618" y="674" on="1"/>
        <pt x="635" y="643" on="0"/>
        <pt x="678" y="643" on="1"/>
        <pt x="715" y="643" on="0"/>
        <pt x="780" y="700" on="0"/>
        <pt x="780" y="737" on="1"/>
        <pt x="780" y="786" on="0"/>
        <pt x="725" y="819" on="1"/>
        <pt x="668" y="852" on="0"/>
        <pt x="590" y="852" on="1"/>
        <pt x="614" y="956" on="1"/>
        <pt x="616" y="971" on="0"/>
        <pt x="563" y="983" on="1"/>
        <pt x="540" y="989" on="0"/>
        <pt x="526" y="989" on="1"/>
        <pt x="510" y="989" on="0"/>
        <pt x="508" y="981" on="1"/>
        <pt x="473" y="831" on="1"/>
        <pt x="356" y="790" on="0"/>
        <pt x="250" y="659" on="1"/>
        <pt x="92" y="467" on="0"/>
        <pt x="92" y="264" on="1"/>
        <pt x="92" y="133" on="0"/>
        <pt x="160" y="53" on="1"/>
        <pt x="209" y="-4" on="0"/>
        <pt x="279" y="-20" on="1"/>
        <pt x="250" y="-145" on="1"/>
        <pt x="246" y="-156" on="0"/>
        <pt x="299" y="-168" on="1"/>
        <pt x="328" y="-174" on="0"/>
        <pt x="342" y="-174" on="1"/>
        <pt x="354" y="-174" on="0"/>
        <pt x="356" y="-170" on="1"/>
      </contour>
      <contour>
        <pt x="324" y="182" on="1"/>
        <pt x="301" y="246" on="0"/>
        <pt x="301" y="330" on="1"/>
        <pt x="301" y="480" on="0"/>
        <pt x="371" y="625" on="1"/>
        <pt x="408" y="700" on="0"/>
        <pt x="453" y="737" on="1"/>
      </contour>
    </TTGlyph>
    <TTGlyph name="circumflex" xMin="49" yMin="922" xMax="612" yMax="1407">
      <contour>
        <pt x="500" y="1376" on="1"/>
        <pt x="492" y="1407" on="0"/>
        <pt x="426" y="1407" on="0"/>
        <pt x="401" y="1376" on="1"/>
        <pt x="53" y="965" on="1"/>
        <pt x="49" y="958" on="0"/>
        <pt x="49" y="948" on="1"/>
        <pt x="49" y="942" on="0"/>
        <pt x="74" y="922" on="0"/>
        <pt x="90" y="922" on="0"/>
        <pt x="94" y="926" on="1"/>
        <pt x="340" y="1139" on="1"/>
        <pt x="373" y="1165" on="0"/>
        <pt x="410" y="1168" on="0"/>
        <pt x="426" y="1139" on="1"/>
        <pt x="545" y="926" on="1"/>
        <pt x="547" y="922" on="0"/>
        <pt x="563" y="922" on="0"/>
        <pt x="612" y="949" on="0"/>
        <pt x="610" y="965" on="1"/>
      </contour>
    </TTGlyph>
    <TTGlyph name="circumflex.case" xMin="358" yMin="1475" xMax="1090" yMax="1820">
      <contour>
        <pt x="817" y="1794" on="1"/>
        <pt x="791" y="1819" on="0"/>
        <pt x="740" y="1820" on="0"/>
        <pt x="715" y="1800" on="1"/>
        <pt x="365" y="1530" on="1"/>
        <pt x="358" y="1524" on="0"/>
        <pt x="358" y="1516" on="1"/>
        <pt x="358" y="1505" on="0"/>
        <pt x="383" y="1475" on="0"/>
        <pt x="395" y="1475" on="1"/>
        <pt x="399" y="1477" on="0"/>
        <pt x="401" y="1477" on="1"/>
        <pt x="702" y="1610" on="1"/>
        <pt x="723" y="1618" on="0"/>
        <pt x="764" y="1618" on="0"/>
        <pt x="782" y="1610" on="1"/>
        <pt x="1053" y="1477" on="1"/>
        <pt x="1055" y="1475" on="0"/>
        <pt x="1057" y="1475" on="1"/>
        <pt x="1067" y="1475" on="0"/>
        <pt x="1090" y="1510" on="0"/>
        <pt x="1090" y="1520" on="1"/>
        <pt x="1089" y="1526" on="0"/>
        <pt x="1085" y="1530" on="1"/>
      </contour>
    </TTGlyph>
    <TTGlyph name="colon" xMin="152" yMin="-27" xMax="633" yMax="864">
      <contour>
        <pt x="633" y="707" on="1"/>
        <pt x="633" y="773" on="0"/>
        <pt x="541" y="864" on="0"/>
        <pt x="414" y="864" on="0"/>
        <pt x="319" y="770" on="0"/>
        <pt x="320" y="643" on="0"/>
        <pt x="367" y="598" on="1"/>
        <pt x="414" y="551" on="0"/>
        <pt x="541" y="551" on="0"/>
        <pt x="633" y="644" on="0"/>
        <pt x="633" y="707" on="1"/>
      </contour>
      <contour>
        <pt x="463" y="131" on="1"/>
        <pt x="463" y="194" on="0"/>
        <pt x="371" y="287" on="0"/>
        <pt x="244" y="287" on="0"/>
        <pt x="152" y="194" on="0"/>
        <pt x="152" y="131" on="1"/>
        <pt x="154" y="65" on="0"/>
        <pt x="199" y="18" on="1"/>
        <pt x="244" y="-27" on="0"/>
        <pt x="307" y="-27" on="1"/>
        <pt x="373" y="-27" on="0"/>
        <pt x="418" y="18" on="1"/>
        <pt x="463" y="65" on="0"/>
        <pt x="463" y="131" on="1"/>
      </contour>
    </TTGlyph>
    <TTGlyph name="comma" xMin="-49" yMin="-313" xMax="428" yMax="332">
      <contour>
        <pt x="428" y="168" on="1"/>
        <pt x="428" y="246" on="0"/>
        <pt x="338" y="332" on="0"/>
        <pt x="199" y="332" on="0"/>
        <pt x="96" y="239" on="0"/>
        <pt x="96" y="180" on="1"/>
        <pt x="96" y="98" on="0"/>
        <pt x="174" y="55" on="1"/>
        <pt x="196" y="47" on="0"/>
        <pt x="188" y="14" on="1"/>
        <pt x="153" y="-94" on="0"/>
        <pt x="-35" y="-244" on="1"/>
        <pt x="-49" y="-256" on="0"/>
        <pt x="-18" y="-313" on="0"/>
        <pt x="-2" y="-303" on="1"/>
        <pt x="39" y="-287" on="0"/>
        <pt x="174" y="-201" on="0"/>
        <pt x="324" y="-74" on="0"/>
        <pt x="428" y="92" on="0"/>
        <pt x="428" y="168" on="1"/>
      </contour>
    </TTGlyph>
    <TTGlyph name="copyright" xMin="90" yMin="27" xMax="1532" yMax="1468">
      <contour>
        <pt x="1532" y="451" on="0"/>
        <pt x="1532" y="1044" on="0"/>
        <pt x="1110" y="1468" on="0"/>
        <pt x="512" y="1468" on="0"/>
        <pt x="90" y="1044" on="0"/>
        <pt x="90" y="451" on="0"/>
        <pt x="512" y="27" on="0"/>
        <pt x="1110" y="27" on="0"/>
      </contour>
      <contour>
        <pt x="1430" y="1004" on="0"/>
        <pt x="1430" y="492" on="0"/>
        <pt x="1067" y="129" on="0"/>
        <pt x="555" y="129" on="0"/>
        <pt x="193" y="492" on="0"/>
        <pt x="193" y="1004" on="0"/>
        <pt x="555" y="1366" on="0"/>
        <pt x="1067" y="1366" on="0"/>
      </contour>
      <contour>
        <pt x="1108" y="561" on="1"/>
        <pt x="1108" y="567" on="0"/>
        <pt x="1083" y="582" on="0"/>
        <pt x="1061" y="581" on="0"/>
        <pt x="1057" y="575" on="1"/>
        <pt x="1007" y="426" on="0"/>
        <pt x="821" y="426" on="1"/>
        <pt x="733" y="426" on="0"/>
        <pt x="575" y="598" on="0"/>
        <pt x="575" y="768" on="1"/>
        <pt x="575" y="901" on="0"/>
        <pt x="708" y="1085" on="0"/>
        <pt x="823" y="1085" on="1"/>
        <pt x="1020" y="1086" on="0"/>
        <pt x="1036" y="924" on="1"/>
        <pt x="1038" y="915" on="0"/>
        <pt x="1087" y="918" on="0"/>
        <pt x="1087" y="928" on="1"/>
        <pt x="1088" y="1055" on="0"/>
        <pt x="1065" y="1104" on="1"/>
        <pt x="1032" y="1104" on="0"/>
        <pt x="1022" y="1106" on="1"/>
        <pt x="897" y="1133" on="0"/>
        <pt x="825" y="1133" on="1"/>
        <pt x="649" y="1133" on="0"/>
        <pt x="430" y="905" on="0"/>
        <pt x="430" y="737" on="1"/>
        <pt x="430" y="586" on="0"/>
        <pt x="651" y="375" on="0"/>
        <pt x="815" y="375" on="1"/>
        <pt x="916" y="374" on="0"/>
        <pt x="1006" y="399" on="1"/>
        <pt x="1014" y="401" on="0"/>
        <pt x="1049" y="410" on="0"/>
        <pt x="1053" y="410" on="1"/>
        <pt x="1069" y="434" on="0"/>
        <pt x="1106" y="541" on="0"/>
        <pt x="1108" y="561" on="1"/>
      </contour>
    </TTGlyph>
    <TTGlyph name="currency" xMin="78" yMin="233" xMax="946" yMax="1102">
      <contour>
        <pt x="858" y="406" on="1"/>
        <pt x="946" y="523" on="0"/>
        <pt x="946" y="813" on="0"/>
        <pt x="858" y="930" on="1"/>
        <pt x="936" y="1008" on="1"/>
        <pt x="946" y="1018" on="0"/>
        <pt x="862" y="1102" on="0"/>
        <pt x="852" y="1092" on="1"/>
        <pt x="774" y="1014" on="1"/>
        <pt x="657" y="1102" on="0"/>
        <pt x="512" y="1102" on="1"/>
        <pt x="369" y="1102" on="0"/>
        <pt x="252" y="1012" on="1"/>
        <pt x="172" y="1092" on="1"/>
        <pt x="162" y="1102" on="0"/>
        <pt x="78" y="1018" on="0"/>
        <pt x="88" y="1008" on="1"/>
        <pt x="168" y="928" on="1"/>
        <pt x="80" y="813" on="0"/>
        <pt x="80" y="523" on="0"/>
        <pt x="168" y="408" on="1"/>
        <pt x="88" y="328" on="1"/>
        <pt x="78" y="317" on="0"/>
        <pt x="162" y="234" on="0"/>
        <pt x="172" y="244" on="1"/>
        <pt x="252" y="324" on="1"/>
        <pt x="369" y="233" on="0"/>
        <pt x="514" y="233" on="1"/>
        <pt x="657" y="234" on="0"/>
        <pt x="774" y="322" on="1"/>
        <pt x="852" y="244" on="1"/>
        <pt x="862" y="233" on="0"/>
        <pt x="946" y="318" on="0"/>
        <pt x="936" y="328" on="1"/>
        <pt x="936" y="328" on="1"/>
        <pt x="935" y="376" on="1"/>
        <pt x="926" y="496" on="0"/>
        <pt x="858" y="406" on="1"/>
      </contour>
      <contour>
        <pt x="512" y="979" on="1"/>
        <pt x="643" y="979" on="0"/>
        <pt x="825" y="797" on="0"/>
        <pt x="825" y="538" on="0"/>
        <pt x="733" y="446" on="1"/>
        <pt x="643" y="356" on="0"/>
        <pt x="512" y="356" on="1"/>
        <pt x="383" y="356" on="0"/>
        <pt x="293" y="446" on="1"/>
        <pt x="201" y="539" on="0"/>
        <pt x="201" y="797" on="0"/>
        <pt x="383" y="979" on="0"/>
        <pt x="512" y="979" on="1"/>
      </contour>
    </TTGlyph>
</ttFont>
